<?xml version="1.0" encoding="UTF-8" standalone="no"?>
<!-- Generator: Adobe Illustrator 16.0.0, SVG Export Plug-In . SVG Version: 6.00 Build 0)  -->

<svg
   xmlns:dc="http://purl.org/dc/elements/1.1/"
   xmlns:cc="http://creativecommons.org/ns#"
   xmlns:rdf="http://www.w3.org/1999/02/22-rdf-syntax-ns#"
   xmlns:svg="http://www.w3.org/2000/svg"
   xmlns="http://www.w3.org/2000/svg"
   xmlns:xlink="http://www.w3.org/1999/xlink"
   xmlns:sodipodi="http://sodipodi.sourceforge.net/DTD/sodipodi-0.dtd"
   xmlns:inkscape="http://www.inkscape.org/namespaces/inkscape"
   version="1.1"
   id="Layer_1"
   x="0px"
   y="0px"
   width="32"
   height="32"
   viewBox="0 0 32 31.999999"
   enable-background="new 0 0 623.62 481.89"
   xml:space="preserve"
   inkscape:version="0.48.4 r9939"
   sodipodi:docname="blog_icon.svg"><metadata
     id="metadata63"><rdf:RDF><cc:Work
         rdf:about=""><dc:format>image/svg+xml</dc:format><dc:type
           rdf:resource="http://purl.org/dc/dcmitype/StillImage" /></cc:Work></rdf:RDF></metadata><defs
     id="defs61" /><sodipodi:namedview
     pagecolor="#ffffff"
     bordercolor="#666666"
     borderopacity="1"
     objecttolerance="10"
     gridtolerance="10"
     guidetolerance="10"
     inkscape:pageopacity="0"
     inkscape:pageshadow="2"
     inkscape:window-width="1098"
     inkscape:window-height="480"
     id="namedview59"
     showgrid="false"
     inkscape:zoom="1.8472788"
     inkscape:cx="115.27127"
     inkscape:cy="67.890778"
     inkscape:window-x="77"
     inkscape:window-y="34"
     inkscape:window-maximized="0"
     inkscape:current-layer="Layer_1" /><linearGradient
     id="SVGID_1_"
     gradientUnits="userSpaceOnUse"
     x1="311.3999"
     y1="235"
     x2="311.3999"
     y2="265.00049"
     gradientTransform="matrix(1.0666667,0,0,1.0666667,-316.16,-250.66667)"><stop
       offset="0.0498"
       style="stop-color:#DD592A"
       id="stop4" /><stop
       offset="0.861"
       style="stop-color:#DF6433"
       id="stop6" /><stop
       offset="1"
       style="stop-color:#E27747"
       id="stop8" /></linearGradient><path
     d="m 32,26.666662 c 0,2.946133 -2.3872,5.333333 -5.333333,5.333333 H 5.3333333 C 2.3872,31.999995 0,29.612795 0,26.666662 V 5.3333284 C 0,2.3882617 2.3872,-5e-6 5.3333333,-5e-6 H 26.666667 C 29.6128,-5e-6 32,2.3882617 32,5.3333284 V 26.666662 z"
     id="path10"
     style="fill:url(#SVGID_1_)"
     inkscape:connector-curvature="0" /><path
     d="M 26.666667,30.399995 H 5.3333333 C 3.2746667,30.399995 1.6,28.725328 1.6,26.666662 V 5.3333284 C 1.6,3.2746618 3.2746667,1.5999951 5.3333333,1.5999951 H 26.666667 c 2.058666,0 3.733333,1.6746667 3.733333,3.7333333 V 26.666662 c 0,2.058666 -1.674667,3.733333 -3.733333,3.733333 z M 5.3333333,2.6666618 c -1.4698666,0 -2.6666666,1.1968 -2.6666666,2.6666666 V 26.666662 c 0,1.470933 1.1968,2.666666 2.6666666,2.666666 H 26.666667 c 1.470933,0 2.666666,-1.195733 2.666666,-2.666666 V 5.3333284 c 0,-1.4698666 -1.195733,-2.6666666 -2.666666,-2.6666666 H 5.3333333 z"
     id="path12"
     inkscape:connector-curvature="0"
     style="opacity:0.5;fill:#ffffff" /><g
     id="g14"
     transform="matrix(1.0666667,0,0,1.0666667,-316.16,-250.66667)"><g
       id="g16"><path
         d="m 302.441,245.688 v 8.279 c 0,0.263 0.057,0.685 0.127,0.938 0,0 1.109,4.039 4.592,4.096 3.483,0.057 8.729,0.142 8.729,0.142 0.262,0.004 0.68,-0.065 0.926,-0.155 0,0 3.377,-1.223 3.545,-3.975 v -5.083 c 0,-0.264 0,-0.68 0,-0.926 0,-0.246 0,-0.662 0,-0.926 0,0 0,-0.424 -0.674,-0.424 h -1.264 c -0.262,0 -0.684,0.061 -0.936,0.135 0,0 -0.004,0 -0.139,-1.584 -0.133,-1.584 -1.201,-5.011 -4.795,-5.348 h -4.328 c -0.264,0 -0.693,0.012 -0.955,0.027 10e-4,0.001 -4.378,0.255 -4.828,4.804 z"
         id="path18"
         inkscape:connector-curvature="0"
         style="fill:#ffffff" /></g><defs
       id="defs20"><filter
         id="Adobe_OpacityMaskFilter"
         filterUnits="userSpaceOnUse"
         x="302.44101"
         y="240.85699"
         width="17.917999"
         height="18.285"
         color-interpolation-filters="sRGB"><feColorMatrix
           type="matrix"
           values="-1 0 0 0 1  0 -1 0 0 1  0 0 -1 0 1  0 0 0 1 0"
           color-interpolation-filters="sRGB"
           result="source"
           id="feColorMatrix23" /></filter></defs><mask
       maskUnits="userSpaceOnUse"
       x="302.441"
       y="240.857"
       width="17.918"
       height="18.285"
       id="SVGID_2_"><g
         id="g26"
         style="filter:url(#Adobe_OpacityMaskFilter)"><image
           sodipodi:absref="/home/pablo/Escritorio/iconos flacso/8905556D25F15AE.jpg"
           xlink:href="8905556D25F15AE.jpg"
           style="overflow:visible"
           id="image28"
           transform="matrix(0.0404,0,0,0.0404,302.1045,240.5205)"
           height="469"
           width="460"
           overflow="visible" /></g></mask><g
       mask="url(#SVGID_2_)"
       id="g30"
       style="opacity:0.41000001"><path
         d="m 302.441,245.688 v 8.279 c 0,0.263 0.057,0.685 0.127,0.938 0,0 1.109,4.039 4.592,4.096 3.483,0.057 8.729,0.142 8.729,0.142 0.262,0.004 0.68,-0.065 0.926,-0.155 0,0 3.377,-1.223 3.545,-3.975 v -5.083 c 0,-0.264 0,-0.68 0,-0.926 0,-0.246 0,-0.662 0,-0.926 0,0 0,-0.424 -0.674,-0.424 h -1.264 c -0.262,0 -0.684,0.061 -0.936,0.135 0,0 -0.004,0 -0.139,-1.584 -0.133,-1.584 -1.201,-5.011 -4.795,-5.348 h -4.328 c -0.264,0 -0.693,0.012 -0.955,0.027 10e-4,0.001 -4.378,0.255 -4.828,4.804 z"
         id="path32"
         inkscape:connector-curvature="0"
         style="fill:#ffffff" /></g><g
       id="g34"><path
         d="m 312.65,246.848 c 0,0.525 -0.43,0.957 -0.955,0.957 h -3.398 c -0.524,0 -0.955,-0.432 -0.955,-0.957 v -0.346 c 0,-0.525 0.431,-0.955 0.955,-0.955 h 3.398 c 0.525,0 0.955,0.43 0.955,0.955 v 0.346 z"
         id="path36"
         inkscape:connector-curvature="0"
         style="fill:#dd592a" /></g><g
       id="g38"><linearGradient
         id="SVGID_3_"
         gradientUnits="userSpaceOnUse"
         x1="311.3999"
         y1="252.2041"
         x2="311.3999"
         y2="254.46001"><stop
           offset="0.0498"
           style="stop-color:#DD592A"
           id="stop41" /><stop
           offset="0.861"
           style="stop-color:#DF6433"
           id="stop43" /><stop
           offset="1"
           style="stop-color:#E27747"
           id="stop45" /></linearGradient><path
         d="m 315.459,253.505 c 0,0.525 -0.43,0.955 -0.955,0.955 h -6.207 c -0.524,0 -0.955,-0.43 -0.955,-0.955 v -0.346 c 0,-0.525 0.431,-0.955 0.955,-0.955 h 6.207 c 0.525,0 0.955,0.43 0.955,0.955 v 0.346 z"
         id="path47"
         style="fill:url(#SVGID_3_)"
         inkscape:connector-curvature="0" /></g></g><g
     id="g49"
     transform="matrix(1.0666667,0,0,1.0666667,-316.16,-250.66667)"><defs
       id="defs51"><path
         id="SVGID_4_"
         d="m 326.4,260 c 0,2.762 -2.238,5 -5,5 h -20 c -2.762,0 -5,-2.238 -5,-5 v -20 c 0,-2.761 2.238,-5 5,-5 h 20 c 2.762,0 5,2.239 5,5 v 20 z"
         inkscape:connector-curvature="0" /></defs><clipPath
       id="SVGID_5_"><use
         xlink:href="#SVGID_4_"
         overflow="visible"
         id="use55"
         style="overflow:visible"
         x="0"
         y="0"
         width="623.62"
         height="481.89001" /></clipPath><ellipse
       clip-path="url(#SVGID_5_)"
       cx="311.35199"
       cy="232.002"
       rx="27.35"
       ry="15.3"
       id="ellipse57"
       sodipodi:cx="311.35199"
       sodipodi:cy="232.002"
       sodipodi:rx="27.35"
       sodipodi:ry="15.3"
       style="opacity:0.3;fill:#ffffff"
       d="m 338.70199,232.002 c 0,8.44996 -12.24501,15.3 -27.35,15.3 -15.10499,0 -27.35,-6.85004 -27.35,-15.3 0,-8.44996 12.24501,-15.3 27.35,-15.3 15.10499,0 27.35,6.85004 27.35,15.3 z" /></g></svg>