<?xml version="1.0" encoding="utf-8"?>
<!-- Generator: Adobe Illustrator 23.0.6, SVG Export Plug-In . SVG Version: 6.00 Build 0)  -->
<svg version="1.1" id="Capa_1" xmlns="http://www.w3.org/2000/svg" xmlns:xlink="http://www.w3.org/1999/xlink" x="0px" y="0px"
	 viewBox="0 0 100 100" style="enable-background:new 0 0 100 100;" xml:space="preserve">
<style type="text/css">
	.st0{fill:#75B443;}
</style>
<g>
	<g>
		<path class="st0" d="M43.2,38.2c6,0,12,0,18,0c5,0,10,0,15,0c4.4,0,8.4,1.2,12,3.5c2,1.3,3.7,3,5.1,4.9c1.8,2.4,3,5.1,3.7,8
			c0.6,2.6,0.7,5.2,0.2,7.8c-0.5,2.9-1.6,5.6-3.2,8.1c-1.2,1.9-2.8,3.4-4.6,4.8c-2.2,1.8-4.7,2.8-7.4,3.6c-1.8,0.5-3.6,0.7-5.5,0.7
			c-0.8,0-1.5,0-2.3,0c-0.4,0-0.5,0.1-0.6,0.5c-0.1,1.3-0.2,2.6-0.5,3.9c-0.7,2.9-2.1,5.5-4.1,7.7c-2.5,2.7-5.5,4.5-9,5.3
			c-1.4,0.3-2.8,0.4-4.3,0.5c-11.7,0-23.3,0-35,0c-3.5,0-6.8-0.8-9.8-2.6c-2.2-1.4-4.1-3.2-5.5-5.4c-2.1-3.2-2.9-6.6-2.9-10.4
			c0-11.5,0-23.1,0-34.6c0-2,0.7-3.8,2.3-5c0.8-0.6,1.7-1.1,2.8-1.1c4.1-0.1,8.2-0.1,12.3-0.1C27.6,38.1,35.4,38.1,43.2,38.2
			C43.2,38.1,43.2,38.1,43.2,38.2z M73.7,67.8c1.3,0,2.6,0.1,3.8,0c2.1-0.2,3.9-1,5.4-2.5c1.3-1.3,2.1-2.8,2.4-4.7
			c0.7-3.6-1-7.5-4.1-9.4c-1.2-0.7-2.6-1.1-4-1.2c-1.2-0.1-2.4,0-3.6,0C73.7,56,73.7,61.9,73.7,67.8z"/>
		<path class="st0" d="M30.6,32.2c-0.5,0-0.9,0-1.4,0c-1.5,0.1-2.8-1-3.1-2.5c-0.2-0.9-0.4-1.8-0.7-2.6c-0.7-2.1-1.9-3.9-3.4-5.5
			c-2.7-2.9-4.9-6.1-6.2-9.9c-0.6-1.8-1.1-3.7-1.4-5.7c-0.3-1.8,1-3.4,2.9-3.5c1.1-0.1,2.3,0,3.4,0c1.6,0.1,2.5,1.3,2.7,2.6
			c0.5,3.3,1.8,6.2,3.9,8.8c0.8,1,1.8,1.9,2.7,3c1.8,2.2,3.1,4.6,4,7.3c0.4,1.4,0.7,2.8,1,4.2c0.5,2.2-1.5,3.8-3.1,3.7
			C31.5,32.2,31.1,32.2,30.6,32.2C30.6,32.2,30.6,32.2,30.6,32.2z"/>
		<path class="st0" d="M51.4,32.2c-0.4,0-0.9,0-1.3,0c-1.7,0.1-3-1-3.3-2.7c-0.3-2-1-3.8-2.2-5.5c-0.9-1.2-1.8-2.4-2.8-3.5
			c-1.5-1.7-2.7-3.4-3.8-5.4c-1.2-2.2-2-4.5-2.5-7c-0.2-0.8-0.3-1.6-0.3-2.4c-0.1-1.8,1.1-3.1,3-3.2c1.1-0.1,2.3,0,3.4,0.1
			c1.3,0.1,2.2,1,2.5,2.2c0.3,1.3,0.6,2.7,1,4c0.7,2,1.7,3.9,3.2,5.4c2,2.1,3.9,4.4,5.2,7.1c1.2,2.5,2.1,5.1,2.3,8
			c0.1,1.3-1.6,3-2.8,2.9C52.5,32.2,52,32.2,51.4,32.2C51.4,32.2,51.4,32.2,51.4,32.2z"/>
	</g>
</g>
</svg>
