<?xml version="1.0" encoding="utf-8"?>
<!-- Generator: Adobe Illustrator 23.0.6, SVG Export Plug-In . SVG Version: 6.00 Build 0)  -->
<svg version="1.1" id="Capa_1" xmlns="http://www.w3.org/2000/svg" xmlns:xlink="http://www.w3.org/1999/xlink" x="0px" y="0px"
	 viewBox="0 0 100 100" style="enable-background:new 0 0 100 100;" xml:space="preserve">
<style type="text/css">
	.st0{fill:#DC522A;}
</style>
<g>
	<g>
		<path class="st0" d="M69.8,19.1c9.3,0,12.5,0,21.7,0c2.9,0,4.9,1.5,5.7,4.3c0.1,0.4,0.2,0.9,0.2,1.4c0,10.9,0,21.9,0,32.8
			c0,0.8,0,1.6-0.2,2.4c-0.6,2.3-2.6,3.9-5,4c-3.2,0.1-6.4,0-9.7,0c-7.9,0-9.7,0-17.6,0c-0.6,0-0.6,0-0.6-0.6c0-5,0-10,0-15.1
			c0-2.3,0-4.6,0-7c0-2.9-1-5.3-2.9-7.4c-1.9-2.1-4.3-3.3-7.1-3.6c-0.7-0.1-1.3,0-2,0c-5.2,0-10.4,0-15.5,0c-0.4,0-0.5-0.1-0.5-0.5
			c0-1.6,0-3.2,0-4.8c0-2,0.7-3.7,2.4-4.9c1-0.7,2.2-1.1,3.5-1.1c5,0,10,0,15,0C61.4,19.1,65.6,19.1,69.8,19.1z M75.1,30.3
			c0,0.1,0,0.2,0,0.2c0,3.6,0,7.1,0,10.7c0,0.3,0.2,0.4,0.4,0.4c3.5,0,7,0,10.4,0c0.3,0,0.4-0.1,0.4-0.4c0-3.5,0-6.9,0-10.4
			c0-0.4-0.1-0.5-0.5-0.5c-2,0-4.1,0-6.1,0C78.2,30.3,76.7,30.3,75.1,30.3z"/>
		<path class="st0" d="M30.6,36c7.4,0,14.7,0,22.1,0c2.5,0,4.4,1,5.5,3.2c0.4,0.8,0.5,1.7,0.5,2.6c0,0.9,0,1.8,0,2.8
			c0,0.2-0.2,0.5-0.4,0.7c-1.4,1.1-2.7,2.2-4.1,3.3c-2.1,1.6-4.1,3.2-6.2,4.7c-3.1,2.3-6.2,4.6-9.3,6.8c-1.8,1.2-3.6,2.3-5.5,3.4
			c-1.6,0.9-3.3,0.9-4.9-0.1c-1.5-0.9-2.9-1.9-4.3-2.9c-2.3-1.7-4.6-3.4-6.9-5.1c-3.4-2.5-6.8-5.1-10.1-7.6c-1.3-1-2.7-2-4-3.1
			c-0.1-0.1-0.3-0.3-0.3-0.5c0-0.8,0-1.6,0-2.4c0-2.4,1.1-4.2,3.3-5.3C6.6,36.1,7.5,36,8.3,36C15.8,36,23.2,36,30.6,36z"/>
		<path class="st0" d="M58.7,51.7c0,0.4,0,0.7,0,1.1c0,7.2,0,14.5,0,21.7c0,0.8-0.1,1.7-0.3,2.5c-0.6,2.1-2.7,3.8-5,3.8
			c-2.8,0.1-5.6,0-8.4,0c-12.2,0-24.4,0-36.7,0c-1.9,0-3.5-0.7-4.7-2.2c-0.8-1-1.2-2.3-1.2-3.6c0-4.2,0-8.4,0-12.6
			c0-3.5,0-6.9,0-10.4c0-0.1,0-0.2,0-0.3c0.6,0.5,1.2,0.9,1.8,1.3c3.6,2.6,7.1,5.3,10.7,7.9c2.4,1.7,4.7,3.4,7.1,5.2
			c2,1.5,4.2,2.7,6.7,3.3c1.4,0.3,2.9,0.2,4.4-0.2c2.1-0.6,3.9-1.7,5.7-3c2.9-2.1,5.8-4.2,8.8-6.3c1.9-1.4,3.8-2.8,5.7-4.2
			C55.1,54.5,56.8,53.2,58.7,51.7z"/>
	</g>
</g>
</svg>
