<?xml version="1.0" encoding="utf-8"?>
<!-- Generator: Adobe Illustrator 23.0.6, SVG Export Plug-In . SVG Version: 6.00 Build 0)  -->
<svg version="1.1" id="Capa_1" xmlns="http://www.w3.org/2000/svg" xmlns:xlink="http://www.w3.org/1999/xlink" x="0px" y="0px"
	 viewBox="0 0 100 100" style="enable-background:new 0 0 100 100;" xml:space="preserve">
<style type="text/css">
	.st0{fill:#EC1858;}
</style>
<g>
	<g>
		<path class="st0" d="M8.5,50c0-9.2,0-18.5,0-27.7c0-4.4,0-8.9,0-13.3c0-0.6-0.1-1.2,0.1-1.8c0.2-0.8,0.6-1.5,1-2.2
			c0.5-0.9,1.3-1.4,2.2-1.9c0.9-0.5,1.9-0.5,2.9-0.5c7.3,0,14.6,0,21.8,0c16.3,0,32.6,0,48.9,0c1.5,0,2.9,0.4,4.1,1.4
			c0.9,0.7,1.4,1.7,1.8,2.7c0.2,0.6,0.3,1.2,0.3,1.8c0,3.7,0,7.4,0,11.1c0,4.1,0,8.3,0,12.4c0,3.9,0,7.8,0,11.7c0,4.1,0,8.1,0,12.2
			c0,4,0,8,0,12c0,3.6,0,7.1,0,10.7c0,4.3,0,8.6,0,12.9c0,1.6-0.4,3-1.4,4.2c-0.6,0.8-1.5,1.3-2.4,1.7c-1,0.4-2,0.4-3,0.4
			c-8.2,0-16.4,0-24.7,0c-10.8,0-21.7,0-32.5,0c-4.4,0-8.8,0-13.3,0c-1.8,0-3.2-0.7-4.4-1.9c-0.7-0.7-1.1-1.7-1.4-2.7
			c-0.1-0.4-0.1-0.9-0.1-1.4c0-13.6,0-27.1,0-40.7C8.5,50.5,8.5,50.3,8.5,50C8.5,50,8.5,50,8.5,50z M82.8,50c0-12.6,0-25.2,0-37.8
			c0-0.9,0-0.9-0.9-0.9c-7,0-14,0-20.9,0c-14.4,0-28.7,0-43.1,0c-0.8,0-0.8,0-0.8,0.7c0,10.9,0,21.8,0,32.7c0,11.3,0,22.6,0,34
			c0,3.3,0,6.5,0,9.8c0,0.2,0,0.4,0.3,0.4c3,0,6.1,0,9.1,0c15.8,0,31.6,0,47.3,0c2.8,0,5.7,0,8.5,0c0.3,0,0.4-0.1,0.4-0.4
			c0-1.1,0-2.2,0-3.3C82.8,73.4,82.8,61.7,82.8,50z"/>
		<path class="st0" d="M58.9,78.1c-3.5,0-7,0-10.5,0c-0.9,0-1.8,0-2.7,0c-1,0-1.5-0.5-1.5-1.6c0-1.9,0-3.7,0-5.6
			c0-1.1,0.5-1.6,1.6-1.6c1.3,0,2.6,0,3.9,0c7.4,0,14.8,0,22.3,0c0.6,0,1.3,0,1.6,0.8c0.1,0.2,0.1,0.4,0.1,0.6c0,2,0,3.9,0,5.9
			c0,0.9-0.6,1.5-1.6,1.5C67.7,78.2,63.3,78.2,58.9,78.1C58.9,78.2,58.9,78.2,58.9,78.1z"/>
		<path class="st0" d="M59,21.9c4.4,0,8.7,0,13.1,0c0.6,0,1.1,0.1,1.5,0.6c0.1,0.2,0.2,0.4,0.2,0.6c0,2.1,0,4.1,0,6.2
			c0,0.7-0.5,1.2-1.2,1.2c-1.7,0-3.3,0-5,0c-7.2,0-14.5,0-21.7,0c-1.1,0-1.5-0.5-1.5-1.6c0-1.9,0-3.7,0-5.6c0-0.6,0.1-1,0.6-1.3
			c0.1-0.1,0.3-0.2,0.5-0.2c1.5,0,3,0,4.4,0C52.8,21.9,55.9,21.9,59,21.9z"/>
		<path class="st0" d="M44.7,54.3c0.5-0.5,0.9-1,1.4-1.4c1.8-1.8,3.6-3.5,5.3-5.4c0.4-0.5,0.7-1.1,1-1.7c0.1-0.1,0.2-0.2,0.3-0.2
			c6.4,0,12.9,0,19.3,0c0.7,0,1.2,0.1,1.5,0.8c0.1,0.2,0.1,0.5,0.1,0.7c0,1.9,0,3.8,0,5.7c0,1.2-0.7,1.6-1.6,1.6c-1.4,0-2.9,0-4.3,0
			c-5.3,0-10.6,0-15.9,0c-2.3,0-4.6,0-6.9,0C44.8,54.3,44.8,54.3,44.7,54.3z"/>
		<path class="st0" d="M32.1,20.4c1.1,0,2.2,0,3.2,0c1.4,0,2.6,1.2,2.6,2.7c0,2.1,0,4.2,0,6.3c0,1.5-1.3,2.7-2.8,2.7
			c-2.1,0-4.2,0-6.3,0c-1.3,0-2.5-1.1-2.6-2.4c-0.1-0.6,0-1.3,0-1.9c0-1.6-0.1-3.2,0.1-4.8c0.1-1.3,1.2-2.4,2.5-2.5
			c0.6,0,1.1,0,1.7,0C31.1,20.4,31.6,20.4,32.1,20.4C32.1,20.4,32.1,20.4,32.1,20.4z"/>
		<path class="st0" d="M32.2,68c1.1,0,2.2,0,3.3,0c1.3,0,2.5,1.2,2.5,2.6c0,2.2,0,4.3,0,6.5c0,1.1-0.9,2.2-2,2.5
			c-0.5,0.1-1,0.2-1.5,0.2c-1.7,0-3.4,0-5.1,0c-1.7,0-3-1.3-3-3c0-2.1-0.1-4.2,0.1-6.3c0.1-1.3,1.2-2.4,2.5-2.4
			C30,68,31.1,68,32.2,68C32.2,68,32.2,68,32.2,68z"/>
		<path class="st0" d="M29.6,44.6c0.3,0.2,0.6,0.3,0.8,0.5c1.1,1.1,2.3,2.3,3.4,3.5c0.3,0.3,0.4,0.3,0.7,0c2.4-2.4,4.9-4.9,7.3-7.3
			c0.3-0.3,0.7-0.7,1-1c0.6-0.5,1.2-0.5,1.7,0c0.7,0.7,1.3,1.3,1.9,2c0.6,0.6,0.6,1.1,0,1.7c-2.6,2.5-5.1,5.1-7.7,7.6
			c-1.2,1.2-2.4,2.3-3.5,3.5c-0.1,0.1-0.2,0.2-0.4,0.4c-0.6,0.5-1.1,0.5-1.6,0c-1.6-1.6-3.1-3.2-4.7-4.8c-0.6-0.6-1.2-1.2-1.8-1.8
			c-0.5-0.6-0.5-1.1,0-1.6c0.7-0.7,1.3-1.4,2-2C29,44.9,29.3,44.8,29.6,44.6z"/>
	</g>
</g>
</svg>
