<?xml version="1.0" encoding="utf-8"?>
<!-- Generator: Adobe Illustrator 23.0.6, SVG Export Plug-In . SVG Version: 6.00 Build 0)  -->
<svg version="1.1" id="Capa_1" xmlns="http://www.w3.org/2000/svg" xmlns:xlink="http://www.w3.org/1999/xlink" x="0px" y="0px"
	 viewBox="0 0 100 100" style="enable-background:new 0 0 100 100;" xml:space="preserve">
<style type="text/css">
	.st0{fill:#DC522A;}
</style>
<g>
	<g>
		<path class="st0" d="M92.7,44.1c-2.8-2.3-5.9-3.6-9.4-3.6c0-6.4,0-12.7,0-19c-22.2,0-44.3,0-66.6,0c0,6.3,0,12.6,0,19
			c-3.6,0.1-6.7,1.3-9.4,3.6c0-0.3-0.1-0.6-0.1-0.8c0-7.9,0-15.9,0-23.8c0-4.4,3-7.5,7.4-7.5c7,0,14.1,0,21.1,0c7.9,0,15.9,0,23.8,0
			c8.6,0,17.2,0.1,25.8,0c4.2,0,6.8,3.1,7.3,5.9c0.1,0.4,0.1,0.9,0.1,1.3c0,8.1,0,16.2,0,24.3C92.7,43.6,92.7,43.8,92.7,44.1z"/>
		<path class="st0" d="M49.9,88c-3.2,0-6.4,0-9.6,0c-2.3,0-4.4-1.8-4.5-4.1c-0.1-2.4-0.1-4.8,0.1-7.1c0.5-4.3,4.6-7.7,8.9-7.8
			c3.4,0,6.7,0,10.1,0c5.1,0,9.3,4.3,9.3,9.4c0,1.6,0,3.2,0,4.8c0,2.7-2.3,4.8-4.8,4.8C56.3,88,53.1,88,49.9,88
			C49.9,88,49.9,88,49.9,88z"/>
		<path class="st0" d="M83.3,88c-3.2,0-6.4,0-9.6,0c-2.4,0-4.4-1.9-4.5-4.3c-0.1-2.6-0.4-5.3,0.3-7.9c1.2-4,4.8-6.7,9-6.7
			c3.1,0,6.1,0.1,9.2,0c5.4-0.2,10,4.3,9.9,9.4c0,1.8,0,3.6-0.1,5.5c-0.1,2.1-2.2,4-4.3,4.1C89.9,88,86.6,88,83.3,88
			C83.3,88,83.3,88,83.3,88z"/>
		<path class="st0" d="M16.7,88c-3.1,0-6.1-0.1-9.2,0c-2.5,0.1-5.1-2-5-4.6c0.1-2.4-0.1-4.8,0.3-7.2c0.7-4,4.7-7.2,8.8-7.2
			c3.2,0,6.4,0.1,9.6,0c5.3-0.2,9.9,4.1,9.8,9.7c0,1.7,0,3.5-0.1,5.2c-0.1,2.1-2.2,4-4.3,4.1C23.3,88,20,88,16.7,88
			C16.7,88,16.7,88,16.7,88z"/>
		<path class="st0" d="M16.7,64.3c-5.1,0.1-9.4-4.2-9.5-9.3c-0.1-5.5,4.2-9.6,9.2-9.7c5.4-0.1,9.7,4.1,9.7,9.3
			C26.2,59.9,22.1,64.2,16.7,64.3z"/>
		<path class="st0" d="M50,64.3c-5.2-0.1-9.4-3.9-9.5-9.5c-0.1-5.1,4.3-9.5,9.4-9.5c5.1,0,9.5,3.8,9.7,9.5
			C59.6,59.9,55.2,64.2,50,64.3z"/>
		<path class="st0" d="M92.7,54.8c0,5.3-4.2,9.5-9.4,9.5c-5.2,0-9.5-4.3-9.5-9.6c0-5.2,4.2-9.4,9.4-9.5
			C88.4,45.2,92.9,49.5,92.7,54.8z"/>
	</g>
</g>
</svg>
