<?xml version="1.0" encoding="UTF-8" standalone="no"?>
<!-- Generator: Adobe Illustrator 16.0.0, SVG Export Plug-In . SVG Version: 6.00 Build 0)  -->

<svg
   xmlns:dc="http://purl.org/dc/elements/1.1/"
   xmlns:cc="http://creativecommons.org/ns#"
   xmlns:rdf="http://www.w3.org/1999/02/22-rdf-syntax-ns#"
   xmlns:svg="http://www.w3.org/2000/svg"
   xmlns="http://www.w3.org/2000/svg"
   xmlns:xlink="http://www.w3.org/1999/xlink"
   xmlns:sodipodi="http://sodipodi.sourceforge.net/DTD/sodipodi-0.dtd"
   xmlns:inkscape="http://www.inkscape.org/namespaces/inkscape"
   version="1.1"
   id="Layer_1"
   x="0px"
   y="0px"
   width="32"
   height="32"
   viewBox="0 0 32 31.999999"
   enable-background="new 0 0 623.62 481.89"
   xml:space="preserve"
   inkscape:version="0.48.4 r9939"
   sodipodi:docname="fb_icon.svg"><metadata
     id="metadata33"><rdf:RDF><cc:Work
         rdf:about=""><dc:format>image/svg+xml</dc:format><dc:type
           rdf:resource="http://purl.org/dc/dcmitype/StillImage" /></cc:Work></rdf:RDF></metadata><defs
     id="defs31" /><sodipodi:namedview
     pagecolor="#ffffff"
     bordercolor="#666666"
     borderopacity="1"
     objecttolerance="10"
     gridtolerance="10"
     guidetolerance="10"
     inkscape:pageopacity="0"
     inkscape:pageshadow="2"
     inkscape:window-width="1299"
     inkscape:window-height="744"
     id="namedview29"
     showgrid="false"
     inkscape:zoom="7.3891152"
     inkscape:cx="-5.4264449"
     inkscape:cy="5.1815342"
     inkscape:window-x="67"
     inkscape:window-y="24"
     inkscape:window-maximized="1"
     inkscape:current-layer="Layer_1" /><linearGradient
     id="SVGID_1_"
     gradientUnits="userSpaceOnUse"
     x1="311.99951"
     y1="234"
     x2="311.99951"
     y2="266.00049"
     gradientTransform="matrix(1.0000313,0,0,1.0000313,-296.01025,-234.00831)"><stop
       offset="0.0797"
       style="stop-color:#2D5399"
       id="stop4" /><stop
       offset="0.5371"
       style="stop-color:#406093"
       id="stop6" /><stop
       offset="1"
       style="stop-color:#516B9C"
       id="stop8" /></linearGradient><path
     d="m 32,26.666825 c 0,2.9451 -2.388074,5.33317 -5.333166,5.33317 H 5.3331667 C 2.3870746,31.999995 0,29.611925 0,26.666825 V 5.3331654 C 0,2.3880654 2.3880746,-4.6484377e-6 5.3331667,-4.6484377e-6 H 26.666834 C 29.611926,-4.6484377e-6 32,2.3880654 32,5.3331654 V 26.666825 z"
     id="path10"
     style="fill:url(#SVGID_1_)"
     inkscape:connector-curvature="0" /><g
     id="g12"
     transform="matrix(1.0000313,0,0,1.0000313,-296.01025,-234.00831)"><defs
       id="defs14"><path
         id="SVGID_2_"
         d="m 328,260.667 c 0,2.945 -2.388,5.333 -5.333,5.333 h -21.333 c -2.946,0 -5.333,-2.388 -5.333,-5.333 v -21.333 c 0,-2.945 2.388,-5.333 5.333,-5.333 h 21.333 c 2.945,0 5.333,2.388 5.333,5.333 v 21.333 z"
         inkscape:connector-curvature="0" /></defs><clipPath
       id="SVGID_3_"><use
         xlink:href="#SVGID_2_"
         overflow="visible"
         id="use18"
         style="overflow:visible"
         x="0"
         y="0"
         width="623.62"
         height="481.89001" /></clipPath><ellipse
       clip-path="url(#SVGID_3_)"
       cx="311.948"
       cy="230.802"
       rx="29.174"
       ry="16.32"
       id="ellipse20"
       sodipodi:cx="311.948"
       sodipodi:cy="230.802"
       sodipodi:rx="29.174"
       sodipodi:ry="16.32"
       style="fill:#738aaf"
       d="m 341.122,230.802 c 0,9.01329 -13.06165,16.32 -29.174,16.32 -16.11236,0 -29.174,-7.30671 -29.174,-16.32 0,-9.01328 13.06164,-16.32 29.174,-16.32 16.11235,0 29.174,7.30672 29.174,16.32 z" /></g><path
     d="M 26.666834,30.399945 H 5.3331667 c -2.0590644,0 -3.7331167,-1.67605 -3.7331167,-3.73312 V 5.3331654 c 0,-2.05907 1.6750524,-3.73312 3.7331167,-3.73312 H 26.666834 c 2.058064,0 3.733116,1.67505 3.733116,3.73312 V 26.666825 c 0,2.05807 -1.675052,3.73312 -3.733116,3.73312 z M 5.3321667,2.6660754 c -1.471046,0 -2.6670834,1.19604 -2.6670834,2.66709 V 26.666825 c 0,1.47105 1.1960374,2.66609 2.6670834,2.66609 H 26.665834 c 1.471045,0 2.666083,-1.19504 2.666083,-2.66609 V 5.3331654 c 0,-1.47105 -1.195038,-2.66709 -2.666083,-2.66709 H 5.3321667 z"
     id="path22"
     inkscape:connector-curvature="0"
     style="opacity:0.5;fill:#ffffff" /><g
     id="g24"
     transform="matrix(1.0000313,0,0,1.0000313,-296.01025,-234.00831)"><path
       id="Facebook_1_"
       d="m 312.704,243.129 c 0,0.562 0,3.078 0,3.078 h -2.256 v 3.764 h 2.256 v 11.186 h 4.631 v -11.186 h 3.108 c 0,0 0.29,-1.804 0.433,-3.778 -0.404,0 -3.522,0 -3.522,0 0,0 0,-2.188 0,-2.572 0,-0.385 0.505,-0.903 1.003,-0.903 0.499,0 1.552,0 2.523,0 0,-0.512 0,-2.282 0,-3.917 -1.301,0 -2.779,0 -3.43,0 -4.863,-0.002 -4.746,3.765 -4.746,4.328 z"
       inkscape:connector-curvature="0"
       style="fill:#ffffff" /><path
       d="m 317.869,261.689 h -5.698 v -11.186 h -2.256 v -4.83 h 2.256 v -2.545 c -0.006,-1.478 0.417,-2.636 1.258,-3.48 0.915,-0.917 2.268,-1.383 4.021,-1.383 h 3.963 v 4.984 h -3.057 c -0.202,0 -0.453,0.262 -0.47,0.377 v 2.032 h 3.562 l -0.041,0.572 c -0.143,1.974 -0.426,3.75 -0.438,3.824 l -0.073,0.448 h -3.028 v 11.187 z m -4.632,-1.066 h 3.564 v -11.186 h 3.183 c 0.08,-0.56 0.216,-1.581 0.313,-2.712 h -3.479 v -3.105 c 0,-0.712 0.775,-1.437 1.537,-1.437 h 1.99 v -2.851 h -2.896 c -1.46,0 -2.559,0.36 -3.265,1.069 -0.634,0.636 -0.952,1.54 -0.948,2.687 v 3.651 h -2.256 v 2.697 h 2.256 v 11.187 z"
       id="path27"
       inkscape:connector-curvature="0"
       style="fill:#ffffff" /></g></svg>