<?xml version="1.0" encoding="UTF-8" standalone="no"?>
<!-- Created with Inkscape (http://www.inkscape.org/) -->

<svg
   xmlns:dc="http://purl.org/dc/elements/1.1/"
   xmlns:cc="http://creativecommons.org/ns#"
   xmlns:rdf="http://www.w3.org/1999/02/22-rdf-syntax-ns#"
   xmlns:svg="http://www.w3.org/2000/svg"
   xmlns="http://www.w3.org/2000/svg"
   xmlns:sodipodi="http://sodipodi.sourceforge.net/DTD/sodipodi-0.dtd"
   xmlns:inkscape="http://www.inkscape.org/namespaces/inkscape"
   width="32"
   height="32"
   id="svg6863"
   version="1.1"
   inkscape:version="0.48.4 r9939"
   sodipodi:docname="fb_icon_common.svg">
  <defs
     id="defs6865" />
  <sodipodi:namedview
     id="base"
     pagecolor="#ffffff"
     bordercolor="#666666"
     borderopacity="1.0"
     inkscape:pageopacity="0.0"
     inkscape:pageshadow="2"
     inkscape:zoom="0.35"
     inkscape:cx="350"
     inkscape:cy="17.925448"
     inkscape:document-units="px"
     inkscape:current-layer="layer1"
     showgrid="false"
     inkscape:window-width="1299"
     inkscape:window-height="744"
     inkscape:window-x="67"
     inkscape:window-y="24"
     inkscape:window-maximized="1" />
  <metadata
     id="metadata6868">
    <rdf:RDF>
      <cc:Work
         rdf:about="">
        <dc:format>image/svg+xml</dc:format>
        <dc:type
           rdf:resource="http://purl.org/dc/dcmitype/StillImage" />
        <dc:title />
      </cc:Work>
    </rdf:RDF>
  </metadata>
  <g
     inkscape:label="Capa 1"
     inkscape:groupmode="layer"
     id="layer1"
     transform="translate(0,-1020.3622)">
    <g
       id="g3126"
       transform="matrix(1.0666667,0,0,1.0666667,0,988.3622)">
      <circle
         d="M 30,45 C 30,53.284271 23.284271,60 15,60 6.7157288,60 0,53.284271 0,45 0,36.715729 6.7157288,30 15,30 c 8.284271,0 15,6.715729 15,15 z"
         cx="15"
         cy="45"
         r="15"
         id="circle3128"
         sodipodi:cx="15"
         sodipodi:cy="45"
         sodipodi:rx="15"
         sodipodi:ry="15"
         style="fill:#2d5399" />
      <path
         id="Facebook"
         d="m 12.513,38.707 c 0,0.516 0,2.822 0,2.822 h -2.068 v 3.451 h 2.068 V 55.236 H 16.76 V 44.98 h 2.852 c 0,0 0.266,-1.655 0.396,-3.465 -0.371,0 -3.23,0 -3.23,0 0,0 0,-2.008 0,-2.359 0,-0.353 0.463,-0.827 0.92,-0.827 0.457,0 1.422,0 2.314,0 0,-0.47 0,-2.094 0,-3.593 -1.193,0 -2.549,0 -3.146,0 -4.458,0 -4.353,3.454 -4.353,3.971 z"
         inkscape:connector-curvature="0"
         style="fill:#ffffff" />
    </g>
  </g>
</svg>
