<?xml version="1.0" encoding="UTF-8" standalone="no"?>
<!-- Generator: Adobe Illustrator 16.0.0, SVG Export Plug-In . SVG Version: 6.00 Build 0)  -->

<svg
   xmlns:dc="http://purl.org/dc/elements/1.1/"
   xmlns:cc="http://creativecommons.org/ns#"
   xmlns:rdf="http://www.w3.org/1999/02/22-rdf-syntax-ns#"
   xmlns:svg="http://www.w3.org/2000/svg"
   xmlns="http://www.w3.org/2000/svg"
   xmlns:sodipodi="http://sodipodi.sourceforge.net/DTD/sodipodi-0.dtd"
   xmlns:inkscape="http://www.inkscape.org/namespaces/inkscape"
   version="1.0"
   id="Layer_1"
   x="0px"
   y="0px"
   width="36px"
   height="36px"
   viewBox="0 0 36 36"
   enable-background="new 0 0 36 36"
   xml:space="preserve"
   inkscape:version="0.48.4 r9939"
   sodipodi:docname="foro.svg"><metadata
   id="metadata3023"><rdf:RDF><cc:Work
       rdf:about=""><dc:format>image/svg+xml</dc:format><dc:type
         rdf:resource="http://purl.org/dc/dcmitype/StillImage" /><dc:title></dc:title></cc:Work></rdf:RDF></metadata><defs
   id="defs3021" /><sodipodi:namedview
   pagecolor="#ffffff"
   bordercolor="#666666"
   borderopacity="1"
   objecttolerance="10"
   gridtolerance="10"
   guidetolerance="10"
   inkscape:pageopacity="0"
   inkscape:pageshadow="2"
   inkscape:window-width="1366"
   inkscape:window-height="705"
   id="namedview3019"
   showgrid="false"
   inkscape:zoom="6.5555556"
   inkscape:cx="18"
   inkscape:cy="18"
   inkscape:window-x="-8"
   inkscape:window-y="-8"
   inkscape:window-maximized="1"
   inkscape:current-layer="Layer_1" />
<circle
   fill="#22BBED"
   cx="18"
   cy="18"
   r="18"
   id="circle3006"
   style="fill:#dc5816;fill-opacity:1" />
<g
   id="rpzZve_2_">
	<g
   id="g3009">
		<path
   fill-rule="evenodd"
   clip-rule="evenodd"
   fill="#FFFFFF"
   d="M19.653,25.479c-2.51,1.772-5.33,2.322-8.346,2.02    c-0.333-0.034-0.563,0.018-0.81,0.27c-0.941,0.969-2.021,1.75-3.326,2.164c-0.21,0.068-0.428,0.124-0.646,0.136    c-0.502,0.032-0.766-0.404-0.524-0.849c0.265-0.486,0.566-0.955,0.787-1.456c0.163-0.367,0.222-0.782,0.336-1.172    c0.068-0.229-0.05-0.332-0.235-0.433c-1.339-0.736-2.496-1.687-3.248-3.036c-0.303-0.545-1.528-2.701-0.29-5.439    c0.792-1.752,2.172-2.964,3.883-3.74c4.249-1.929,8.411-1.768,12.37,0.816c1.497,0.979,2.516,2.366,2.953,4.137    C22.578,18.979,23.58,23.578,19.653,25.479z M8.021,28.2c0.647-0.39,1.245-0.855,1.748-1.426c0.399-0.455,0.869-0.595,1.454-0.514    c1.259,0.176,2.518,0.142,3.764-0.106c2.042-0.409,3.882-1.223,5.254-2.854c1.199-1.432,1.578-3.052,0.9-4.832    c-0.553-1.448-1.635-2.454-2.961-3.194c-2.396-1.339-4.97-1.648-7.643-1.162c-2.111,0.385-3.972,1.263-5.383,2.946    c-1.396,1.67-1.511,3.933-0.292,5.727c0.693,1.021,1.617,1.78,2.701,2.345c0.604,0.315,0.896,0.782,0.786,1.455    C8.262,27.117,8.136,27.64,8.021,28.2z"
   id="path3011" />
		<path
   fill-rule="evenodd"
   clip-rule="evenodd"
   fill="#FFFFFF"
   d="M12.25,15.799c0.191,0,0.338-0.037,0.454,0.008    c0.121,0.049,0.287,0.161,0.306,0.266c0.034,0.201-0.118,0.311-0.33,0.319c-0.331,0.014-0.663,0.024-0.993,0.062    c-1.44,0.168-2.787,0.592-3.939,1.507c-0.691,0.544-1.189,1.214-1.246,2.137c-0.013,0.2-0.113,0.348-0.333,0.32    c-0.219-0.025-0.267-0.194-0.256-0.394c0.059-0.979,0.544-1.738,1.257-2.362c1.225-1.072,2.694-1.574,4.279-1.787    C11.735,15.838,12.022,15.82,12.25,15.799z"
   id="path3013" />
	</g>
</g>
<path
   fill-rule="evenodd"
   clip-rule="evenodd"
   fill="#FFFFFF"
   d="M33.297,12.113c-0.791-1.752-2.172-2.965-3.881-3.74  c-4.251-1.928-8.413-1.769-12.37,0.816c-1.501,0.98-2.517,2.365-2.953,4.138c-0.006,0.017-0.056,0.251-0.092,0.626  c0.403,0.04,0.803,0.105,1.202,0.191c0.043-0.404,0.144-0.821,0.306-1.245c0.554-1.45,1.636-2.457,2.96-3.196  c2.399-1.339,4.973-1.648,7.645-1.162c2.111,0.384,3.972,1.264,5.382,2.949c1.398,1.667,1.514,3.929,0.292,5.725  c-0.692,1.021-1.614,1.779-2.701,2.344c-0.601,0.313-0.894,0.781-0.784,1.456c0.084,0.529,0.214,1.055,0.327,1.615  c-0.646-0.388-1.242-0.857-1.747-1.431c-0.4-0.453-0.869-0.593-1.454-0.508c-1.26,0.177-2.516,0.143-3.764-0.112  c-0.068-0.011-0.139-0.025-0.207-0.042c-0.033,0.41-0.125,0.812-0.278,1.201c1.337,0.28,2.728,0.333,4.165,0.189  c0.331-0.032,0.562,0.017,0.808,0.271c0.945,0.97,2.021,1.746,3.327,2.165c0.207,0.065,0.43,0.122,0.646,0.136  c0.503,0.03,0.767-0.408,0.522-0.852c-0.265-0.485-0.563-0.953-0.788-1.455c-0.16-0.367-0.22-0.782-0.334-1.172  c-0.07-0.233,0.05-0.329,0.232-0.432c1.343-0.738,2.497-1.688,3.251-3.04C33.308,17.005,34.533,14.852,33.297,12.113z"
   id="path3015" />
<path
   fill-rule="evenodd"
   clip-rule="evenodd"
   fill="#FFFFFF"
   d="M24.685,10.333c-0.189,0-0.338-0.034-0.453,0.01  c-0.123,0.048-0.288,0.161-0.306,0.267c-0.033,0.2,0.115,0.309,0.33,0.319c0.331,0.014,0.662,0.022,0.992,0.06  c1.439,0.169,2.786,0.592,3.938,1.507c0.693,0.549,1.19,1.215,1.249,2.137c0.009,0.201,0.108,0.348,0.33,0.322  c0.219-0.026,0.269-0.194,0.253-0.395c-0.054-0.98-0.542-1.74-1.255-2.363c-1.225-1.073-2.694-1.573-4.278-1.786  C25.199,10.374,24.912,10.355,24.685,10.333z"
   id="path3017" />
</svg>