<?xml version="1.0" encoding="utf-8"?>
<!-- Generator: Adobe Illustrator 23.0.6, SVG Export Plug-In . SVG Version: 6.00 Build 0)  -->
<svg version="1.1" id="Capa_1" xmlns="http://www.w3.org/2000/svg" xmlns:xlink="http://www.w3.org/1999/xlink" x="0px" y="0px"
	 viewBox="0 0 100 100" style="enable-background:new 0 0 100 100;" xml:space="preserve">
<style type="text/css">
	.st0{fill:#75B443;}
</style>
<g>
	<g>
		<g>
			<path class="st0" d="M37,65.8c-1.8-0.1-3.6-0.1-5.3-0.3c-2.1-0.2-4.2-0.7-6.3-1.3c-2.3-0.6-4.5-1.5-6.6-2.4
				c-0.1-0.1-0.4-0.1-0.5,0c-1.9,1.1-4,2-6.1,2.7c-1.6,0.5-3.3,0.9-5,1.1c-1,0.1-2.1,0.1-3.1,0.2c-0.6,0.1-1.1-0.2-1.3-0.8
				c-0.2-0.5-0.1-0.9,0.2-1.3c1.3-1.7,2.5-3.3,3.7-5c0.8-1.2,1.4-2.5,2.1-3.8c0.1-0.1,0-0.4-0.1-0.5c-1.8-2-3.3-4.3-4.3-6.8
				c-0.5-1.1-0.7-2.2-1.1-3.3c-0.7-2.6-0.8-5.2-0.4-7.8c0.4-3,1.5-5.8,3.1-8.4c1.2-1.9,2.6-3.6,4.2-5.2c1.1-1.1,2.4-2,3.7-2.9
				c2.2-1.6,4.6-2.9,7.1-3.9c1.7-0.7,3.5-1.2,5.3-1.7c1.4-0.4,2.9-0.7,4.3-0.9c2.2-0.2,4.4-0.4,6.6-0.4c1.8,0,3.5,0.2,5.3,0.4
				c1.6,0.2,3.2,0.4,4.8,0.8c1.7,0.4,3.4,1,5.1,1.6c2.3,0.8,4.4,1.9,6.4,3.2c1.3,0.8,2.5,1.8,3.7,2.8c2.4,2,4.4,4.4,6,7.1
				c0.9,1.5,1.5,3.1,2,4.7c0.7,2.4,1,4.8,0.8,7.3c-0.2,2.5-0.8,4.9-1.9,7.2c-1.4,3.1-3.5,5.8-6,8.1c-2.5,2.3-5.3,4.1-8.3,5.5
				c-1.5,0.7-3,1.3-4.6,1.8c-1.4,0.5-2.8,0.7-4.2,1.1c-0.7,0.2-1.3,0.3-2,0.4c-0.8,0.1-1.5,0.3-2.3,0.3C40.1,65.7,38.6,65.7,37,65.8
				z"/>
			<path class="st0" d="M31.7,70.9c1.6,0.1,3.1,0.3,4.7,0.2c2,0,4.1-0.2,6.1-0.4c1.4-0.1,2.7-0.3,4-0.6c1.6-0.4,3.3-0.8,4.9-1.3
				c2.6-0.7,5.1-1.8,7.5-3.1c2.3-1.2,4.4-2.7,6.4-4.3c2.1-1.8,4-3.7,5.7-5.9c1.8-2.5,3.4-5.2,4.2-8.2c0.5-1.5,0.9-3.1,1.1-4.7
				c0.3-1.9,0.4-3.9,0.1-5.8c0-0.2,0-0.5,0-0.9c1.2,0.5,2.3,0.9,3.4,1.3c2.4,1,4.7,2.2,6.7,3.7c2.2,1.6,4.3,3.4,6,5.6
				c1.1,1.4,2,2.8,2.8,4.3c1,1.9,1.7,3.9,2,6.1c0.3,2,0.4,4,0.1,6c-0.6,4.2-2.3,7.8-4.9,11.1c-0.3,0.4-0.6,0.8-1,1.1
				c-0.2,0.2-0.2,0.4-0.1,0.7c1.4,3,3.3,5.7,5.5,8.3c0.2,0.3,0.5,0.6,0.6,0.9c0.2,0.9-0.4,1.6-1.4,1.6c-1.4-0.1-2.9-0.1-4.3-0.4
				c-3.3-0.6-6.4-1.6-9.3-3.3c-0.6-0.4-1.1-0.4-1.8-0.1c-2.2,1.1-4.6,1.9-7,2.4c-1.5,0.3-3,0.8-4.6,0.9c-2.3,0.2-4.5,0.3-6.8,0.3
				c-1.6,0-3.2-0.1-4.7-0.3c-1.2-0.1-2.4-0.4-3.6-0.6c-2.7-0.5-5.2-1.4-7.7-2.5c-1.5-0.6-2.9-1.4-4.3-2.3c-1.4-0.9-2.7-1.9-4.1-2.9
				c-1.8-1.4-3.3-3.1-4.7-5c-0.5-0.7-0.9-1.4-1.4-2.1C31.7,71.1,31.7,71,31.7,70.9z"/>
		</g>
	</g>
</g>
</svg>
