<?xml version="1.0" encoding="utf-8"?>
<!-- Generator: Adobe Illustrator 22.0.1, SVG Export Plug-In . SVG Version: 6.00 Build 0)  -->
<svg version="1.1" id="Capa_1" xmlns="http://www.w3.org/2000/svg" xmlns:xlink="http://www.w3.org/1999/xlink" x="0px" y="0px"
	 viewBox="0 0 31 31" style="enable-background:new 0 0 31 31;" xml:space="preserve">
<style type="text/css">
	.st0{fill:#DB4961;}
	.st1{fill:#FFFFFF;}
</style>
<circle class="st0" cx="15.5" cy="15.5" r="14.8"/>
<g>
	<path class="st1" d="M15.5,7.4c2.6,0,3,0,4,0.1c1,0,1.5,0.2,1.8,0.3c0.5,0.2,0.8,0.4,1.1,0.7c0.3,0.3,0.6,0.7,0.7,1.1
		c0.1,0.3,0.3,0.9,0.3,1.8c0,1,0.1,1.4,0.1,4c0,2.6,0,3-0.1,4c0,1-0.2,1.5-0.3,1.8c-0.2,0.5-0.4,0.8-0.7,1.1
		c-0.3,0.3-0.7,0.6-1.1,0.7c-0.3,0.1-0.9,0.3-1.8,0.3c-1,0-1.4,0.1-4,0.1c-2.6,0-3,0-4-0.1c-1,0-1.5-0.2-1.8-0.3
		c-0.5-0.2-0.8-0.4-1.1-0.7c-0.3-0.3-0.6-0.7-0.7-1.1c-0.1-0.3-0.3-0.9-0.3-1.8c0-1-0.1-1.4-0.1-4c0-2.6,0-3,0.1-4
		c0-1,0.2-1.5,0.3-1.8c0.2-0.5,0.4-0.8,0.7-1.1c0.3-0.3,0.7-0.6,1.1-0.7c0.3-0.1,0.9-0.3,1.8-0.3C12.5,7.4,12.9,7.4,15.5,7.4
		 M15.5,5.6c-2.7,0-3,0-4.1,0.1c-1.1,0-1.8,0.2-2.4,0.5C8.3,6.4,7.8,6.7,7.2,7.2C6.7,7.8,6.4,8.3,6.1,9c-0.2,0.6-0.4,1.4-0.5,2.4
		c0,1.1-0.1,1.4-0.1,4.1c0,2.7,0,3,0.1,4.1c0,1.1,0.2,1.8,0.5,2.4c0.3,0.7,0.6,1.2,1.1,1.8c0.6,0.6,1.1,0.9,1.8,1.1
		c0.6,0.2,1.4,0.4,2.4,0.5c1.1,0,1.4,0.1,4.1,0.1c2.7,0,3,0,4.1-0.1c1.1,0,1.8-0.2,2.4-0.5c0.7-0.3,1.2-0.6,1.8-1.1
		c0.6-0.6,0.9-1.1,1.1-1.8c0.2-0.6,0.4-1.4,0.5-2.4c0-1.1,0.1-1.4,0.1-4.1c0-2.7,0-3-0.1-4.1c0-1.1-0.2-1.8-0.5-2.4
		c-0.3-0.7-0.6-1.2-1.1-1.8c-0.6-0.6-1.1-0.9-1.8-1.1c-0.6-0.2-1.4-0.4-2.4-0.5C18.5,5.6,18.2,5.6,15.5,5.6"/>
	<path class="st1" d="M15.5,10.4c-2.8,0-5.1,2.3-5.1,5.1c0,2.8,2.3,5.1,5.1,5.1c2.8,0,5.1-2.3,5.1-5.1
		C20.6,12.7,18.3,10.4,15.5,10.4 M15.5,18.8c-1.8,0-3.3-1.5-3.3-3.3c0-1.8,1.5-3.3,3.3-3.3c1.8,0,3.3,1.5,3.3,3.3
		C18.8,17.3,17.3,18.8,15.5,18.8"/>
	<path class="st1" d="M22,10.2c0,0.7-0.5,1.2-1.2,1.2c-0.7,0-1.2-0.5-1.2-1.2c0-0.7,0.5-1.2,1.2-1.2C21.5,9,22,9.5,22,10.2"/>
</g>
</svg>
