<?xml version="1.0" encoding="utf-8"?>
<!-- Generator: Adobe Illustrator 16.0.0, SVG Export Plug-In . SVG Version: 6.00 Build 0)  -->
<!DOCTYPE svg PUBLIC "-//W3C//DTD SVG 1.1//EN" "http://www.w3.org/Graphics/SVG/1.1/DTD/svg11.dtd">
<svg version="1.1" id="Layer_1" xmlns="http://www.w3.org/2000/svg" xmlns:xlink="http://www.w3.org/1999/xlink" x="0px" y="0px"
	 width="31px" height="31px" viewBox="0 0 31 31" enable-background="new 0 0 31 31" xml:space="preserve">
<g id="Layer_1_1_" display="none">
	<g display="inline">
		<circle fill="#8E8E8E" cx="15.5" cy="15.5" r="15"/>
	</g>
	<path display="inline" opacity="0.1" enable-background="new    " d="M30.506,17.244L18.146,9.041c0,0,0.271,6.849-2.418,10.621
		c-2.166,3.035-7.405,3.16-7.432,3.122l6.346,7.546c0.359,0.025,0.721,0.039,1.086,0.039C23.354,30.368,29.637,24.635,30.506,17.244
		z"/>
	<path display="inline" fill="#FFFFFF" d="M22.244,19.516c-1.408-0.459-2.84-0.847-4.264-1.263c-0.107-0.03-0.219-0.052-0.354-0.083
		c0.026-0.533,0.002-1.04,0.47-1.432c0.172-0.145,0.268-0.42,0.321-0.653c0.097-0.403-0.022-0.896,0.565-1.044
		c0.072-0.018,0.121-0.229,0.14-0.356c0.06-0.479,0.11-0.961,0.146-1.442c0.01-0.146-0.004-0.396-0.08-0.429
		c-0.521-0.229-0.321-0.665-0.265-0.991c0.371-2.069-0.762-3.137-2.502-3.37c-0.228-0.03-0.459-0.043-0.693-0.042
		c-0.235,0-0.467,0.012-0.693,0.042c-1.742,0.233-2.874,1.301-2.503,3.37c0.059,0.326,0.258,0.763-0.263,0.991
		c-0.077,0.033-0.091,0.283-0.081,0.429c0.034,0.481,0.085,0.963,0.146,1.442c0.016,0.127,0.066,0.339,0.139,0.356
		c0.589,0.147,0.469,0.641,0.565,1.044c0.056,0.233,0.15,0.511,0.322,0.653c0.467,0.392,0.442,0.896,0.47,1.432
		c-0.136,0.031-0.247,0.053-0.355,0.083c-1.423,0.416-2.855,0.804-4.263,1.263c-0.768,0.25-1.105,0.879-1.064,1.68
		c0.026,0.521,0.148,1.59,0.148,1.59H23.16c0,0,0.123-1.069,0.148-1.59C23.35,20.395,23.012,19.766,22.244,19.516z"/>
</g>
<g id="Entrar_Sitio" display="none">
	<circle display="inline" fill="#E09128" cx="15.5" cy="15.5" r="15"/>
	<g display="inline">
		<path fill="#FFFFFF" d="M20.814,12.386V9.868l1.766-1.24l-8.834-4.157L4.912,8.627l3.204,2.252v3.118c0,0,1.212,1.473,5.629,1.386
			c4.417-0.087,5.629-1.386,5.629-1.386v-3.118l1.071-0.753v2.259c-0.196,0.074-0.336,0.264-0.336,0.485
			c0,0.287,0.231,0.52,0.521,0.52s0.521-0.232,0.521-0.52C21.15,12.649,21.012,12.46,20.814,12.386z"/>
		<path fill="#FFFFFF" d="M10.622,19.363c0.871,0.232,1.733,0.494,2.6,0.74c1.562,0.444,3.125,0.883,4.682,1.34
			c0.441,0.129,0.769,0.021,1.062-0.318c1.595-1.85,3.195-3.691,4.796-5.536c0.852-0.981,1.711-1.956,2.551-2.946
			c0.19-0.226,0.315-0.506,0.472-0.762c0-0.042,0-0.084,0-0.126c-0.146-0.432-0.466-0.609-0.897-0.705
			c-1.445-0.316-2.888-0.638-4.33-0.961l-0.134,0.094v1.888c0.209,0.208,0.336,0.496,0.336,0.8c0,0.095-0.014,0.186-0.034,0.273
			c0.149,0.036,0.301,0.072,0.448,0.109c0.103,0.024,0.205,0.052,0.298,0.099c0.182,0.092,0.245,0.24,0.112,0.41
			c-0.199,0.256-0.397,0.517-0.631,0.739c-0.291,0.277-0.652,0.226-1.011,0.139c-0.362-0.09-0.726-0.178-1.088-0.267l-0.035,0.037
			c-0.144,0.152-1.519,1.489-6.062,1.578c-0.13,0.003-0.257,0.004-0.382,0.004c-1.117,0-2.03-0.099-2.774-0.248
			c-0.495,0.549-0.988,1.1-1.484,1.646c-0.592,0.651-0.924,1.407-1.095,2.256c-0.024,0.119-0.074,0.231-0.111,0.35
			c0,0.439,0,0.881,0,1.32c0.043,0.127,0.09,0.252,0.13,0.379c0.351,1.137,1.036,1.937,2.213,2.281
			c2.714,0.797,5.426,1.603,8.135,2.418c0.486,0.146,0.832,0.039,1.154-0.354c2.262-2.742,4.531-5.474,6.811-8.2
			c0.283-0.34,0.336-0.662,0.244-1.098c-0.082-0.383-0.035-0.807,0.027-1.2c0.062-0.412,0.021-0.697-0.27-0.896
			c-0.387-0.269-0.895-0.096-1.074,0.366c-0.229,0.571-0.244,1.161-0.186,1.765c0.016,0.145-0.025,0.334-0.115,0.443
			c-1.959,2.377-3.947,4.729-5.883,7.127c-0.41,0.51-0.746,0.561-1.33,0.377c-2.357-0.74-4.731-1.431-7.105-2.119
			c-0.652-0.19-1.056-0.621-1.211-1.24c-0.099-0.395-0.102-0.836-0.042-1.239C9.509,19.451,9.957,19.188,10.622,19.363z"/>
		<polygon fill="#FFFFFF" points="18.846,22.443 10.392,20.062 10.424,19.95 18.805,22.312 24.396,15.641 24.484,15.715 		"/>
		<polygon fill="#FFFFFF" points="18.846,23.016 10.392,20.633 10.424,20.521 18.805,22.883 24.396,16.212 24.484,16.286 		"/>
		<polygon fill="#FFFFFF" points="18.846,23.586 10.392,21.203 10.424,21.092 18.805,23.453 24.396,16.781 24.484,16.855 		"/>
		<polygon fill="#FFFFFF" points="18.846,24.156 10.392,21.773 10.424,21.662 18.805,24.023 24.396,17.354 24.484,17.428 		"/>
	</g>
	<path display="inline" opacity="0.1" enable-background="new    " d="M29.979,19.79l-3.627-1.95
		c-2.275,2.727-4.549,5.458-6.809,8.2c-0.324,0.396-0.668,0.502-1.156,0.354c-2.707-0.815-5.419-1.621-8.133-2.418
		c-0.37-0.108-0.691-0.264-0.97-0.457l5.292,6.805c0.38,0.029,0.765,0.044,1.153,0.044C22.451,30.368,28.131,25.91,29.979,19.79z"/>
</g>
<g id="Navegar" display="none">
	<circle display="inline" fill="#E09128" cx="15.5" cy="15.5" r="15"/>
	<g id="KNJoww_1_" display="inline">
		<g>
			<circle fill="#FFFFFF" cx="22.072" cy="15.66" r="0.908"/>
			<circle fill="#FFFFFF" cx="16.131" cy="15.621" r="0.908"/>
			<circle fill="#FFFFFF" cx="16.131" cy="21.726" r="0.908"/>
			<circle fill="#FFFFFF" cx="9.385" cy="15.66" r="0.908"/>
			<path fill="#FFFFFF" d="M17.211,14.729c0.455,0.551,0.426,1.369-0.09,1.884c-0.514,0.516-1.334,0.545-1.884,0.089l-0.53,0.53
				c0,0,4.24,2.244,6.346,3.357c0.033-0.035,0.068-0.072,0.102-0.107c-1.131-2.082-3.41-6.285-3.41-6.285L17.211,14.729z"/>
			<path fill="#FFFFFF" d="M15.048,16.514c-0.455-0.55-0.425-1.369,0.09-1.885c0.516-0.515,1.334-0.544,1.885-0.088l0.531-0.53
				c0,0-4.243-2.245-6.349-3.359c-0.034,0.036-0.068,0.073-0.102,0.109c1.13,2.081,3.413,6.283,3.413,6.283L15.048,16.514z"/>
			<g>
				<path fill="#FFFFFF" d="M14.626,11.195V8.339h0.561l1.168,1.907V8.339h0.537v2.856h-0.58l-1.151-1.862v1.862H14.626z"/>
			</g>
		</g>
		<path fill="#FFFFFF" d="M15.729,4.749c-5.93,0-10.738,4.808-10.738,10.738c0,5.93,4.808,10.738,10.738,10.738
			s10.738-4.809,10.738-10.738C26.467,9.556,21.658,4.749,15.729,4.749z M15.729,23.258c-4.285,0-7.771-3.486-7.771-7.771
			s3.486-7.771,7.771-7.771c4.285,0,7.771,3.486,7.771,7.771S20.014,23.258,15.729,23.258z"/>
	</g>
</g>
<g id="Mi_Perfil" display="none">
	<circle display="inline" fill="#EDC211" cx="15.5" cy="15.5" r="15"/>
	<path display="inline" fill="#FFFFFF" d="M19.506,12.348H19.35c-0.848,1.069-2.154,1.757-3.621,1.757
		c-1.466,0-2.774-0.688-3.621-1.757h-0.156l-2.51,12.511h12.574L19.506,12.348z"/>
	<circle display="inline" fill="#FFFFFF" cx="15.728" cy="9.487" r="3.372"/>
	<path display="inline" fill="#FFFFFF" d="M9.441,24.857"/>
	<path display="inline" opacity="0.1" enable-background="new    " d="M19.1,9.487c0,1.862-1.508,3.372-3.371,3.372
		c-0.656,0-1.267-0.188-1.785-0.511l1.695,1.754c0.029,0.001,0.061,0.003,0.09,0.003c1.466,0,2.773-0.688,3.621-1.757h0.156
		l2.51,12.511H9.551l4.181,5.375c0.653,0.088,1.319,0.135,1.996,0.135c8.219,0,14.883-6.663,14.883-14.882
		c0-0.132-0.002-0.263-0.006-0.394L18.809,8.115C18.996,8.534,19.1,8.998,19.1,9.487z"/>
</g>
<g id="Cursos" display="none">
	<circle display="inline" fill="#99B843" cx="15.5" cy="15.5" r="15"/>
	<path display="inline" opacity="0.1" enable-background="new    " d="M25.508,9.622l0.365,12.67h-7.967v0.731h-2.125h-0.105h-2.125
		v-0.731L5.57,21.529l6.598,8.318c1.07,0.291,1.931,0.465,3.009,0.51c0.033,0,0.065,0.002,0.099,0.004
		c0.043,0,0.086,0.002,0.129,0.002c0.108,0.003,0.215,0.005,0.325,0.005c8.219,0,14.883-6.663,14.883-14.882
		c0-1.123-0.125-2.217-0.361-3.269L25.508,9.622z"/>
	<path display="inline" fill="#FFFFFF" d="M24.834,9.506V8.562l-0.266-0.054c-0.111-0.023-2.75-0.56-5.369-0.56
		c-1.455,0-2.621,0.169-3.471,0.503c-0.85-0.334-2.016-0.503-3.471-0.503c-2.619,0-5.258,0.537-5.369,0.56L6.624,8.562V9.51
		c-0.789,0.085-1.403,0.753-1.403,1.562v9.636c0,0.812,0.618,1.482,1.41,1.564v0.017h6.875c0.254,0.582,0.834,0.987,1.51,0.987
		h1.239c0.677,0,1.259-0.405,1.513-0.987h0.142h6.92v-0.015c0.817-0.057,1.465-0.734,1.465-1.566v-9.636
		C26.291,10.245,25.648,9.566,24.834,9.506z M8.013,21.438c1.047-0.317,2.792-0.768,4.316-0.768c1.56,0,2.494,0.475,2.923,0.768
		H8.013z M15.344,20.709c-0.584-0.332-1.562-0.704-3.015-0.704c-1.93,0-4.116,0.654-5.042,0.964V9.108
		c0.737-0.135,2.889-0.495,4.97-0.495c1.293,0,2.327,0.138,3.086,0.407v11.689H15.344z M16.203,21.438
		c0.43-0.293,1.365-0.768,2.924-0.768c1.525,0,3.27,0.448,4.316,0.768H16.203z M24.17,20.969c-0.928-0.31-3.113-0.964-5.043-0.964
		c-1.451,0-2.43,0.372-3.014,0.704V9.02c0.758-0.27,1.793-0.407,3.086-0.407c2.082,0,4.232,0.36,4.971,0.495V20.969z"/>
</g>
<g id="Calendario" display="none">
	<circle display="inline" fill="#53AEA2" cx="15.5" cy="15.5" r="15"/>
	<g display="inline">
		<path fill="#FFFFFF" d="M12.472,9.938c0,0.611-0.495,1.106-1.106,1.106l0,0c-0.611,0-1.106-0.495-1.106-1.106V7.111
			c0-0.611,0.495-1.106,1.106-1.106l0,0c0.611,0,1.106,0.495,1.106,1.106V9.938z"/>
		<path fill="#FFFFFF" d="M21.197,9.938c0,0.611-0.496,1.106-1.105,1.106l0,0c-0.611,0-1.107-0.495-1.107-1.106V7.111
			c0-0.611,0.496-1.106,1.107-1.106l0,0c0.609,0,1.105,0.495,1.105,1.106V9.938z"/>
		<path fill="#FFFFFF" d="M22.941,8.553h-1.086v1.385c0,0.974-0.791,1.765-1.766,1.765s-1.766-0.792-1.766-1.765V8.553H13.13v1.385
			c0,0.974-0.792,1.765-1.765,1.765c-0.973,0-1.765-0.792-1.765-1.765V8.553H8.515c-0.91,0-1.648,0.738-1.648,1.648V23.32
			c0,0.91,0.738,1.648,1.648,1.648h14.426c0.91,0,1.647-0.738,1.647-1.648V10.201C24.59,9.291,23.852,8.553,22.941,8.553z
			 M23.102,23.546H8.355V12.731h14.747V23.546z"/>
		<path fill="#FFFFFF" d="M10.003,14.53v7.519h11.45V14.53H10.003z M12.643,21.262h-1.907v-1.459h1.907V21.262z M12.643,19.012
			h-1.907v-1.461h1.907V19.012z M12.643,16.775h-1.907v-1.459h1.907V16.775z M15.325,21.262h-1.907v-1.459h1.907V21.262z
			 M15.325,19.012h-1.907v-1.461h1.907V19.012z M15.325,16.775h-1.907v-1.459h1.907V16.775z M18.039,21.262h-1.906v-1.459h1.906
			V21.262z M18.039,19.012h-1.906v-1.461h1.906V19.012z M18.039,16.775h-1.906v-1.459h1.906V16.775z M20.721,21.262h-1.906v-1.459
			h1.906V21.262z M20.721,19.012h-1.906v-1.461h1.906V19.012z M20.721,16.775h-1.906v-1.459h1.906V16.775z"/>
	</g>
	<path display="inline" opacity="0.1" enable-background="new    " d="M23.666,8.663l-0.041,0.039
		c0.568,0.259,0.965,0.832,0.965,1.499V23.32c0,0.91-0.738,1.648-1.648,1.648H8.515c-0.636,0-1.188-0.361-1.462-0.892l-0.043,0.04
		l4.461,5.631c1.349,0.4,2.778,0.619,4.258,0.619c8.218,0,14.882-6.663,14.882-14.882c0-0.719-0.053-1.424-0.149-2.115L23.666,8.663
		z"/>
</g>
<g id="Novedades" display="none">
	<circle display="inline" fill="#8E51A0" cx="15.5" cy="15.5" r="15"/>
	<path display="inline" opacity="0.1" enable-background="new    " d="M22.355,6.156l-2.957,1.039
		c0.566,0.26-12.446,8.702-12.446,8.702l-0.321,5.582l4.84,8.271c1.349,0.4,2.778,0.619,4.258,0.619
		c8.218,0,14.882-6.663,14.882-14.882c0-0.719-0.053-1.424-0.149-2.115L22.355,6.156z"/>
	<g display="inline">
		<path fill="#FFFFFF" d="M18.533,21.473v2.014h-6.185V21.73h-1.632v1.433c0,0.894,0.724,1.616,1.617,1.616h6.216
			c0.893,0,1.617-0.725,1.617-1.616v-1.69H18.533z"/>
		<path fill="#FFFFFF" d="M22.902,19.869l-3.435-11.83c-0.084-0.282-0.104-0.568-0.069-0.843L7.335,15.107l1.825,5.999l14.139-0.485
			C23.121,20.4,22.984,20.148,22.902,19.869z"/>
		<path fill="#FFFFFF" d="M26.303,18.882c0.215,0.744-0.213,1.522-0.957,1.738l0,0c-0.744,0.216-1.521-0.212-1.738-0.956
			l-3.436-11.83c-0.215-0.744,0.213-1.522,0.957-1.738l0,0c0.744-0.216,1.521,0.212,1.738,0.956L26.303,18.882z"/>
		<path fill="#FFFFFF" d="M8.39,20.969c0.141,0.484-0.139,0.992-0.624,1.135l0,0c-0.486,0.142-0.994-0.14-1.135-0.625L5.193,16.41
			c-0.141-0.485,0.139-0.994,0.624-1.135l0,0c0.486-0.142,0.994,0.138,1.135,0.624L8.39,20.969z"/>
	</g>
</g>
<g id="Participantes" display="none">
	<circle display="inline" fill="#C12D82" cx="15.5" cy="15.5" r="15"/>
	<path display="inline" opacity="0.1" enable-background="new    " d="M30.611,15.486c0-0.263-0.008-0.522-0.021-0.781l-6.26-3.725
		l-1.871-0.315l-5.33-3.172c0.066,0.152-3.478,3.886-3.478,3.886l5.147,5.21l-6.091-3.877l-3.492-1.96
		c0.083,0.186-2.545,2.887-2.545,2.887l2.448,3.24c-2.447,2.729-4.506,4.991-4.506,4.991l6.397,7.735
		c1.482,0.494,3.069,0.764,4.718,0.764C23.947,30.368,30.611,23.705,30.611,15.486z"/>
	<g display="inline">
		<path fill="#FFFFFF" d="M18.719,11.967h-0.125c-0.67,0.847-1.705,1.391-2.865,1.391c-1.161,0-2.196-0.544-2.866-1.391h-0.124
			l-1.987,9.902h9.953L18.719,11.967z"/>
		<circle fill="#FFFFFF" cx="15.729" cy="9.703" r="2.67"/>
		<g>
			<circle fill="#FFFFFF" cx="23.057" cy="12.607" r="2.032"/>
			<path fill="#FFFFFF" d="M25.332,14.331h-0.094c-0.512,0.645-1.299,1.059-2.182,1.059c-0.887,0-1.674-0.414-2.186-1.059h-0.096
				l-0.006,0.037l-0.32,1.533l1.195,5.968h5.195L25.332,14.331z"/>
			<circle fill="#FFFFFF" cx="8.401" cy="12.607" r="2.032"/>
			<path fill="#FFFFFF" d="M6.125,14.331h0.094c0.51,0.645,1.298,1.059,2.182,1.059c0.884,0,1.672-0.414,2.182-1.059h0.094
				l0.007,0.037l0.322,1.533l-1.198,5.968H4.613L6.125,14.331z"/>
		</g>
	</g>
</g>
<g id="Correo_Interno" display="none">
	<circle display="inline" fill="#DA5927" cx="15.5" cy="15.5" r="15"/>
	<path display="inline" fill="#FFFFFF" d="M24.939,7.743H6.518c-0.859,0-1.555,0.696-1.555,1.555v12.377
		c0,0.858,0.696,1.556,1.555,1.556h18.421c0.858,0,1.556-0.695,1.556-1.556V9.298C26.494,8.439,25.799,7.743,24.939,7.743z
		 M15.729,17.062h-0.002L7.829,9.165h15.798L15.729,17.062z M6.33,10.522c0-0.194,0.042-0.377,0.115-0.544l4.283,4.283L6.33,18.658
		V10.522z M23.77,21.809H7.687c-0.704,0-1.283-0.537-1.351-1.224l5.357-5.357l2.935,2.936c0.607,0.607,1.593,0.607,2.199,0
		l2.937-2.936l5.356,5.357C25.053,21.271,24.475,21.809,23.77,21.809z M20.73,14.261l4.281-4.283
		c0.072,0.167,0.113,0.351,0.113,0.544v8.136L20.73,14.261z"/>
	<path display="inline" opacity="0.1" enable-background="new    " d="M15.729,30.368c8.218,0,14.882-6.663,14.882-14.882
		c0-1.689-0.282-3.313-0.801-4.827L25.6,7.743l-0.041,0.039c0.568,0.259,0.965,0.832,0.965,1.499l-0.027,12.185v0.21
		c0,0.858-0.695,1.555-1.557,1.555H6.518c-0.524,0-0.986-0.26-1.268-0.654c-0.096-0.104-0.178-0.225-0.244-0.352l-0.043,0.041
		l5.988,7.32C12.45,30.094,14.057,30.368,15.729,30.368z"/>
</g>
<g id="Soporte_Técnico" display="none">
	<circle display="inline" fill="#8E8E8E" cx="15.5" cy="15.5" r="15"/>
	<path display="inline" opacity="0.1" enable-background="new    " d="M15.729,30.368c8.218,0,14.882-6.663,14.882-14.882
		c0-1.689,0.519-1.315,0-2.829l-8.553-5.719l-0.521,0.938l-5.066-2.929l-5.146,4.229c0,0-4.633,7.236-5.847,8.179
		c-0.342,0.265,3.188,4.037,2.888,4.266c-1.358,1.033-0.574,0.908-0.635,0.822C7.632,22.338,15,31.335,15,31.335
		C16.5,31.844,14.057,30.368,15.729,30.368z"/>
	<circle display="inline" fill="#8E8E8E" cx="15.5" cy="15.5" r="15"/>
	<path display="inline" opacity="0.1" enable-background="new    " d="M15.729,30.368c8.218,0,14.882-6.663,14.882-14.882
		c0-1.689,0.519-1.315,0-2.829l-8.553-5.719l-0.521,0.938l-5.066-2.929l-5.146,4.229c0,0-4.633,7.236-5.847,8.179
		c-0.342,0.265,3.188,4.037,2.888,4.266c-1.358,1.033-0.574,0.908-0.635,0.822C7.632,22.338,15,31.335,15,31.335
		C16.5,31.844,14.057,30.368,15.729,30.368z"/>
	<g display="inline">
		<path fill="#FFFFFF" d="M15.729,10.334c-2.841,0-5.152,2.312-5.152,5.152c0,2.84,2.312,5.153,5.152,5.153
			c2.839,0,5.152-2.312,5.152-5.153C20.881,12.646,18.568,10.334,15.729,10.334z M15.729,17.729c-1.237,0-2.243-1.006-2.243-2.242
			s1.006-2.243,2.243-2.243c1.236,0,2.242,1.007,2.242,2.243S16.965,17.729,15.729,17.729z"/>
		<path fill="#FFFFFF" d="M25.982,13.618c0,0-1.121-0.432-2.869-0.308c-0.238-0.807-0.604-1.558-1.074-2.23
			c1.215-1.102,1.666-2.118,1.666-2.118c0.111-0.111,0.111-0.292,0-0.404l-1.643-1.643c-0.111-0.112-0.293-0.112-0.404,0
			c0,0-1.098,0.486-2.246,1.81c-0.717-0.392-1.504-0.67-2.338-0.817c0.082-1.638-0.32-2.675-0.32-2.675
			c0-0.158-0.127-0.286-0.285-0.286h-2.322c-0.158,0-0.286,0.128-0.286,0.286c0,0-0.432,1.12-0.308,2.87
			c-0.807,0.237-1.558,0.603-2.23,1.073C10.221,7.96,9.204,7.51,9.204,7.51c-0.111-0.111-0.292-0.111-0.404,0L7.158,9.153
			c-0.112,0.112-0.112,0.292,0,0.404c0,0,0.486,1.096,1.81,2.246c-0.392,0.718-0.67,1.505-0.817,2.337
			c-1.638-0.08-2.675,0.32-2.675,0.32c-0.158,0-0.286,0.128-0.286,0.286v2.322c0,0.156,0.128,0.285,0.286,0.285
			c0,0,1.12,0.433,2.869,0.309c0.238,0.807,0.603,1.559,1.074,2.23c-1.215,1.102-1.666,2.116-1.666,2.116
			c-0.111,0.111-0.111,0.294,0,0.404l1.643,1.644c0.111,0.11,0.292,0.11,0.404,0c0,0,1.096-0.486,2.246-1.812
			c0.717,0.394,1.504,0.67,2.337,0.815c-0.08,1.64,0.32,2.676,0.32,2.676c0,0.158,0.128,0.285,0.286,0.285h2.324
			c0.158,0,0.285-0.127,0.285-0.285c0,0,0.432-1.118,0.31-2.868c0.807-0.237,1.559-0.604,2.229-1.073
			c1.102,1.217,2.116,1.665,2.116,1.665c0.113,0.11,0.293,0.11,0.404,0l1.643-1.644c0.111-0.11,0.111-0.293,0-0.402
			c0,0-0.485-1.098-1.812-2.246c0.394-0.718,0.673-1.505,0.818-2.337c1.639,0.08,2.676-0.319,2.676-0.319
			c0.156,0,0.285-0.129,0.285-0.285v-2.324C26.268,13.746,26.139,13.618,25.982,13.618z M15.729,21.366
			c-3.242,0-5.879-2.638-5.879-5.88c0-3.242,2.637-5.879,5.879-5.879c3.242,0,5.878,2.637,5.878,5.879
			C21.607,18.729,18.971,21.366,15.729,21.366z"/>
	</g>
</g>
<g id="Módulos_x2F_archivos" display="none">
	<circle display="inline" fill="#64A842" cx="15.5" cy="15.5" r="15"/>
	<path display="inline" opacity="0.03" enable-background="new    " d="M30.611,15.486l-8.188-4.533l-2.637-0.034l-4.743-2.595
		l-6.697,2.348l-1.8,9.376l1.482,1.804l-1.014,0.894l5.828,7.344c0.933,0.185,1.897,0.28,2.884,0.28
		C23.947,30.368,30.611,23.705,30.611,15.486z"/>
	<g display="inline">
		<g>
			<polygon fill="#FFFFFF" points="9.235,11.887 22.424,11.887 22.424,10.954 16.703,10.954 14.952,8.229 7.682,8.229 6.547,10.954 
				6.547,20.049 			"/>
		</g>
		<polygon fill="#FFFFFF" points="21.758,22.744 7.016,22.744 10.169,13.17 24.91,13.17 		"/>
	</g>
</g>
<g id="Trabajos_Prácticos" display="none">
	<circle display="inline" fill="#64A842" cx="15.5" cy="15.5" r="15"/>
	<path display="inline" opacity="0.05" enable-background="new    " d="M30.611,15.486c0-0.772-0.062-1.531-0.174-2.272
		l-7.164-5.665L9.367,8.963l-1.736,2.531l1.736,3.422l-1.984,0.687l2.832,4.786l-2.913,0.467l7.722,9.496
		c0.233,0.012,0.468,0.019,0.705,0.019C23.947,30.368,30.611,23.705,30.611,15.486z"/>
	<g display="inline">
		<path fill="#FFFFFF" d="M11.469,10.817c0,0.58-0.471,1.051-1.051,1.051H8.434c-0.581,0-1.051-0.471-1.051-1.051l0,0
			c0-0.58,0.47-1.051,1.051-1.051h1.984C10.998,9.766,11.469,10.237,11.469,10.817L11.469,10.817z"/>
		<path fill="#FFFFFF" d="M11.469,15.603c0,0.581-0.471,1.051-1.051,1.051H8.434c-0.581,0-1.051-0.471-1.051-1.051l0,0
			c0-0.58,0.47-1.05,1.051-1.05h1.984C10.998,14.553,11.469,15.022,11.469,15.603L11.469,15.603z"/>
		<path fill="#FFFFFF" d="M11.469,20.389c0,0.582-0.471,1.051-1.051,1.051H8.434c-0.581,0-1.051-0.469-1.051-1.051l0,0
			c0-0.58,0.47-1.05,1.051-1.05h1.984C10.998,19.339,11.469,19.809,11.469,20.389L11.469,20.389z"/>
		<path fill="#FFFFFF" d="M9.367,8.963v0.144h1.051c0.943,0,1.709,0.767,1.709,1.71c0,0.943-0.767,1.709-1.709,1.709H9.367v1.367
			h1.051c0.943,0,1.709,0.767,1.709,1.709c0,0.943-0.767,1.71-1.709,1.71H9.367v1.367h1.051c0.943,0,1.709,0.766,1.709,1.709
			c0,0.941-0.767,1.709-1.709,1.709H9.372c0.047,0.868,0.764,1.559,1.644,1.559h1.271V7.315h-1.271
			C10.105,7.315,9.367,8.053,9.367,8.963z"/>
		<path fill="#FFFFFF" d="M22.426,7.315h-9.675v16.341h9.675c0.91,0,1.648-0.736,1.648-1.646V8.963
			C24.074,8.053,23.336,7.315,22.426,7.315z"/>
	</g>
	<rect x="13.95" y="11.546" display="inline" fill="#64A842" width="8.755" height="1.576"/>
</g>
<g id="Actividades" display="none">
	<circle display="inline" fill="#64A842" cx="15.5" cy="15.5" r="15"/>
	<path display="inline" opacity="0.05" enable-background="new    " d="M22.777,8.393l-2.748,0.019L9.331,20.091L8.08,23.137
		l5.787,7.116c0.61,0.076,1.231,0.115,1.863,0.115c8.219,0,14.883-6.663,14.883-14.882c0-0.4-0.018-0.797-0.049-1.189L22.777,8.393z
		"/>
	<g display="inline">
		<path fill="#FFFFFF" d="M22.254,11.734l0.549-0.548c0.766-0.766,0.766-2.008,0-2.774s-2.008-0.766-2.773,0L19.48,8.96
			L22.254,11.734z"/>
		
			<rect x="9.701" y="13.426" transform="matrix(-0.7071 0.7071 -0.7071 -0.7071 37.8974 15.0792)" fill="#FFFFFF" width="12.25" height="3.924"/>
		<path fill="#FFFFFF" d="M8.079,23.137l1.465-0.479c-0.118-0.197-0.262-0.385-0.433-0.557c-0.17-0.17-0.357-0.313-0.556-0.434
			L8.079,23.137z"/>
		<path fill="#FFFFFF" d="M9.498,21.717c0.17,0.172,0.314,0.357,0.433,0.557l2.544-0.828L9.77,18.74l-0.828,2.545
			C9.14,21.402,9.327,21.547,9.498,21.717z"/>
	</g>
</g>
<g id="Biblioteca" display="none">
	<circle display="inline" fill="#64A842" cx="15.5" cy="15.5" r="15"/>
	<g display="inline">
		<path fill="#FFFFFF" d="M9.606,14.741c0.792,0.212,1.578,0.449,2.366,0.674c1.421,0.405,2.845,0.804,4.264,1.219
			c0.4,0.117,0.699,0.021,0.965-0.29c1.453-1.683,2.91-3.36,4.367-5.04c0.771-0.893,1.557-1.78,2.322-2.682
			c0.174-0.205,0.287-0.461,0.428-0.693c0-0.039,0-0.077,0-0.115C24.186,7.421,23.895,7.26,23.5,7.173
			c-1.023-0.224-5.139-1.126-7.236-1.58c-0.6-0.129-1.577,0.183-2.009,0.664c-1.758,1.954-5.656,6.288-6.018,6.687
			c-0.539,0.595-0.841,1.283-0.997,2.054c-0.022,0.108-0.067,0.213-0.102,0.318c0,0.401,0,0.802,0,1.204
			c0.04,0.113,0.082,0.229,0.118,0.344c0.319,1.033,0.943,1.764,2.015,2.076c2.471,0.727,4.938,1.459,7.405,2.201
			c0.443,0.133,0.756,0.035,1.053-0.324c2.059-2.494,4.123-4.979,6.197-7.462c0.258-0.31,0.305-0.604,0.221-1
			c-0.074-0.348-0.029-0.734,0.027-1.092c0.059-0.375,0.02-0.635-0.242-0.815c-0.354-0.245-0.812-0.088-0.98,0.333
			c-0.205,0.521-0.223,1.057-0.166,1.606c0.014,0.131-0.021,0.305-0.104,0.404c-1.783,2.164-3.598,4.306-5.354,6.487
			c-0.375,0.465-0.681,0.511-1.212,0.344c-2.147-0.674-4.309-1.303-6.469-1.932c-0.594-0.172-0.961-0.562-1.103-1.127
			c-0.09-0.357-0.093-0.76-0.038-1.128C8.593,14.82,9,14.58,9.606,14.741z M14.067,8.341c0.094-0.453,0.537-0.743,0.989-0.649
			l5.612,1.167c0.453,0.094,0.744,0.537,0.65,0.99c-0.094,0.452-0.537,0.743-0.99,0.649l-5.613-1.167
			C14.263,9.237,13.973,8.793,14.067,8.341z"/>
		<polygon fill="#FFFFFF" points="17.092,17.545 9.397,15.376 9.426,15.274 17.055,17.425 22.145,11.352 22.227,11.419 		"/>
		<polygon fill="#FFFFFF" points="17.092,18.064 9.397,15.896 9.426,15.794 17.055,17.943 22.145,11.871 22.227,11.939 		"/>
		<polygon fill="#FFFFFF" points="17.092,18.584 9.397,16.415 9.426,16.312 17.055,18.464 22.145,12.391 22.227,12.459 		"/>
		<polygon fill="#FFFFFF" points="17.092,19.104 9.397,16.936 9.426,16.833 17.055,18.982 22.145,12.91 22.227,12.979 		"/>
		<path fill="#FFFFFF" d="M9.606,18.951c0.792,0.212,1.578,0.449,2.366,0.674c1.421,0.404,2.845,0.803,4.264,1.219
			c0.4,0.117,0.699,0.02,0.965-0.289c1.453-1.684,2.91-3.361,4.367-5.04c0.771-0.894,1.557-1.78,2.322-2.683
			c0.174-0.205-0.031-0.461,0.109-0.693c0-0.039-0.105-0.077-0.105-0.115c-0.133-0.393,0,0.292-0.396,0.205L17.2,20.553
			c0,0-8.609-3.262-8.83-3.019c-0.539,0.595-0.977,0.901-1.132,1.673c-0.022,0.107-0.067,0.213-0.102,0.318c0,0.399,0,0.802,0,1.203
			c0.04,0.112,0.082,0.229,0.118,0.344c0.319,1.033,0.943,1.763,2.015,2.076c2.471,0.726,4.938,1.459,7.405,2.201
			c0.443,0.133,0.756,0.037,1.053-0.324c2.059-2.494,4.123-4.98,6.197-7.463c0.258-0.312,0.305-0.604,0.221-1
			c-0.074-0.349-0.031-0.733,0.027-1.092c0.059-0.375,0.02-0.635-0.242-0.815c-0.354-0.245-0.812-0.088-0.982,0.333
			c-0.203,0.52-0.221,1.057-0.164,1.606c0.014,0.131-0.023,0.305-0.104,0.403c-1.783,2.164-3.598,4.306-5.355,6.487
			c-0.375,0.465-0.68,0.511-1.211,0.344c-2.147-0.674-4.309-1.301-6.469-1.93c-0.594-0.174-0.961-0.564-1.103-1.129
			c-0.09-0.357-0.093-0.762-0.038-1.129C8.593,19.029,9,18.79,9.606,18.951z"/>
		<polygon fill="#FFFFFF" points="17.092,21.755 9.397,19.586 9.426,19.484 17.055,21.635 22.145,15.562 22.227,15.63 		"/>
		<polygon fill="#FFFFFF" points="17.092,22.273 9.397,20.105 9.426,20.004 17.055,22.154 22.145,16.081 22.227,16.148 		"/>
		<polygon fill="#FFFFFF" points="17.092,22.794 9.397,20.625 9.426,20.523 17.055,22.674 22.145,16.602 22.227,16.669 		"/>
		<polygon fill="#FFFFFF" points="17.092,23.312 9.397,21.145 9.426,21.043 17.055,23.193 22.145,17.12 22.227,17.188 		"/>
	</g>
	<path display="inline" opacity="0.05" enable-background="new    " d="M29.867,20.143l-5.525-2.834
		c-2.182,2.61-4.355,5.228-6.518,7.852c-0.312,0.379-0.641,0.48-1.107,0.341c-2.593-0.78-5.189-1.554-7.787-2.313
		c-0.354-0.104-0.662-0.252-0.928-0.438l5.756,7.492c0.645,0.085,1.303,0.13,1.971,0.13C22.322,30.368,27.912,26.08,29.867,20.143z"
		/>
</g>
<g id="Layer_15" display="none">
	<circle display="inline" fill="#64A842" cx="15.5" cy="15.5" r="15"/>
	<path display="inline" opacity="0.1" enable-background="new    " d="M23.004,11.352l-1.867-0.914c0,0-4.467-2.242-7.131-1.166
		c-4.34,1.754-7.747,7.162-7.884,7.064l10.575,14c7.768-0.499,13.914-6.956,13.914-14.85c0-0.745-0.057-1.477-0.162-2.192
		l-5.895-2.589L23.004,11.352z"/>
	<g display="inline">
		<path fill="#FFFFFF" d="M17.834,18.928c0.312,0.312,0.312,0.819,0,1.133l-1.113,1.112c-0.312,0.312-0.818,0.312-1.131,0
			l-5.413-5.412c-0.313-0.312-0.313-0.819,0-1.132l1.113-1.113c0.313-0.312,0.82-0.312,1.132,0L17.834,18.928z"/>
		<path fill="#FFFFFF" d="M24.994,14.296c-1.479,1.517-4.379,4.492-6.104,6.263c-0.07,0.108-0.154,0.213-0.25,0.31l-1.113,1.112
			c-0.367,0.365-0.854,0.567-1.373,0.567c-0.002,0-0.006-0.001-0.01-0.001s-0.008,0.001-0.012,0.001
			c-0.52,0-1.006-0.202-1.373-0.567l-1.113-1.112c-0.055-0.058-0.105-0.113-0.152-0.175L9.37,16.568
			c-0.757-0.756-0.757-1.987,0-2.746l1.113-1.113c0.367-0.366,0.854-0.568,1.373-0.568s1.006,0.202,1.372,0.568l2.881,2.884
			c1.688-1.731,3.826-3.926,5.025-5.155L16.578,5.88c-0.721-0.721-1.891-0.721-2.613,0l-7.843,7.844
			c-0.721,0.721-0.721,1.891,0,2.612l8.756,8.758c0.721,0.721,1.892,0.721,2.614,0l7.842-7.845c0.723-0.722,0.723-1.892,0-2.612
			L24.994,14.296z"/>
		<path fill="#FFFFFF" d="M16.701,21.173c-0.314,0.312-0.82,0.312-1.133,0l-1.114-1.112c-0.312-0.312-0.312-0.818,0-1.133
			l8.409-8.629c0.312-0.313,0.82-0.313,1.133,0l1.113,1.113c0.312,0.313,0.312,0.82,0,1.133L16.701,21.173z"/>
	</g>
</g>
<g id="Layer_17" display="none">
	<circle display="inline" fill="#64A842" cx="15.5" cy="15.5" r="15"/>
	<path display="inline" fill="#FFFFFF" d="M12.563,15.907H12.45c-0.611,0.773-1.556,1.269-2.615,1.269S7.832,16.68,7.22,15.907
		H7.108l-1.813,9.037h9.082L12.563,15.907z"/>
	<circle display="inline" fill="#FFFFFF" cx="9.835" cy="13.841" r="2.436"/>
	<path display="inline" opacity="0.1" enable-background="new    " d="M18.049,10.422l-3.328,4.046l-2.66-1.618
		c0.135,0.303,0.21,0.638,0.21,0.99c0,1.346-1.09,2.436-2.436,2.436c-0.474,0-0.915-0.135-1.289-0.369l1.224,1.268
		c0.022,0,0.043,0.001,0.065,0.001c1.059,0,2.004-0.496,2.615-1.269h0.113l1.813,9.037H5.374L7.829,28.1
		c2.29,1.438,4.998,2.271,7.9,2.271c8.218,0,14.882-6.663,14.882-14.882c0-2.568-0.651-4.985-1.797-7.094l-2.711-1.438
		L18.049,10.422z"/>
	<path display="inline" fill="#FFFFFF" d="M25.508,6.87H15.481c-0.819,0-1.482,0.663-1.482,1.482v5.575l2.897-3.339
		c0.176-0.201,0.422-0.307,0.672-0.307c0.166,0,0.332,0.046,0.479,0.141c0.371,0.239,0.513,0.714,0.33,1.117l-3.297,7.244
		c0.127,0.035,0.261,0.056,0.399,0.056h10.027c0.818,0,1.479-0.663,1.479-1.481V8.352C26.988,7.533,26.326,6.87,25.508,6.87z"/>
	<g display="inline">
		<polygon fill="#FFFFFF" points="15.689,13.353 16.639,13.353 17.686,11.055 		"/>
		<polygon fill="#FFFFFF" points="15.168,13.953 13.404,15.985 14.028,19.091 16.365,13.953 		"/>
	</g>
	<polygon display="inline" fill="#FFFFFF" points="6.403,16.521 4.03,19.661 5.217,22.436 	"/>
</g>
<g id="Layer_18" display="none">
	<circle display="inline" fill="#64A842" cx="15.5" cy="15.5" r="15"/>
	<g id="rpzZve_2_" display="inline">
		<g>
			<path fill="#FFFFFF" d="M17.096,21.671c-2.076,1.468-4.407,1.919-6.9,1.669c-0.275-0.027-0.465,0.014-0.669,0.225
				c-0.779,0.802-1.671,1.443-2.75,1.789c-0.173,0.057-0.354,0.103-0.534,0.112c-0.416,0.025-0.633-0.337-0.433-0.704
				c0.218-0.4,0.466-0.787,0.65-1.203c0.135-0.304,0.184-0.646,0.278-0.968c0.056-0.19-0.042-0.274-0.194-0.358
				c-1.108-0.607-2.064-1.395-2.686-2.512c-0.25-0.449-1.263-2.229-0.239-4.496c0.655-1.448,1.796-2.45,3.209-3.092
				c3.514-1.595,6.955-1.462,10.227,0.675c1.24,0.811,2.08,1.956,2.441,3.42C19.514,16.296,20.342,20.098,17.096,21.671z
				 M7.478,23.921c0.536-0.321,1.029-0.708,1.446-1.183c0.33-0.375,0.718-0.489,1.202-0.422c1.041,0.146,2.081,0.117,3.111-0.09
				c1.689-0.338,3.208-1.008,4.344-2.359c0.991-1.182,1.308-2.521,0.746-3.992c-0.459-1.198-1.354-2.03-2.449-2.642
				c-1.981-1.108-4.109-1.363-6.319-0.961c-1.745,0.317-3.284,1.044-4.45,2.438c-1.154,1.378-1.25,3.249-0.242,4.733
				c0.573,0.846,1.336,1.472,2.233,1.938c0.499,0.262,0.74,0.646,0.649,1.204C7.678,23.023,7.573,23.457,7.478,23.921z"/>
			<path fill="#FFFFFF" d="M10.975,13.666c0.158,0,0.279-0.029,0.375,0.008c0.102,0.039,0.238,0.132,0.253,0.22
				c0.028,0.165-0.096,0.256-0.272,0.264c-0.274,0.012-0.549,0.019-0.821,0.051c-1.19,0.14-2.304,0.488-3.258,1.246
				c-0.57,0.452-0.982,1.003-1.029,1.766c-0.01,0.168-0.093,0.288-0.275,0.268c-0.182-0.02-0.221-0.16-0.211-0.325
				c0.047-0.812,0.45-1.438,1.039-1.954c1.012-0.887,2.228-1.3,3.539-1.476C10.548,13.698,10.786,13.684,10.975,13.666z"/>
		</g>
	</g>
	<path display="inline" fill="#FFFFFF" d="M28.375,10.619c-0.654-1.449-1.797-2.451-3.209-3.092
		c-3.514-1.595-6.955-1.462-10.226,0.675c-1.24,0.811-2.082,1.956-2.442,3.421c-0.004,0.015-0.046,0.208-0.076,0.517
		c0.334,0.034,0.666,0.088,0.994,0.159c0.037-0.335,0.12-0.679,0.253-1.03c0.458-1.198,1.353-2.03,2.448-2.642
		c1.98-1.107,4.109-1.363,6.318-0.96c1.746,0.318,3.285,1.044,4.451,2.437c1.152,1.378,1.25,3.25,0.24,4.735
		c-0.572,0.844-1.338,1.472-2.232,1.938c-0.498,0.259-0.74,0.646-0.648,1.203c0.07,0.438,0.176,0.871,0.271,1.334
		c-0.537-0.319-1.029-0.707-1.447-1.183c-0.328-0.375-0.717-0.487-1.201-0.422c-1.041,0.146-2.08,0.117-3.111-0.089
		c-0.057-0.014-0.113-0.023-0.17-0.037c-0.029,0.34-0.105,0.671-0.23,0.992c1.104,0.232,2.254,0.273,3.441,0.156
		c0.275-0.027,0.465,0.015,0.668,0.225c0.781,0.802,1.672,1.443,2.752,1.789c0.172,0.057,0.354,0.104,0.533,0.111
		c0.416,0.024,0.633-0.336,0.434-0.703c-0.219-0.399-0.467-0.787-0.648-1.203c-0.137-0.305-0.186-0.646-0.279-0.969
		c-0.055-0.19,0.043-0.273,0.195-0.357c1.105-0.607,2.062-1.395,2.688-2.512C28.387,14.665,29.4,12.883,28.375,10.619z"/>
	<path display="inline" fill="#FFFFFF" d="M21.256,9.148c-0.16,0-0.281-0.029-0.375,0.008c-0.102,0.04-0.238,0.132-0.254,0.22
		C20.6,9.542,20.723,9.632,20.9,9.64c0.271,0.012,0.549,0.019,0.82,0.051c1.188,0.14,2.303,0.489,3.258,1.246
		c0.568,0.453,0.98,1.004,1.027,1.766c0.012,0.168,0.096,0.289,0.271,0.267c0.184-0.021,0.225-0.161,0.215-0.326
		c-0.049-0.811-0.449-1.437-1.039-1.954c-1.014-0.887-2.229-1.3-3.539-1.476C21.682,9.181,21.443,9.167,21.256,9.148z"/>
	<g display="inline" opacity="0.1">
		<path d="M30.275,12.334l-2.699-3.006l0,0c0.314,0.384,0.584,0.812,0.799,1.29c1.025,2.264,0.012,4.046-0.238,4.495
			c-0.621,1.118-1.578,1.903-2.686,2.512c-0.152,0.084-0.25,0.167-0.195,0.357c0.096,0.322,0.145,0.664,0.279,0.969
			c0.184,0.416,0.432,0.804,0.65,1.203c0.197,0.367-0.02,0.729-0.436,0.703c-0.182-0.01-0.359-0.059-0.533-0.111
			c-1.078-0.346-1.971-0.988-2.752-1.789c-0.201-0.21-0.395-0.252-0.668-0.225c-0.803,0.08-1.588,0.086-2.354,0.009
			c-0.258,1.065-0.894,2.222-2.351,2.929c-2.076,1.467-4.407,1.919-6.9,1.669c-0.275-0.026-0.465,0.015-0.669,0.224
			c-0.779,0.801-1.671,1.444-2.75,1.789c-0.173,0.058-0.354,0.104-0.534,0.113l2.432,3.127c2.1,1.133,4.502,1.775,7.055,1.775
			c8.218,0,14.882-6.663,14.882-14.882C30.611,14.404,30.494,13.351,30.275,12.334z"/>
		
			<linearGradient id="SVGID_1_" gradientUnits="userSpaceOnUse" x1="-223.7617" y1="780.3906" x2="-199.2217" y2="780.3906" gradientTransform="matrix(1 0 0 1 229.8896 -760.5508)">
			<stop  offset="0" style="stop-color:#FFFFFF"/>
			<stop  offset="1" style="stop-color:#000000"/>
		</linearGradient>
		<path fill="url(#SVGID_1_)" d="M15.729,30.428c-2.471,0-4.92-0.617-7.082-1.783l-0.019-0.016l-2.5-3.215l0.11-0.008
			c0.194-0.012,0.389-0.067,0.52-0.108c0.976-0.312,1.868-0.894,2.727-1.774c0.203-0.209,0.409-0.271,0.717-0.239
			c0.429,0.043,0.853,0.063,1.261,0.063c2.097,0,3.981-0.58,5.6-1.725c1.229-0.596,2.006-1.566,2.326-2.895L19.4,18.68l0.052,0.004
			c0.75,0.075,1.539,0.072,2.342-0.009c0.308-0.03,0.515,0.032,0.718,0.241c0.856,0.882,1.75,1.463,2.727,1.773
			c0.132,0.043,0.326,0.1,0.521,0.109c0.179,0.014,0.322-0.057,0.396-0.181c0.072-0.123,0.066-0.282-0.018-0.438
			c-0.07-0.127-0.144-0.252-0.216-0.379c-0.151-0.267-0.312-0.543-0.438-0.828c-0.092-0.203-0.145-0.425-0.193-0.639
			c-0.023-0.111-0.057-0.227-0.086-0.338c-0.07-0.241,0.074-0.346,0.221-0.426c1.24-0.682,2.111-1.495,2.664-2.489l0.01-0.014
			c0.814-1.469,0.895-2.959,0.229-4.429c-0.207-0.458-0.473-0.888-0.791-1.277L27.49,9.318l0.094-0.066l0.035,0.038l2.709,3.017
			l0.004,0.015c0.223,1.036,0.336,2.101,0.336,3.164C30.668,23.725,23.967,30.428,15.729,30.428z M8.712,28.548
			c2.143,1.153,4.568,1.763,7.016,1.763c8.174,0,14.825-6.648,14.825-14.824c0-1.05-0.111-2.101-0.332-3.125l-2.07-2.308
			c0.103,0.175,0.195,0.356,0.277,0.541c0.682,1.505,0.604,3.031-0.232,4.534l-0.008,0.014c-0.563,1.013-1.449,1.843-2.709,2.535
			c-0.149,0.082-0.209,0.145-0.166,0.291c0.033,0.113,0.062,0.23,0.088,0.344c0.052,0.209,0.103,0.424,0.188,0.617
			c0.125,0.28,0.281,0.555,0.435,0.818c0.072,0.126,0.146,0.253,0.215,0.38c0.104,0.192,0.109,0.394,0.017,0.554
			c-0.096,0.162-0.278,0.25-0.504,0.236c-0.207-0.014-0.412-0.072-0.547-0.115c-0.996-0.318-1.901-0.908-2.774-1.805
			c-0.179-0.184-0.354-0.232-0.621-0.206c-0.793,0.079-1.57,0.084-2.315,0.015c-0.334,1.336-1.132,2.317-2.367,2.916
			c-1.63,1.153-3.537,1.74-5.659,1.74c-0.412,0-0.84-0.021-1.272-0.064c-0.268-0.025-0.443,0.021-0.622,0.207
			c-0.872,0.896-1.78,1.485-2.775,1.805c-0.112,0.035-0.272,0.083-0.441,0.104L8.712,28.548z"/>
	</g>
</g>
<g id="Layer_16" display="none">
	<circle display="inline" fill="#64A842" cx="15.5" cy="15.5" r="15"/>
	<path display="inline" opacity="0.1" enable-background="new    " d="M30.604,15.927l-8.109-3.94l-11.11,0.553l-2.568,2.946
		c0,0-0.586,9.581-0.617,9.56l3.243,4.694c1.358,0.408,2.798,0.628,4.289,0.628C23.801,30.368,30.371,23.941,30.604,15.927z"/>
	<path display="inline" fill="#FFFFFF" d="M21.818,11.955H15.3l6.392-2.667c0.976-0.407,1.437-1.526,1.026-2.501l-0.17-0.409
		c-0.405-0.974-1.524-1.435-2.5-1.028L9.077,9.929c-0.974,0.407-1.435,1.526-1.028,2.501l0.122,0.293
		c-0.202,0.289-0.322,0.641-0.322,1.021v10.238c0,0.988,0.801,1.789,1.789,1.789h12.18c0.988,0,1.789-0.801,1.789-1.789V13.743
		C23.607,12.756,22.807,11.955,21.818,11.955z M16.373,13.015c0-0.182,0.148-0.328,0.33-0.328h1.32c0.182,0,0.33,0.146,0.33,0.328
		l-0.99,2.195c0,0.182-0.146,0.328-0.328,0.328h-1.322c-0.182,0-0.329-0.146-0.329-0.328L16.373,13.015z M14.448,13.015l-0.99,2.195
		c0,0.182-0.147,0.328-0.329,0.328h-1.322c-0.182,0-0.329-0.146-0.329-0.328l0.99-2.195c0-0.182,0.147-0.328,0.329-0.328h1.322
		C14.301,12.687,14.448,12.833,14.448,13.015z M19.379,6.499l1.221-0.51c0.168-0.07,0.359,0.009,0.43,0.177l-0.066,2.407
		c0.07,0.167-0.008,0.36-0.176,0.43l-1.223,0.509c-0.168,0.07-0.357-0.009-0.43-0.176l0.068-2.407
		C19.133,6.761,19.213,6.568,19.379,6.499z M15.791,7.996l1.221-0.509c0.168-0.07,0.359,0.009,0.43,0.177l-0.066,2.407
		c0.068,0.167-0.008,0.36-0.178,0.43l-1.219,0.509c-0.168,0.07-0.359-0.009-0.43-0.177l0.068-2.407
		C15.545,8.258,15.625,8.066,15.791,7.996z M12.188,9.5l1.22-0.509c0.167-0.07,0.36,0.009,0.43,0.176l-0.067,2.407
		c0.057,0.137,0.013,0.291-0.097,0.38h-1.719l0.057-2.024C11.941,9.763,12.021,9.57,12.188,9.5z M10.018,11.036
		c0.507,0,0.918,0.411,0.918,0.918c0,0.507-0.411,0.919-0.918,0.919c-0.031,0-0.062-0.002-0.091-0.005
		c-0.011-0.001-0.021-0.003-0.031-0.005c-0.02-0.002-0.039-0.005-0.058-0.009c-0.012-0.002-0.024-0.006-0.036-0.009
		c-0.017-0.004-0.033-0.008-0.05-0.013c-0.013-0.004-0.025-0.009-0.038-0.013c-0.015-0.006-0.03-0.011-0.044-0.017
		c-0.013-0.005-0.026-0.012-0.039-0.018c-0.013-0.006-0.026-0.012-0.04-0.019c-0.014-0.007-0.026-0.015-0.039-0.022
		c-0.012-0.007-0.023-0.014-0.035-0.021c-0.013-0.008-0.025-0.017-0.038-0.026c-0.01-0.008-0.021-0.015-0.031-0.022
		c-0.013-0.011-0.025-0.021-0.037-0.031c-0.009-0.008-0.018-0.017-0.026-0.024c-0.013-0.012-0.024-0.023-0.036-0.036
		c-0.007-0.008-0.015-0.017-0.022-0.024c-0.011-0.014-0.023-0.027-0.034-0.041c-0.006-0.008-0.012-0.017-0.018-0.024
		c-0.011-0.016-0.022-0.03-0.032-0.047c-0.005-0.008-0.01-0.016-0.015-0.023c-0.01-0.017-0.02-0.034-0.028-0.051
		c-0.004-0.007-0.007-0.015-0.011-0.022c-0.009-0.019-0.018-0.037-0.025-0.057c-0.002-0.006-0.005-0.013-0.007-0.02
		c-0.008-0.021-0.015-0.042-0.021-0.063c-0.001-0.005-0.003-0.011-0.004-0.016c-0.006-0.023-0.012-0.046-0.016-0.069
		c0-0.003-0.001-0.007-0.001-0.011c-0.005-0.025-0.008-0.051-0.011-0.078l0,0C9.102,12.01,9.1,11.983,9.1,11.955
		C9.099,11.447,9.51,11.036,10.018,11.036z M22.24,24.283H9.099v-7.477H22.24V24.283z M21.252,15.21c0,0.182-0.148,0.328-0.33,0.328
		H19.6c-0.18,0-0.328-0.146-0.328-0.328l0.99-2.195c0-0.182,0.146-0.328,0.328-0.328h1.322c0.182,0,0.328,0.146,0.328,0.328
		L21.252,15.21z"/>
</g>
<g id="mesa_de_ayuda" display="none">
	<circle display="inline" fill="#DC582A" cx="15.5" cy="15.5" r="15"/>
	<g display="inline">
		<path fill="#FFFFFF" d="M12.897,19.25l-0.031-0.822c-0.095-1.613,0.442-3.258,1.866-4.966c1.012-1.202,1.834-2.214,1.834-3.29
			c0-1.107-0.729-1.834-2.311-1.898c-1.044,0-2.309,0.38-3.131,0.949L10.05,5.775c1.139-0.664,3.037-1.297,5.283-1.297
			c4.174,0,6.073,2.309,6.073,4.934c0,2.404-1.486,3.985-2.689,5.314c-1.17,1.295-1.645,2.53-1.613,3.954v0.568h-4.207V19.25z
			 M12.075,23.615c0-1.678,1.17-2.879,2.815-2.879c1.708,0,2.815,1.201,2.846,2.879c0,1.645-1.139,2.878-2.846,2.878
			C13.214,26.493,12.075,25.26,12.075,23.615z"/>
	</g>
	<rect x="237.548" y="-169.315" display="inline" fill="#005480" width="71.708" height="71.707"/>
	<rect x="237.548" y="-87.608" display="inline" fill="#DC582A" width="71.708" height="71.707"/>
	<rect x="237.548" y="-5.902" display="inline" fill="#777777" width="71.708" height="71.707"/>
	<rect x="237.548" y="75.805" display="inline" fill="#EC1858" width="71.708" height="71.707"/>
	<rect x="237.548" y="157.512" display="inline" fill="#75B443" width="71.708" height="71.707"/>
	<rect x="237.548" y="239.217" display="inline" fill="#00BDF2" width="71.708" height="71.707"/>
</g>
<g id="Datos" display="none">
	<circle display="inline" fill="#EC1858" cx="15.5" cy="15.5" r="15"/>
	<g display="inline">
		<path fill="#FFFFFF" d="M12.385,15.777h-0.323c-1.069,0-1.938-0.87-1.938-1.939V6.957c0-1.069,0.87-1.939,1.938-1.939h0.323
			c1.069,0,1.938,0.87,1.938,1.939v0.822h-0.582V6.957c0-0.749-0.609-1.357-1.357-1.357h-0.323c-0.748,0-1.357,0.609-1.357,1.357
			v6.881c0,0.749,0.609,1.357,1.357,1.357h0.323c0.748,0,1.357-0.608,1.357-1.357v-3.44h0.582v3.44
			C14.324,14.907,13.454,15.777,12.385,15.777z"/>
		<path fill="#FFFFFF" d="M21.434,7.315h-6.451h-1.9h-1.719v6.523c0,0.386,0.313,0.698,0.698,0.698h0.323
			c0.273,0,0.509-0.157,0.624-0.387h-0.703v-0.788h0.777v-1.189h-0.777v-0.788h0.777v-1.189h-0.777V9.407h9.338v0.788h-6.664v1.189
			h6.664v0.788h-6.664v1.189h6.664v0.788h-6.683c-0.053,0.439-0.215,0.846-0.46,1.189h7.143v0.788h-8.034
			c-0.366,0.196-0.784,0.31-1.227,0.31h-0.323c-1.432,0-2.598-1.166-2.598-2.599V7.414C8.83,7.643,8.375,8.249,8.375,8.963v0.144
			L8.379,22.1c0.047,0.869,0.764,1.56,1.644,1.56h0.806h0.465h10.14c0.91,0,1.648-0.737,1.648-1.646V8.963
			C23.082,8.053,22.344,7.315,21.434,7.315z M21.645,22.061h-9.336v-0.789h9.336V22.061z M21.645,20.082h-9.336v-0.788h9.336V20.082
			z M21.645,18.104h-9.336v-0.787h9.336V18.104z"/>
	</g>
</g>
<g id="Herramientas" display="none">
	<circle display="inline" fill="#75B443" cx="15.5" cy="15.5" r="15"/>
	<g display="inline">
		<path fill="#FFFFFF" d="M16.48,16.092c-0.129,0.287-0.416,0.487-0.752,0.487c-0.335,0-0.623-0.2-0.751-0.487H6.87v6.182
			c0,0.601,0.485,1.084,1.084,1.084h15.55c0.598,0,1.084-0.483,1.084-1.084v-6.182H16.48z"/>
		<path fill="#FFFFFF" d="M24.141,10.229h-0.723h-1.57v-0.36c0-1.242-1.012-2.253-2.254-2.253h-7.731
			c-1.242,0-2.253,1.011-2.253,2.253v0.36H8.039H7.316c-0.599,0-1.084,0.485-1.084,1.084v0.722v1.914v0.723
			c0,0.599,0.485,1.084,1.084,1.084h0.723h6.866l0,0c0-0.455,0.368-0.823,0.824-0.823c0.455,0,0.824,0.368,0.824,0.823l0,0h6.865
			h0.723c0.602,0,1.084-0.485,1.084-1.084v-0.723v-1.914v-0.722C25.225,10.714,24.74,10.229,24.141,10.229z M20.955,10.229H10.502
			v-0.36c0-0.75,0.61-1.361,1.36-1.361h7.731c0.75,0,1.361,0.61,1.361,1.361L20.955,10.229L20.955,10.229z"/>
	</g>
</g>
<g id="Sala_Docentes" display="none">
	<circle display="inline" fill="#DC582A" cx="15.5" cy="15.5" r="15"/>
	<g display="inline">
		<path fill="#FFFFFF" d="M17.992,12.955h-0.15c-0.811,1.024-2.064,1.684-3.469,1.684c-1.405,0-2.659-0.659-3.47-1.684h-0.149
			L8.348,24.943h12.048L17.992,12.955z"/>
		<circle fill="#FFFFFF" cx="14.372" cy="10.213" r="3.231"/>
		<g>
			<polygon fill="#FFFFFF" points="22.139,9.566 23.398,9.566 24.787,6.517 			"/>
			<polygon fill="#FFFFFF" points="21.447,10.362 19.107,13.058 19.934,17.18 23.037,10.362 			"/>
		</g>
		<polygon fill="#FFFFFF" points="9.818,13.771 6.67,17.936 8.245,21.615 		"/>
	</g>
</g>
<g id="Sala_de_Practica" display="none">
	<circle display="inline" fill="#EC1858" cx="15.5" cy="15.5" r="15"/>
	<g display="inline">
		<path fill="#FFFFFF" d="M24.684,12.231l0.441-0.442c0.619-0.618,0.619-1.62,0-2.238c-0.617-0.618-1.619-0.618-2.236,0
			l-0.443,0.443L24.684,12.231z"/>
		
			<rect x="14.559" y="13.597" transform="matrix(-0.7071 0.7071 -0.7071 -0.7071 44.0208 12.1249)" fill="#FFFFFF" width="9.881" height="3.165"/>
		<path fill="#FFFFFF" d="M13.25,21.428l1.182-0.386c-0.095-0.16-0.211-0.312-0.349-0.448c-0.138-0.138-0.289-0.254-0.448-0.35
			L13.25,21.428z"/>
		<path fill="#FFFFFF" d="M14.395,20.281c0.137,0.139,0.253,0.289,0.349,0.449l2.052-0.668l-2.181-2.183l-0.668,2.054
			C14.106,20.029,14.257,20.145,14.395,20.281z"/>
	</g>
	<path display="inline" fill="#FFFFFF" d="M20.777,17.068h0.707v0.789h-1.496l-1.189,1.188h2.686v0.788h-3.473l-0.256,0.256
		l-0.523,0.521l-0.105,0.109l-0.057-0.056l-1.098,0.356l-1.777,0.789l-1.971,0.642l0.209-0.642h-2.46V21.02h2.715l0.387-1.188H9.973
		v-0.788h3.568l0.387-1.189H9.973v-0.787h4.212l0.401-0.147l1.041-1.041H9.973V15.09h6.441l1.189-1.189h-7.63v-0.787h8.419
		l1.188-1.19H9.973v-0.788h10.396l1.504-1.503l0,0l0.549-0.549c0.186-0.185,0.398-0.332,0.629-0.44
		c-0.148-0.758-0.816-1.33-1.617-1.33H9.464v0.099c-0.634,0.23-1.089,0.836-1.089,1.55v0.144L8.379,22.1
		c0.047,0.869,0.764,1.56,1.644,1.56h0.806h0.465h10.14c0.539,0,1.02-0.261,1.318-0.661h0.002v-0.003
		c0.205-0.272,0.328-0.614,0.328-0.981v-7.247L20.777,17.068z M9.973,9.16h11.511v0.788H9.973V9.16z"/>
</g>
<g id="Opinion" display="none">
	<circle display="inline" fill="#75B443" cx="15.5" cy="15.5" r="15"/>
	<g id="rpzZve_1_" display="inline">
		<g>
			<path fill="#FFFFFF" d="M22.857,19.744c-2.592,1.831-5.502,2.396-8.615,2.084c-0.344-0.034-0.581,0.018-0.835,0.279
				c-0.974,1-2.087,1.804-3.435,2.232c-0.216,0.069-0.442,0.129-0.667,0.143c-0.52,0.031-0.791-0.42-0.541-0.879
				c0.273-0.5,0.582-0.983,0.812-1.502c0.168-0.381,0.229-0.808,0.347-1.209c0.07-0.24-0.052-0.345-0.243-0.447
				c-1.383-0.762-2.577-1.741-3.354-3.137c-0.312-0.562-1.577-2.788-0.298-5.615c0.818-1.809,2.243-3.06,4.007-3.861
				c4.388-1.991,8.684-1.826,12.768,0.842c1.549,1.012,2.6,2.443,3.051,4.271C25.875,13.033,26.91,17.779,22.857,19.744z
				 M10.848,22.555c0.668-0.402,1.285-0.886,1.805-1.477c0.412-0.469,0.897-0.611,1.501-0.525c1.299,0.182,2.598,0.145,3.885-0.111
				c2.109-0.422,4.008-1.262,5.422-2.946c1.238-1.478,1.633-3.15,0.932-4.985c-0.57-1.497-1.688-2.535-3.055-3.299
				c-2.475-1.383-5.133-1.702-7.892-1.2c-2.179,0.396-4.101,1.304-5.557,3.043c-1.441,1.72-1.561,4.058-0.302,5.912
				c0.716,1.056,1.668,1.839,2.789,2.421c0.622,0.322,0.924,0.807,0.811,1.504C11.098,21.434,10.967,21.975,10.848,22.555z"/>
			<path fill="#FFFFFF" d="M15.214,9.749c0.198,0,0.35-0.037,0.467,0.01c0.127,0.05,0.299,0.165,0.316,0.274
				c0.035,0.206-0.121,0.32-0.34,0.329c-0.341,0.015-0.685,0.023-1.024,0.063c-1.486,0.174-2.877,0.61-4.068,1.556
				c-0.712,0.565-1.227,1.253-1.285,2.205c-0.013,0.21-0.116,0.36-0.343,0.333s-0.276-0.201-0.264-0.407
				c0.059-1.013,0.562-1.794,1.297-2.439c1.263-1.107,2.781-1.624,4.418-1.843C14.683,9.79,14.979,9.771,15.214,9.749z"/>
		</g>
	</g>
</g>
<g id="Cafe" display="none">
	<circle display="inline" fill="#DC582A" cx="15.5" cy="15.5" r="15"/>
	<g display="inline">
		<path fill="#FFFFFF" d="M23.872,11.988c-0.25,0-0.494,0.032-0.728,0.093v-1.057H7.854v4.26v0.837v0.838
			c0,1.82,1.476,3.296,3.296,3.296h8.7c1.592,0,2.922-1.13,3.229-2.631c0.252,0.071,0.519,0.11,0.793,0.11
			c1.588,0,2.873-1.285,2.873-2.875C26.745,13.275,25.46,11.988,23.872,11.988z M23.872,16.088c-0.271,0-0.522-0.091-0.728-0.241
			v-0.562v-1.408c0.203-0.149,0.455-0.24,0.728-0.24c0.676,0,1.228,0.549,1.228,1.225C25.1,15.538,24.548,16.088,23.872,16.088z"/>
		<path fill="#FFFFFF" d="M7.854,21.585c0.559,0.511,1.301,0.824,2.118,0.824h11.055c0.867,0,1.65-0.353,2.22-0.921v-0.885H7.854
			V21.585z"/>
	</g>
</g>
<g id="Layer_31" display="none">
	<circle display="inline" fill="#EC1858" cx="15.5" cy="15.5" r="15"/>
	<path display="inline" opacity="0.1" enable-background="new    " d="M27.086,7.476L16.791,7.988l-0.426,5.01l-3.163-3.064
		c0,0-9.257-1.605-6.606,5.32L8.599,19c-2.016,1.322-2.958-1.949-2.958-1.949l-1.068,5.323l5.187,6.748
		c1.827,0.801,3.846,1.246,5.969,1.246c8.218,0,14.882-6.663,14.882-14.882c0-2.393-0.565-4.652-1.567-6.655L27.086,7.476z"/>
	<g display="inline">
		<path fill="#FFFFFF" d="M6.834,13.084c0.262-0.598,0.948-1.026,1.752-1.026c0.923,0,1.69,0.562,1.84,1.297h0.275
			c0.15-0.735,0.917-1.297,1.839-1.297c0.805,0,1.491,0.428,1.753,1.026l0.501-0.526c-0.376-2.022-2.148-3.553-4.279-3.553
			c-2.101,0-3.854,1.488-4.263,3.468L6.834,13.084z"/>
		<ellipse fill="#FFFFFF" cx="12.541" cy="13.617" rx="1.344" ry="1.035"/>
		<ellipse fill="#FFFFFF" cx="8.587" cy="13.617" rx="1.344" ry="1.035"/>
		<path fill="#FFFFFF" d="M14.402,13.729c-0.069,0.808-0.876,1.447-1.861,1.447c-0.923,0-1.689-0.562-1.839-1.297h-0.275
			c-0.15,0.735-0.917,1.297-1.84,1.297c-0.984,0-1.792-0.64-1.861-1.447l-0.558-0.585c-0.003,0.07-0.005,0.143-0.005,0.214
			c0,2.405,1.949,4.354,4.354,4.354c2.405,0,4.354-1.948,4.354-4.354c0-0.039-0.002-0.077-0.003-0.116L14.402,13.729z"/>
	</g>
	<polygon display="inline" fill="#FFFFFF" points="10.212,20.344 11.103,19.217 10.561,18.023 10.212,17.895 10.164,17.959 
		10.115,17.895 9.766,18.023 9.224,19.217 10.115,20.344 10.115,20.465 10.164,20.402 10.212,20.465 	"/>
	<g display="inline">
		<path fill="#FFFFFF" d="M8.243,21.768l0.819-1.692l-0.604-0.765L8.599,19c-1.097-0.374-2.052-1.059-2.757-1.949H5.64l-1.068,5.323
			c1.288,1.696,2.931,3.108,4.819,4.127L8.243,21.768z"/>
		<path fill="#FFFFFF" d="M15.392,17.051h-0.201c-0.837,1.057-2.023,1.823-3.382,2.127l0.061,0.133l-0.604,0.765l0.819,1.692
			l-1.28,5.276h-0.296c1.816,0.789,3.821,1.228,5.927,1.228c0.404,0,0.803-0.017,1.199-0.047L15.392,17.051z"/>
	</g>
	<polygon display="inline" fill="#FFFFFF" points="10.632,20.277 10.212,20.809 10.212,20.93 10.164,20.869 10.115,20.93 
		10.115,20.809 9.695,20.277 8.939,21.841 10.164,26.889 11.388,21.841 	"/>
	<path display="inline" fill="#FFFFFF" d="M26.562,7.476h-9.703c-0.451,0-0.818,0.367-0.818,0.819v6.519
		c0,0.452,0.367,0.819,0.818,0.819h9.703c0.453,0,0.818-0.367,0.818-0.819V8.295C27.383,7.843,27.016,7.476,26.562,7.476z
		 M21.711,12.386L21.711,12.386l-4.16-4.161h8.32L21.711,12.386z M16.762,8.94c0-0.102,0.021-0.199,0.061-0.287l2.258,2.256
		l-2.314,2.316V8.94H16.762z M25.947,14.884h-8.471c-0.371,0-0.678-0.282-0.711-0.644l2.818-2.822l1.547,1.546
		c0.32,0.319,0.84,0.319,1.158,0l1.545-1.546l2.822,2.822C26.623,14.602,26.318,14.884,25.947,14.884z M24.346,10.909l2.256-2.256
		c0.039,0.088,0.062,0.185,0.062,0.287v4.285L24.346,10.909z"/>
</g>
<g id="Layer_32" display="none">
	<circle display="inline" fill="#DC582A" cx="15.5" cy="15.5" r="15"/>
	<g display="inline">
		<g>
			<path fill="#FFFFFF" d="M6.541,11.188v8.279c0,0.264,0.057,0.686,0.126,0.938c0,0,1.109,4.039,4.592,4.098
				c3.483,0.059,8.729,0.143,8.729,0.143c0.262,0.004,0.68-0.064,0.926-0.154c0,0,3.377-1.223,3.545-3.975V15.43
				c0-0.263,0-0.679,0-0.926c0-0.246,0-0.662,0-0.925c0,0,0-0.425-0.674-0.425h-1.264c-0.264,0-0.686,0.061-0.938,0.136
				c0,0-0.004,0-0.141-1.584c-0.133-1.585-1.199-5.011-4.795-5.348H12.32c-0.263,0-0.692,0.012-0.955,0.027
				C11.369,6.385,6.99,6.638,6.541,11.188z"/>
		</g>
		<defs>
			<filter id="Adobe_OpacityMaskFilter" filterUnits="userSpaceOnUse" x="6.541" y="6.358" width="17.918" height="18.287">
				<feColorMatrix  type="matrix" values="1 0 0 0 0  0 1 0 0 0  0 0 1 0 0  0 0 0 1 0"/>
			</filter>
		</defs>
		<mask maskUnits="userSpaceOnUse" x="6.541" y="6.358" width="17.918" height="18.287" id="SVGID_2_">
			<g filter="url(#Adobe_OpacityMaskFilter)">
			</g>
		</mask>
		<g opacity="0.41" mask="url(#SVGID_2_)">
			<path fill="#FFFFFF" d="M6.541,11.188v8.279c0,0.264,0.057,0.686,0.126,0.938c0,0,1.109,4.039,4.592,4.098
				c3.483,0.059,8.729,0.143,8.729,0.143c0.262,0.004,0.68-0.064,0.926-0.154c0,0,3.377-1.223,3.545-3.975V15.43
				c0-0.263,0-0.679,0-0.926c0-0.246,0-0.662,0-0.925c0,0,0-0.425-0.674-0.425h-1.264c-0.264,0-0.686,0.061-0.938,0.136
				c0,0-0.004,0-0.141-1.584c-0.133-1.585-1.199-5.011-4.795-5.348H12.32c-0.263,0-0.692,0.012-0.955,0.027
				C11.369,6.385,6.99,6.638,6.541,11.188z"/>
		</g>
		<g>
			<path fill="#DC582A" d="M16.75,12.348c0,0.525-0.43,0.956-0.955,0.956h-3.398c-0.525,0-0.955-0.431-0.955-0.956v-0.346
				c0-0.525,0.43-0.956,0.955-0.956h3.398c0.525,0,0.955,0.43,0.955,0.956V12.348z"/>
		</g>
		<g>
			<path fill="#DC582A" d="M19.559,19.005c0,0.524-0.43,0.955-0.955,0.955h-6.207c-0.525,0-0.955-0.431-0.955-0.955v-0.346
				c0-0.525,0.43-0.955,0.955-0.955h6.207c0.525,0,0.955,0.43,0.955,0.955V19.005z"/>
		</g>
	</g>
</g>
<g id="microfono" display="none">
	<circle display="inline" fill="#DC582A" cx="15.5" cy="15.5" r="15"/>
	<g display="inline">
		<path fill="#FFFFFF" d="M11.785,11.975v3.612c0,2.052,1.664,3.716,3.715,3.716c2.053,0,3.715-1.664,3.715-3.716v-3.612H11.785z"/>
		<path fill="#FFFFFF" d="M15.5,4.803c-2.052,0-3.715,1.663-3.715,3.715v2.457h7.43V8.518C19.215,6.466,17.553,4.803,15.5,4.803z
			 M18.215,9.975h-5.43V8.518c0-1.497,1.218-2.715,2.715-2.715s2.715,1.218,2.715,2.715V9.975z"/>
		<path fill="none" stroke="#FFFFFF" stroke-linecap="round" stroke-miterlimit="10" d="M10.549,12.975v2.789
			c0,2.73,2.221,4.951,4.951,4.951c2.73,0,4.951-2.221,4.951-4.951v-2.789"/>
		<line fill="none" stroke="#FFFFFF" stroke-linecap="round" stroke-miterlimit="10" x1="15.5" y1="20.715" x2="15.5" y2="23.926"/>
		<path fill="#FFFFFF" d="M20.451,25.061c0,0.629-0.508,1.137-1.135,1.137h-7.632c-0.627,0-1.135-0.508-1.135-1.137l0,0
			c0-0.627,0.508-1.135,1.135-1.135h7.632C19.943,23.926,20.451,24.434,20.451,25.061L20.451,25.061z"/>
		<circle fill="#FFFFFF" cx="14.255" cy="8.008" r="0.461"/>
		<circle fill="#FFFFFF" cx="16.872" cy="8.008" r="0.461"/>
		<circle fill="#FFFFFF" cx="15.596" cy="6.8" r="0.461"/>
		<circle fill="#FFFFFF" cx="15.596" cy="9.216" r="0.461"/>
	</g>
</g>
<g id="red_personas" display="none">
	<circle display="inline" fill="#EC1858" cx="15.5" cy="15.5" r="15"/>
	<g display="inline">
		<g>
			<g>
				<path fill="#FFFFFF" d="M23.658,18.355h-0.086c-0.456,0.576-1.158,0.944-1.948,0.944c-0.789,0-1.493-0.368-1.948-0.944h-0.085
					l-1.351,6.028h6.769L23.658,18.355z"/>
				<circle fill="#FFFFFF" cx="21.625" cy="16.815" r="1.816"/>
			</g>
			<g>
				<path fill="#FFFFFF" d="M11.726,18.355h-0.083c-0.457,0.576-1.16,0.944-1.95,0.944c-0.789,0-1.493-0.368-1.949-0.944H7.66
					l-1.351,6.028h6.768L11.726,18.355z"/>
				<circle fill="#FFFFFF" cx="9.693" cy="16.815" r="1.815"/>
			</g>
		</g>
		<path fill="#FFFFFF" d="M17.691,5.932h-0.084c-0.457,0.575-1.158,0.946-1.949,0.946c-0.789,0-1.493-0.371-1.949-0.946h-0.083
			l-1.351,6.03h6.77L17.691,5.932z"/>
		<circle fill="#FFFFFF" cx="15.658" cy="4.392" r="1.815"/>
		<line fill="none" stroke="#FFFFFF" stroke-width="0.8" stroke-miterlimit="10" x1="15.658" y1="9.974" x2="15.658" y2="13.436"/>
		<polyline fill="none" stroke="#FFFFFF" stroke-width="0.8" stroke-miterlimit="10" points="21.467,13.29 21.467,16.751 
			21.467,13.436 9.851,13.436 10.029,16.751 10.029,13.29 		"/>
	</g>
</g>
<g id="musica" display="none">
	<circle display="inline" fill="#75B443" cx="15.5" cy="15.5" r="15"/>
	<path display="inline" fill="#FFFFFF" d="M22.787,15.307c-0.008-0.228-0.03-0.463-0.064-0.708
		c-0.035-0.244-0.084-0.497-0.158-0.755c-0.073-0.256-0.17-0.521-0.297-0.784c-0.062-0.131-0.135-0.262-0.218-0.39
		c-0.019-0.033-0.038-0.065-0.062-0.097l-0.032-0.048l-0.015-0.023l-0.008-0.013c-0.021-0.024-0.01-0.01-0.016-0.016l-0.004-0.004
		l-0.053-0.073l-0.014-0.019l-0.018-0.023l-0.037-0.05c-0.376-0.48-0.805-0.852-1.206-1.188c-0.403-0.335-0.771-0.656-1.082-0.959
		c-0.312-0.304-0.571-0.575-0.808-0.81c-0.234-0.236-0.455-0.444-0.66-0.673s-0.395-0.476-0.568-0.73
		c-0.175-0.255-0.332-0.516-0.478-0.76c-0.13-0.222-0.246-0.431-0.351-0.611V5.677c0-0.453-0.367-0.818-0.819-0.818
		c-0.451,0-0.818,0.366-0.818,0.818V18.93c-0.66-0.482-1.474-0.77-2.354-0.77c-2.205,0-3.991,1.787-3.991,3.99
		c0,2.205,1.786,3.99,3.991,3.99c2.099,0,3.819-1.619,3.977-3.679c0.01-0.058,0.014-0.108,0.014-0.159V11.412
		c0.397,0.403,0.871,0.708,1.334,0.944c0.469,0.24,0.924,0.428,1.317,0.641c0.194,0.104,0.378,0.212,0.546,0.321
		c0.086,0.055,0.167,0.11,0.24,0.167c0.04,0.028,0.074,0.057,0.113,0.085l0.101,0.082l0.022,0.016l0.011,0.01l0.016,0.013
		l0.063,0.062l0.006,0.004c-0.003-0.004,0.013,0.016-0.006-0.008l0.006,0.005l0.011,0.011l0.022,0.021
		c0.017,0.014,0.031,0.029,0.045,0.044c0.062,0.06,0.119,0.124,0.175,0.193c0.114,0.135,0.22,0.288,0.315,0.451
		c0.188,0.326,0.34,0.69,0.453,1.053c0.116,0.365,0.198,0.728,0.264,1.071c0.063,0.344,0.107,0.664,0.139,0.951
		c0.029,0.287,0.049,0.54,0.061,0.751c0.017,0.209,0.019,0.374,0.021,0.487c0.001,0.109,0.002,0.171,0.002,0.171l0.273,0.054
		c0,0,0.021-0.06,0.062-0.172c0.038-0.109,0.088-0.275,0.146-0.484c0.061-0.211,0.123-0.467,0.188-0.769
		c0.06-0.301,0.116-0.644,0.155-1.024C22.785,16.184,22.805,15.762,22.787,15.307z"/>
</g>
<g id="video" display="none">
	<circle display="inline" fill="#00BDF2" cx="15.5" cy="15.5" r="15"/>
	<g display="inline">
		<rect x="9.281" y="5.031" fill="#FFFFFF" width="12.437" height="20.938"/>
		<g>
			<g>
				<path fill="#FFFFFF" d="M10.453,25.021c0,0.521-0.425,0.947-0.947,0.947H8.058c-0.522,0-0.947-0.427-0.947-0.947V5.978
					c0-0.521,0.425-0.946,0.947-0.946h1.448c0.522,0,0.947,0.425,0.947,0.946V25.021z"/>
				<g>
					<g>
						<path fill="#00BDF2" d="M10.152,24.521c0,0.424-0.345,0.769-0.77,0.769H8.18c-0.425,0-0.769-0.345-0.769-0.769l0,0
							c0-0.426,0.344-0.771,0.769-0.771h1.203C9.808,23.752,10.152,24.096,10.152,24.521L10.152,24.521z"/>
					</g>
					<g>
						<path fill="#00BDF2" d="M10.152,22.248c0,0.425-0.345,0.768-0.77,0.768H8.18c-0.425,0-0.769-0.343-0.769-0.768l0,0
							c0-0.428,0.344-0.771,0.769-0.771h1.203C9.808,21.479,10.152,21.82,10.152,22.248L10.152,22.248z"/>
					</g>
					<g>
						<path fill="#00BDF2" d="M10.152,19.973c0,0.426-0.345,0.771-0.77,0.771H8.18c-0.425,0-0.769-0.346-0.769-0.771l0,0
							c0-0.424,0.344-0.768,0.769-0.768h1.203C9.808,19.205,10.152,19.549,10.152,19.973L10.152,19.973z"/>
					</g>
					<g>
						<path fill="#00BDF2" d="M10.152,17.697c0,0.426-0.345,0.771-0.77,0.771H8.18c-0.425,0-0.769-0.347-0.769-0.771l0,0
							c0-0.424,0.344-0.768,0.769-0.768h1.203C9.808,16.932,10.152,17.273,10.152,17.697L10.152,17.697z"/>
					</g>
					<g>
						<path fill="#00BDF2" d="M10.152,15.425c0,0.424-0.345,0.771-0.77,0.771H8.18c-0.425,0-0.769-0.345-0.769-0.771l0,0
							c0-0.425,0.344-0.768,0.769-0.768h1.203C9.808,14.657,10.152,15,10.152,15.425L10.152,15.425z"/>
					</g>
					<g>
						<path fill="#00BDF2" d="M10.152,13.151c0,0.425-0.345,0.77-0.77,0.77H8.18c-0.425,0-0.769-0.345-0.769-0.77l0,0
							c0-0.424,0.344-0.77,0.769-0.77h1.203C9.808,12.382,10.152,12.728,10.152,13.151L10.152,13.151z"/>
					</g>
					<g>
						<path fill="#00BDF2" d="M10.152,10.878c0,0.424-0.345,0.769-0.77,0.769H8.18c-0.425,0-0.769-0.345-0.769-0.769l0,0
							c0-0.425,0.344-0.769,0.769-0.769h1.203C9.808,10.109,10.152,10.453,10.152,10.878L10.152,10.878z"/>
					</g>
					<g>
						<path fill="#00BDF2" d="M10.152,8.604c0,0.425-0.345,0.769-0.77,0.769H8.18c-0.425,0-0.769-0.344-0.769-0.769l0,0
							c0-0.425,0.344-0.769,0.769-0.769h1.203C9.808,7.835,10.152,8.179,10.152,8.604L10.152,8.604z"/>
					</g>
					<g>
						<path fill="#00BDF2" d="M10.152,6.329c0,0.426-0.345,0.77-0.77,0.77H8.18c-0.425,0-0.769-0.344-0.769-0.77l0,0
							c0-0.425,0.344-0.77,0.769-0.77h1.203C9.808,5.56,10.152,5.904,10.152,6.329L10.152,6.329z"/>
					</g>
				</g>
			</g>
			<g>
				<path fill="#FFFFFF" d="M23.891,25.021c0,0.521-0.427,0.947-0.947,0.947h-1.448c-0.522,0-0.945-0.427-0.945-0.947V5.978
					c0-0.521,0.423-0.946,0.945-0.946h1.448c0.521,0,0.947,0.425,0.947,0.946V25.021z"/>
				<g>
					<g>
						<path fill="#00BDF2" d="M23.589,24.521c0,0.424-0.344,0.769-0.771,0.769h-1.202c-0.425,0-0.771-0.345-0.771-0.769l0,0
							c0-0.426,0.346-0.771,0.771-0.771h1.202C23.245,23.752,23.589,24.096,23.589,24.521L23.589,24.521z"/>
					</g>
					<g>
						<path fill="#00BDF2" d="M23.589,22.248c0,0.425-0.344,0.768-0.771,0.768h-1.202c-0.425,0-0.771-0.343-0.771-0.768l0,0
							c0-0.428,0.346-0.771,0.771-0.771h1.202C23.245,21.479,23.589,21.82,23.589,22.248L23.589,22.248z"/>
					</g>
					<g>
						<path fill="#00BDF2" d="M23.589,19.973c0,0.426-0.344,0.771-0.771,0.771h-1.202c-0.425,0-0.771-0.346-0.771-0.771l0,0
							c0-0.424,0.346-0.768,0.771-0.768h1.202C23.245,19.205,23.589,19.549,23.589,19.973L23.589,19.973z"/>
					</g>
					<g>
						<path fill="#00BDF2" d="M23.589,17.697c0,0.426-0.344,0.771-0.771,0.771h-1.202c-0.425,0-0.771-0.347-0.771-0.771l0,0
							c0-0.424,0.346-0.768,0.771-0.768h1.202C23.245,16.932,23.589,17.273,23.589,17.697L23.589,17.697z"/>
					</g>
					<g>
						<path fill="#00BDF2" d="M23.589,15.425c0,0.424-0.344,0.771-0.771,0.771h-1.202c-0.425,0-0.771-0.345-0.771-0.771l0,0
							c0-0.425,0.346-0.768,0.771-0.768h1.202C23.245,14.657,23.589,15,23.589,15.425L23.589,15.425z"/>
					</g>
					<g>
						<path fill="#00BDF2" d="M23.589,13.151c0,0.425-0.344,0.77-0.771,0.77h-1.202c-0.425,0-0.771-0.345-0.771-0.77l0,0
							c0-0.424,0.346-0.77,0.771-0.77h1.202C23.245,12.382,23.589,12.728,23.589,13.151L23.589,13.151z"/>
					</g>
					<g>
						<path fill="#00BDF2" d="M23.589,10.878c0,0.424-0.344,0.769-0.771,0.769h-1.202c-0.425,0-0.771-0.345-0.771-0.769l0,0
							c0-0.425,0.346-0.769,0.771-0.769h1.202C23.245,10.109,23.589,10.453,23.589,10.878L23.589,10.878z"/>
					</g>
					<g>
						<path fill="#00BDF2" d="M23.589,8.604c0,0.425-0.344,0.769-0.771,0.769h-1.202c-0.425,0-0.771-0.344-0.771-0.769l0,0
							c0-0.425,0.346-0.769,0.771-0.769h1.202C23.245,7.835,23.589,8.179,23.589,8.604L23.589,8.604z"/>
					</g>
					<g>
						<path fill="#00BDF2" d="M23.589,6.329c0,0.426-0.344,0.77-0.771,0.77h-1.202c-0.425,0-0.771-0.344-0.771-0.77l0,0
							c0-0.425,0.346-0.77,0.771-0.77h1.202C23.245,5.56,23.589,5.904,23.589,6.329L23.589,6.329z"/>
					</g>
				</g>
			</g>
		</g>
		<path fill="#00BDF2" d="M19.943,10.698c0,0.523-0.424,0.948-0.944,0.948h-6.997c-0.522,0-0.947-0.425-0.947-0.948V6.509
			c0-0.524,0.425-0.949,0.947-0.949h6.997c0.521,0,0.944,0.425,0.944,0.949V10.698z"/>
		<path fill="#00BDF2" d="M19.943,17.602c0,0.521-0.424,0.946-0.944,0.946h-6.997c-0.522,0-0.947-0.425-0.947-0.946V13.41
			c0-0.522,0.425-0.947,0.947-0.947h6.997c0.521,0,0.944,0.425,0.944,0.947V17.602z"/>
		<path fill="#00BDF2" d="M19.943,24.438c0,0.523-0.424,0.947-0.944,0.947h-6.997c-0.522,0-0.947-0.424-0.947-0.947v-4.189
			c0-0.521,0.425-0.947,0.947-0.947h6.997c0.521,0,0.944,0.426,0.944,0.947V24.438z"/>
	</g>
</g>
<g id="Layer_37" display="none">
	<g display="inline">
		<circle fill="#1ABBEE" cx="15.5" cy="15.499" r="15"/>
		<path fill="#FFFFFF" d="M22.492,14.419l-8.879-8.881c-0.3-0.298-0.69-0.549-1.35-0.549c-1.233,0-2.232,1-2.232,2.232v16.515
			c0,1.232,0.999,2.232,2.232,2.232c0.092,0,0.27-0.05,0.27-0.05c0.439,0.021,0.884-0.127,1.218-0.461l8.741-8.742
			C23.128,16.083,23.128,15.054,22.492,14.419z"/>
	</g>
</g>
<g id="Layer_27" display="none">
	<circle display="inline" fill="#E09128" cx="15.5" cy="15.5" r="15"/>
	<circle display="inline" fill="#2C5298" cx="15.5" cy="15.5" r="15"/>
	<path id="Facebook" display="inline" fill="#FFFFFF" d="M13.013,9.207c0,0.517,0,2.822,0,2.822h-2.068v3.452h2.068v10.255h4.247
		V15.48h2.852c0,0,0.268-1.655,0.396-3.464c-0.371,0-3.23,0-3.23,0s0-2.008,0-2.36c0-0.353,0.465-0.827,0.92-0.827
		c0.457,0,1.424,0,2.314,0c0-0.47,0-2.094,0-3.593c-1.193,0-2.549,0-3.146,0C12.908,5.236,13.013,8.69,13.013,9.207z"/>
</g>
<g id="Linkedin" display="none">
	<circle display="inline" fill="#E09128" cx="15.5" cy="15.5" r="15"/>
	<circle display="inline" fill="#6C6C6C" cx="15.5" cy="15.5" r="15"/>
	<path id="LinkedIn_1_" display="inline" fill="#FFFFFF" d="M25.807,17.665v7.451h-4.32v-6.952c0-1.747-0.625-2.938-2.188-2.938
		c-1.191,0-1.9,0.803-2.215,1.581c-0.115,0.276-0.146,0.664-0.146,1.053v7.259h-4.319c0,0,0.058-11.775,0-12.995h4.319v1.842
		c-0.008,0.014-0.02,0.028-0.025,0.042h0.025v-0.042c0.574-0.884,1.602-2.147,3.896-2.147
		C23.674,11.815,25.807,13.673,25.807,17.665z M8.096,5.856c-1.478,0-2.445,0.97-2.445,2.245c0,1.248,0.939,2.247,2.388,2.247h0.029
		c1.507,0,2.444-0.999,2.444-2.247C10.483,6.826,9.575,5.856,8.096,5.856z M5.907,25.116h4.32V12.121h-4.32V25.116z"/>
</g>
<g id="Twitter" display="none">
	<circle display="inline" fill="#E09128" cx="15.5" cy="15.5" r="15"/>
	<circle display="inline" fill="#3FAAE1" cx="15.5" cy="15.5" r="15"/>
	<g display="inline">
		<path fill="#FFFFFF" d="M24.465,14.623c1.268-0.104,2.129-0.681,2.459-1.464c-0.457,0.281-1.877,0.588-2.662,0.296
			c-0.039-0.184-0.082-0.359-0.123-0.518c-0.6-2.195-2.645-3.963-4.791-3.75c0.174-0.07,0.354-0.135,0.525-0.194
			c0.236-0.084,1.621-0.31,1.404-0.799c-0.186-0.43-1.877,0.325-2.195,0.424c0.42-0.158,1.117-0.43,1.191-0.914
			c-0.646,0.088-1.277,0.393-1.768,0.836c0.178-0.189,0.312-0.421,0.34-0.67c-1.721,1.097-2.725,3.311-3.538,5.459
			c-0.638-0.619-1.204-1.106-1.711-1.376c-1.423-0.764-3.125-1.56-5.796-2.551c-0.082,0.883,0.437,2.059,1.933,2.84
			c-0.323-0.042-0.916,0.054-1.39,0.168c0.193,1.012,0.823,1.847,2.53,2.25c-0.78,0.052-1.183,0.229-1.549,0.61
			c0.356,0.705,1.222,1.535,2.782,1.363c-1.734,0.747-0.708,2.133,0.704,1.926c-2.406,2.484-6.2,2.303-8.379,0.223
			c5.688,7.753,18.052,4.586,19.895-2.88c1.381,0.013,2.19-0.478,2.694-1.018C26.229,15.018,25.076,14.878,24.465,14.623"/>
	</g>
</g>
<g id="Skype_1_" display="none">
	<circle display="inline" fill="#E09128" cx="15.5" cy="15.5" r="15"/>
	<circle display="inline" fill="#6C6C6C" cx="15.5" cy="15.5" r="15"/>
	<path id="Skype_2_" display="inline" fill="#FFFFFF" d="M23.678,16.742c0.066-0.409,0.1-0.829,0.1-1.256
		c0-4.446-3.604-8.05-8.047-8.05c-0.427,0-0.847,0.035-1.256,0.099c-0.742-0.458-1.617-0.724-2.554-0.724
		c-2.687,0-4.864,2.178-4.864,4.864c0,0.938,0.266,1.812,0.724,2.555c-0.063,0.41-0.098,0.827-0.098,1.256
		c0,4.446,3.604,8.048,8.049,8.048c0.426,0,0.848-0.033,1.255-0.099c0.742,0.459,1.617,0.726,2.556,0.726
		c2.688,0,4.862-2.179,4.862-4.865C24.402,18.357,24.137,17.484,23.678,16.742z M19.549,19.146c-0.34,0.49-0.84,0.873-1.494,1.146
		c-0.654,0.275-1.428,0.414-2.322,0.414c-1.071,0-1.958-0.188-2.658-0.564c-0.497-0.271-0.9-0.637-1.211-1.088
		c-0.311-0.455-0.468-0.898-0.468-1.332c0-0.257,0.098-0.479,0.287-0.66c0.192-0.184,0.439-0.272,0.73-0.272
		c0.239,0,0.444,0.071,0.611,0.214c0.166,0.143,0.305,0.35,0.418,0.623c0.136,0.316,0.284,0.581,0.442,0.793
		c0.156,0.208,0.377,0.383,0.662,0.52c0.282,0.138,0.658,0.205,1.128,0.205c0.643,0,1.162-0.14,1.561-0.414
		c0.4-0.275,0.594-0.612,0.594-1.021c0-0.323-0.104-0.583-0.314-0.784c-0.215-0.203-0.49-0.357-0.834-0.466
		c-0.346-0.11-0.809-0.226-1.389-0.349c-0.779-0.169-1.43-0.367-1.958-0.594c-0.528-0.229-0.949-0.54-1.26-0.935
		c-0.312-0.397-0.469-0.892-0.469-1.478c0-0.558,0.165-1.057,0.494-1.492c0.329-0.436,0.805-0.769,1.426-1.001
		c0.619-0.232,1.347-0.348,2.181-0.348c0.668,0,1.242,0.077,1.73,0.23c0.488,0.155,0.896,0.359,1.219,0.615s0.561,0.525,0.713,0.809
		c0.146,0.284,0.225,0.561,0.225,0.832c0,0.251-0.098,0.479-0.285,0.68c-0.189,0.201-0.434,0.302-0.719,0.301
		c-0.256,0-0.457-0.059-0.596-0.184c-0.137-0.121-0.277-0.313-0.434-0.581c-0.191-0.375-0.428-0.666-0.697-0.875
		c-0.266-0.205-0.699-0.312-1.305-0.31c-0.56,0-1.009,0.115-1.347,0.338c-0.341,0.228-0.503,0.492-0.504,0.801
		c0.001,0.194,0.056,0.357,0.168,0.497c0.114,0.142,0.272,0.264,0.476,0.367c0.204,0.104,0.411,0.185,0.62,0.243
		c0.211,0.06,0.56,0.146,1.046,0.261c0.608,0.131,1.162,0.278,1.657,0.438c0.496,0.161,0.92,0.355,1.271,0.586
		c0.353,0.23,0.629,0.524,0.824,0.878c0.196,0.354,0.297,0.789,0.297,1.301C20.062,18.104,19.891,18.656,19.549,19.146z"/>
</g>
<g id="Opinion_1_">
	<circle fill="#DC582A" cx="15.5" cy="15.5" r="15"/>
</g>
<g>
	<path fill="#FFFFFF" d="M22.167,13.964c-0.165,0.13-0.306,0.265-0.442,0.4v7.363c0,0.842-0.687,1.527-1.529,1.527H9.057
		c-0.843,0-1.528-0.686-1.528-1.527V10.589c0-0.843,0.686-1.529,1.528-1.529h7.246c0.157-0.171,0.316-0.336,0.479-0.483L15.58,7.56
		H9.057c-1.67,0-3.028,1.359-3.028,3.029v11.138c0,1.67,1.358,3.028,3.028,3.028h11.138c1.671,0,3.029-1.358,3.029-3.028v-6.339
		L22.167,13.964z"/>
	<path fill="#FFFFFF" d="M20.428,19.934c0,0-3.759-4.566,2.075-7.894l2.47,3.322V6.245h-8.752l2.906,2.459
		c0,0-4.133,1.737-3.084,6.705C16.887,19.41,20.428,19.934,20.428,19.934z"/>
</g>
</svg>
