<?xml version="1.0" encoding="utf-8"?>
<!-- Generator: Adobe Illustrator 23.0.6, SVG Export Plug-In . SVG Version: 6.00 Build 0)  -->
<svg version="1.1" id="Capa_1" xmlns="http://www.w3.org/2000/svg" xmlns:xlink="http://www.w3.org/1999/xlink" x="0px" y="0px"
	 viewBox="0 0 100 100" style="enable-background:new 0 0 100 100;" xml:space="preserve">
<style type="text/css">
	.st0{fill:#75B443;}
	.st1{fill:#DC522A;}
	.st2{fill:#00BDF2;}
</style>
<g>
	<g>
		<path class="st0" d="M2.5,55.2c0-9.8,0-19.6,0-29.4c0-2,0.8-3.7,2.2-5.1c1.6-1.7,3.6-2.4,5.9-2.4c7.8,0,15.7,0,23.5,0
			c5.5,0,11.1,0,16.6,0c1.5,0,2.7,0.4,3.7,1.5c0.8,0.9,1.7,1.6,2.5,2.6c2,2.4,0.5,5.3-1.6,6.1c-0.6,0.2-1.2,0.3-1.7,0.3
			c-6.3,0-12.6,0-18.8,0c-4.2,0-8.4,0-12.6,0c-2.9,0-5.8,0-8.6,0c-0.6,0-0.6,0-0.6,0.6c0,11.7,0,23.4,0,35.1c0,5.6,0,11.2,0,16.8
			c0,0.4,0.2,0.4,0.5,0.4c10.3,0,20.7,0,31,0c7,0,13.9,0,20.9,0c0.6,0,0.6,0,0.6-0.6c0-6.6,0-13.2,0-19.9c0-1.5,0-2.9,0-4.4
			c0-1.5,0.5-2.7,1.6-3.7c0.9-0.8,1.7-1.7,2.7-2.5c1.1-0.9,2.5-1.1,3.9-0.5c1.3,0.6,2.2,1.6,2.3,3.1c0.1,1.1,0.1,2.1,0.1,3.2
			c0,9.1,0,18.2,0,27.3c0,1.6-0.2,3.1-1.1,4.5c-0.9,1.5-2.2,2.6-3.8,3.3c-1.5,0.7-3.1,0.6-4.7,0.6c-0.4,0-0.7,0-1.1,0
			c-3.3,0-6.6,0-9.9,0c-3.4,0-6.9,0-10.3,0c-3.7,0-7.4,0-11.2,0c-3.1,0-6.2,0-9.2,0c-2.1,0-4.3,0-6.4,0c-2.7,0-5.4,0-8.1,0
			c-1.6,0-3-0.3-4.4-1.2c-2.3-1.5-3.7-3.5-3.7-6.3c-0.1-9.5,0-19,0-28.5C2.5,55.9,2.5,55.5,2.5,55.2C2.5,55.2,2.5,55.2,2.5,55.2z"/>
		<path class="st0" d="M76.4,19.6c-0.2,0-0.3,0-0.5,0c-3.7,0.1-7.4,0.1-11.1,0.2c-1.7,0-3.3-1.3-3.8-2.8c-0.2-0.6-0.3-1.3-0.3-2
			c-0.1-0.9,0-1.9,0-2.8c0-2.1,1.5-3.9,3.5-4.3c0.4-0.1,0.9-0.1,1.3-0.1c8.5,0,17.1,0,25.6,0c1.6,0,3.1,0.4,4.3,1.5
			c1.1,1,1.8,2.2,1.9,3.6c0.1,1.7,0.1,3.5,0.1,5.2c0,7.2,0,14.5,0,21.7c0,1.6-0.5,2.9-1.7,3.9c-0.8,0.7-1.8,1-2.9,1
			c-1.2,0-2.5,0-3.7-0.1c-1.9-0.2-3.4-1.7-3.6-3.6c-0.1-0.9-0.1-1.9-0.1-2.8c0.1-3,0.2-6,0.3-9c0-0.1,0-0.1-0.1-0.2
			c-0.1,0-0.2,0.1-0.2,0.1C80.4,34,75.4,39.1,70.3,44.2c-4.9,5-9.8,9.9-14.8,14.9c-3.5,3.5-7,7-10.5,10.6c-1,1-2.2,1.5-3.6,1.3
			c-0.9-0.1-1.7-0.6-2.3-1.2c-1.2-1.2-2.4-2.5-3.7-3.7c-1.7-1.6-1.6-4.2,0-5.8c6.9-6.8,13.8-13.6,20.7-20.5
			c6.6-6.5,13.1-13.1,19.7-19.6c0.2-0.2,0.4-0.3,0.6-0.5C76.4,19.7,76.4,19.6,76.4,19.6z"/>
	</g>
</g>
<g>
	<g>
		<path class="st1" d="M200-126.4c0-9.8,0-19.6,0-29.4c0-2,0.8-3.7,2.2-5.1c1.6-1.7,3.6-2.4,5.9-2.4c7.8,0,15.7,0,23.5,0
			c5.5,0,11.1,0,16.6,0c1.5,0,2.7,0.4,3.7,1.5c0.8,0.9,1.7,1.6,2.5,2.6c2,2.4,0.5,5.3-1.6,6.1c-0.6,0.2-1.2,0.3-1.7,0.3
			c-6.3,0-12.6,0-18.8,0c-4.2,0-8.4,0-12.6,0c-2.9,0-5.8,0-8.6,0c-0.6,0-0.6,0-0.6,0.6c0,11.7,0,23.4,0,35.1c0,5.6,0,11.2,0,16.8
			c0,0.4,0.2,0.4,0.5,0.4c10.3,0,20.7,0,31,0c7,0,13.9,0,20.9,0c0.6,0,0.6,0,0.6-0.6c0-6.6,0-13.2,0-19.9c0-1.5,0-2.9,0-4.4
			c0-1.5,0.5-2.7,1.6-3.7c0.9-0.8,1.7-1.7,2.7-2.5c1.1-0.9,2.5-1.1,3.9-0.5c1.3,0.6,2.2,1.6,2.3,3.1c0.1,1.1,0.1,2.1,0.1,3.2
			c0,9.1,0,18.2,0,27.3c0,1.6-0.2,3.1-1.1,4.5c-0.9,1.5-2.2,2.6-3.8,3.3c-1.5,0.7-3.1,0.6-4.7,0.6c-0.4,0-0.7,0-1.1,0
			c-3.3,0-6.6,0-9.9,0c-3.4,0-6.9,0-10.3,0c-3.7,0-7.4,0-11.2,0c-3.1,0-6.2,0-9.2,0c-2.1,0-4.3,0-6.4,0c-2.7,0-5.4,0-8.1,0
			c-1.6,0-3-0.3-4.4-1.2c-2.3-1.5-3.7-3.5-3.7-6.3c-0.1-9.5,0-19,0-28.5C200-125.8,200-126.1,200-126.4
			C200-126.4,200-126.4,200-126.4z"/>
		<path class="st1" d="M273.9-162.1c-0.2,0-0.3,0-0.5,0c-3.7,0.1-7.4,0.1-11.1,0.2c-1.7,0-3.3-1.3-3.8-2.8c-0.2-0.6-0.3-1.3-0.3-2
			c-0.1-0.9,0-1.9,0-2.8c0-2.1,1.5-3.9,3.5-4.3c0.4-0.1,0.9-0.1,1.3-0.1c8.5,0,17.1,0,25.6,0c1.6,0,3.1,0.4,4.3,1.5
			c1.1,1,1.8,2.2,1.9,3.6c0.1,1.7,0.1,3.5,0.1,5.2c0,7.2,0,14.5,0,21.7c0,1.6-0.5,2.9-1.7,3.9c-0.8,0.7-1.8,1-2.9,1
			c-1.2,0-2.5,0-3.7-0.1c-1.9-0.2-3.4-1.7-3.6-3.6c-0.1-0.9-0.1-1.9-0.1-2.8c0.1-3,0.2-6,0.3-9c0-0.1,0-0.1-0.1-0.2
			c-0.1,0-0.2,0.1-0.2,0.1c-5.1,5.1-10.1,10.2-15.2,15.3c-4.9,5-9.8,9.9-14.8,14.9c-3.5,3.5-7,7-10.5,10.6c-1,1-2.2,1.5-3.6,1.3
			c-0.9-0.1-1.7-0.6-2.3-1.2c-1.2-1.2-2.4-2.5-3.7-3.7c-1.7-1.6-1.6-4.2,0-5.8c6.9-6.8,13.8-13.6,20.7-20.5
			c6.6-6.5,13.1-13.1,19.7-19.6c0.2-0.2,0.4-0.3,0.6-0.5C274-162,273.9-162,273.9-162.1z"/>
	</g>
</g>
<g>
	<g>
		<path class="st2" d="M200-19.1c0-9.8,0-19.6,0-29.4c0-2,0.8-3.7,2.2-5.1c1.6-1.7,3.6-2.4,5.9-2.4c7.8,0,15.7,0,23.5,0
			c5.5,0,11.1,0,16.6,0c1.5,0,2.7,0.4,3.7,1.5c0.8,0.9,1.7,1.6,2.5,2.6c2,2.4,0.5,5.3-1.6,6.1c-0.6,0.2-1.2,0.3-1.7,0.3
			c-6.3,0-12.6,0-18.8,0c-4.2,0-8.4,0-12.6,0c-2.9,0-5.8,0-8.6,0c-0.6,0-0.6,0-0.6,0.6c0,11.7,0,23.4,0,35.1c0,5.6,0,11.2,0,16.8
			c0,0.4,0.2,0.4,0.5,0.4c10.3,0,20.7,0,31,0c7,0,13.9,0,20.9,0c0.6,0,0.6,0,0.6-0.6c0-6.6,0-13.2,0-19.9c0-1.5,0-2.9,0-4.4
			c0-1.5,0.5-2.7,1.6-3.7c0.9-0.8,1.7-1.7,2.7-2.5c1.1-0.9,2.5-1.1,3.9-0.5c1.3,0.6,2.2,1.6,2.3,3.1c0.1,1.1,0.1,2.1,0.1,3.2
			c0,9.1,0,18.2,0,27.3c0,1.6-0.2,3.1-1.1,4.5c-0.9,1.5-2.2,2.6-3.8,3.3c-1.5,0.7-3.1,0.6-4.7,0.6c-0.4,0-0.7,0-1.1,0
			c-3.3,0-6.6,0-9.9,0c-3.4,0-6.9,0-10.3,0c-3.7,0-7.4,0-11.2,0c-3.1,0-6.2,0-9.2,0c-2.1,0-4.3,0-6.4,0c-2.7,0-5.4,0-8.1,0
			c-1.6,0-3-0.3-4.4-1.2c-2.3-1.5-3.7-3.5-3.7-6.3c-0.1-9.5,0-19,0-28.5C200-18.5,200-18.8,200-19.1C200-19.1,200-19.1,200-19.1z"/>
		<path class="st2" d="M273.9-54.8c-0.2,0-0.3,0-0.5,0c-3.7,0.1-7.4,0.1-11.1,0.2c-1.7,0-3.3-1.3-3.8-2.8c-0.2-0.6-0.3-1.3-0.3-2
			c-0.1-0.9,0-1.9,0-2.8c0-2.1,1.5-3.9,3.5-4.3c0.4-0.1,0.9-0.1,1.3-0.1c8.5,0,17.1,0,25.6,0c1.6,0,3.1,0.4,4.3,1.5
			c1.1,1,1.8,2.2,1.9,3.6c0.1,1.7,0.1,3.5,0.1,5.2c0,7.2,0,14.5,0,21.7c0,1.6-0.5,2.9-1.7,3.9c-0.8,0.7-1.8,1-2.9,1
			c-1.2,0-2.5,0-3.7-0.1c-1.9-0.2-3.4-1.7-3.6-3.6c-0.1-0.9-0.1-1.9-0.1-2.8c0.1-3,0.2-6,0.3-9c0-0.1,0-0.1-0.1-0.2
			c-0.1,0-0.2,0.1-0.2,0.1c-5.1,5.1-10.1,10.2-15.2,15.3c-4.9,5-9.8,9.9-14.8,14.9c-3.5,3.5-7,7-10.5,10.6c-1,1-2.2,1.5-3.6,1.3
			c-0.9-0.1-1.7-0.6-2.3-1.2c-1.2-1.2-2.4-2.5-3.7-3.7c-1.7-1.6-1.6-4.2,0-5.8c6.9-6.8,13.8-13.6,20.7-20.5
			c6.6-6.5,13.1-13.1,19.7-19.6c0.2-0.2,0.4-0.3,0.6-0.5C274-54.7,273.9-54.7,273.9-54.8z"/>
	</g>
</g>
</svg>
