<?xml version="1.0" encoding="utf-8"?>
<!-- Generator: Adobe Illustrator 23.0.6, SVG Export Plug-In . SVG Version: 6.00 Build 0)  -->
<svg version="1.1" id="Capa_1" xmlns="http://www.w3.org/2000/svg" xmlns:xlink="http://www.w3.org/1999/xlink" x="0px" y="0px"
	 viewBox="0 0 100 100" style="enable-background:new 0 0 100 100;" xml:space="preserve">
<style type="text/css">
	.st0{fill:#DC522A;}
</style>
<g>
	<g>
		<path class="st0" d="M11.3,58.8C5,56.9,2.8,52.5,3,46.4C3.2,37.3,3,28.2,3,19.1C3,11.6,7.1,7.6,14.6,7.6c16.2,0,32.4,0,48.6,0
			c7.3,0,11.4,4.1,11.4,11.4c0,9.6,0,19.1,0,28.7c0,7-4.1,11.2-11.1,11.2C52.9,59,42.3,59,31.8,59c-1.8,0-3.1,0.5-4.3,1.8
			c-3,3.2-6.1,6.2-9.1,9.3c-1.3,1.3-2.7,2.1-4.6,1.4c-1.9-0.8-2.6-2.3-2.5-4.3C11.3,64.4,11.3,61.7,11.3,58.8z M32,26.3
			c1.5,0.3,3-0.1,4.1-2.1c0.5-0.8,2.5-1.4,3.6-1.2c1,0.2,2.2,1.5,2.5,2.5c0.9,2.7-0.5,4.8-2.6,6.6c-1.5,1.2-3,2.3-4.1,3.8
			c-0.7,0.9-0.9,2.5-0.8,3.6c0,0.4,2,0.6,3,0.7c0.8,0.1,1.7,0.2,2.4,0c0.6-0.2,1.4-0.7,1.5-1.2c0.4-2.2,2-3.3,3.6-4.4
			c3.8-2.5,5.2-6.1,4.2-10.4c-0.8-3.7-4.1-6.5-8.3-6.9c-4.7-0.4-9.3-0.3-12.2,4.3C27.1,25,27.8,26.2,32,26.3z M38.1,43.4
			c-3.5,0-3.7,0.2-3.7,2.9c0,2.7,0.3,2.9,3.7,2.9c0.4,0,0.8,0,1.2,0c1.6,0.1,2.3-0.6,2.4-2.3C41.8,43.8,41.5,43.4,38.1,43.4z"/>
		<path class="st0" d="M33.4,66.1c0,1.1,0,2.3,0,3.4c0,3.9,0.9,4.8,4.7,4.8c11.5,0,22.9,0,34.4,0.1c1.2,0,2.7,0.7,3.6,1.5
			c2.1,1.8,3.9,4,6.4,5.8c0-2.4,0-4.7,0-7.3c1.9,0,3.5,0.1,5,0c2.1-0.1,3.4-1.2,3.4-3.4c0-10.1,0-20.3,0-30.4c0-2.3-1.1-3.4-3.5-3.4
			c-1.8-0.1-3.6,0-5.6,0c0-2.4,0-3.6,0-6.5c3.6,0,6.5,0,9.5,0.1c4.7,0.3,6.7,5.1,6.7,9.8c0.1,10.1,0.1,20.1,0,30.2
			c0,4.8-2.4,8.2-6.8,10.1c-0.6,0.3-1.2,1.2-1.3,1.9c-0.2,2.4-0.1,4.7-0.1,7.1c0,1.8-0.7,3.2-2.3,3.9c-1.7,0.8-3.2,0.2-4.5-1
			c-3.3-3.3-6.5-6.7-9.9-9.8c-0.9-0.8-2.4-1.5-3.6-1.5c-10.9-0.1-21.8,0-32.6-0.1c-5,0-9-3-10.1-7.7c-0.2-0.9,0.2-2.3,0.8-3
			c1.5-1.8,3.4-3.4,5.1-5C32.8,65.8,33.1,66,33.4,66.1z"/>
	</g>
</g>
</svg>
