<?xml version="1.0" encoding="utf-8"?>
<!-- Generator: Adobe Illustrator 23.0.6, SVG Export Plug-In . SVG Version: 6.00 Build 0)  -->
<svg version="1.1" id="Capa_1" xmlns="http://www.w3.org/2000/svg" xmlns:xlink="http://www.w3.org/1999/xlink" x="0px" y="0px"
	 viewBox="0 0 100 100" style="enable-background:new 0 0 100 100;" xml:space="preserve">
<style type="text/css">
	.st0{fill:#00BDF2;}
</style>
<g>
	<g>
		<path class="st0" d="M44.5,50c0,9,0,18,0,27c0,1-0.2,2-0.7,2.8c-1.3,2.1-4.1,2.3-6,0.5c-1.6-1.5-3.1-3.1-4.7-4.6
			c-3.1-3.1-6.1-6.1-9.2-9.2c-0.5-0.5-1.1-0.8-1.8-0.8c-5.1,0-10.2,0-15.2,0c-2.9,0-4.4-1.5-4.4-4.4c0-7.5,0-15.1,0-22.6
			c0-3,1.4-4.4,4.4-4.4c5,0,10.1,0,15.1,0c0.8,0,1.4-0.2,1.9-0.8c4.5-4.5,8.9-9,13.4-13.5c1.7-1.7,3.4-2,5.1-1.1
			c1.1,0.6,1.8,1.6,1.9,2.8c0,0.6,0.1,1.2,0.1,1.7C44.5,32.4,44.5,41.2,44.5,50z M36.8,31.7c-0.4,0.4-0.7,0.6-1,0.9
			c-2.9,2.9-5.8,5.8-8.7,8.7c-0.5,0.5-0.9,0.7-1.6,0.7c-4.7,0-9.5,0-14.2,0c-0.9,0-1.2,0.2-1.2,1.1c0,4.6,0,9.3,0,13.9
			c0,0.9,0.2,1.2,1.1,1.2c4.8,0,9.5,0,14.3,0c0.5,0,1.1,0.3,1.5,0.6c2.9,2.9,5.8,5.8,8.7,8.7c0.3,0.3,0.5,0.5,1,0.9
			C36.8,56.1,36.8,44,36.8,31.7z"/>
		<path class="st0" d="M97.5,50c-0.3,10.9-3.7,20.6-10.4,29.1c-3,3.8-6.6,7-10.6,9.6c-1.9,1.2-4.2,0.9-5.5-0.9c-1.2-1.7-0.9-4,1-5.3
			c3-2.1,5.7-4.4,8.1-7.1c4.7-5.4,7.8-11.7,8.9-18.8c0.4-2.6,0.7-5.3,0.6-7.9c-0.3-8.9-3.4-16.8-9.2-23.7c-2.3-2.7-4.9-5-7.8-7
			c-0.9-0.6-1.6-1.3-2-2.4c-0.4-1.4,0.1-3.2,1.2-4.1c1.4-1.1,3.2-1.3,4.6-0.3c2.2,1.7,4.5,3.3,6.6,5.2c7.2,6.8,11.7,15.1,13.6,24.9
			C97,44.1,97.2,47.1,97.5,50z"/>
		<path class="st0" d="M81.6,49.5c-0.4,11.2-4.8,19.7-13.7,25.7c-2.1,1.4-4.5,1.1-5.7-0.8c-1.3-1.9-0.7-4.2,1.4-5.6
			c3.4-2.2,6.1-5.2,7.9-8.8c5-10,1.9-22.2-7.4-28.5c-1.2-0.8-2.3-1.6-2.5-3.2c-0.1-1.6,0.4-2.9,1.8-3.8c1.4-0.8,2.8-0.8,4.1,0.1
			c7.3,4.7,11.8,11.3,13.5,19.7C81.3,46.2,81.4,48.1,81.6,49.5z"/>
		<path class="st0" d="M56.4,63.1c-1.7-0.1-3.2-1.1-3.7-2.6c-0.5-1.7,0-3.3,1.3-4.4c0.9-0.7,1.9-1.3,2.5-2.2
			c2.3-3.1,1.6-7.2-1.6-9.5c-0.4-0.3-0.9-0.6-1.3-1c-1.4-1.3-1.6-3.5-0.4-5c1.2-1.5,3.4-2,5-1c4.7,2.8,7.4,7,7.4,12.5
			c0,5.6-2.7,9.8-7.5,12.6C57.6,62.9,56.9,63,56.4,63.1z"/>
	</g>
</g>
</svg>
