<?xml version="1.0" encoding="UTF-8" standalone="no"?>
<!-- Created with Inkscape (http://www.inkscape.org/) -->

<svg
   xmlns:dc="http://purl.org/dc/elements/1.1/"
   xmlns:cc="http://creativecommons.org/ns#"
   xmlns:rdf="http://www.w3.org/1999/02/22-rdf-syntax-ns#"
   xmlns:svg="http://www.w3.org/2000/svg"
   xmlns="http://www.w3.org/2000/svg"
   xmlns:sodipodi="http://sodipodi.sourceforge.net/DTD/sodipodi-0.dtd"
   xmlns:inkscape="http://www.inkscape.org/namespaces/inkscape"
   id="svg5178"
   version="1.1"
   inkscape:version="0.48.4 r9939"
   width="30"
   height="30"
   sodipodi:docname="pent-2.png">
  <metadata
     id="metadata5184">
    <rdf:RDF>
      <cc:Work
         rdf:about="">
        <dc:format>image/svg+xml</dc:format>
        <dc:type
           rdf:resource="http://purl.org/dc/dcmitype/StillImage" />
        <dc:title></dc:title>
      </cc:Work>
    </rdf:RDF>
  </metadata>
  <defs
     id="defs5182" />
  <sodipodi:namedview
     pagecolor="#ffffff"
     bordercolor="#666666"
     borderopacity="1"
     objecttolerance="10"
     gridtolerance="10"
     guidetolerance="10"
     inkscape:pageopacity="0"
     inkscape:pageshadow="2"
     inkscape:window-width="1366"
     inkscape:window-height="705"
     id="namedview5180"
     showgrid="false"
     inkscape:zoom="10.672566"
     inkscape:cx="24.905541"
     inkscape:cy="14.197928"
     inkscape:window-x="-8"
     inkscape:window-y="-8"
     inkscape:window-maximized="1"
     inkscape:current-layer="svg5178"
     inkscape:snap-page="true"
     inkscape:snap-grids="true"
     inkscape:snap-object-midpoints="false"
     inkscape:snap-center="true"
     fit-margin-top="0"
     fit-margin-left="0"
     fit-margin-right="0"
     fit-margin-bottom="0">
    <sodipodi:guide
       position="110.9021,-28.891609"
       orientation="-38,0"
       id="guide6085" />
    <sodipodi:guide
       position="0,0"
       orientation="0,30"
       id="guide6091" />
    <sodipodi:guide
       position="30,0"
       orientation="-6.9473681,0"
       id="guide6093" />
    <sodipodi:guide
       position="0,6.9473681"
       orientation="6.9473681,0"
       id="guide6097" />
  </sodipodi:namedview>
  <path
     style="fill:#fe9800"
     d="m -1.75e-7,15 0,-3.473684 2.684211075,0 2.68421,0 0,0.631579 0,0.631578 0.6315789,0 0.631579,0 0,0.789474 0,0.789474 -0.631579,0 -0.6315789,0 0,0.789474 0,0.789473 -1.894737,0 -1.894736,0 0,1.263158 0,1.263158 -0.78947407,0 -0.789474005,0 0,-3.473684 z m 5.052631975,-1.421053 0,-0.473684 -1.736842,0 -1.7368419,0 0,0.473684 0,0.473684 1.7368419,0 1.736842,0 0,-0.473684 z m 4.1052631,4.263158 0,-0.631579 -0.789474,0 -0.7894731,0 0,-2.210526 0,-2.210527 0.7894731,0 0.789474,0 0,-0.631578 0,-0.631579 2.6842111,0 2.684211,0 0,0.789473 0,0.789474 -2.526316,0 -2.5263171,0 0,0.473684 0,0.473684 2.5263171,0 2.526316,0 0,0.947369 0,0.947368 -2.526316,0 -2.5263171,0 0,0.473684 0,0.473685 2.5263171,0 2.526316,0 0,0.789473 0,0.789474 -2.684211,0 -2.6842111,0 0,-0.631579 z M 15.473685,15 l 0,-3.473684 0.789474,0 0.789474,0 0,0.631579 0,0.631578 0.631579,0 0.631579,0 0,0.631579 0,0.631579 0.789473,0 0.789474,0 0,0.789474 0,0.789474 0.473683,0 0.473684,0 0,-2.052632 0,-2.052631 0.789474,0 0.789474,0 0,3.473684 0,3.473684 -0.789474,0 -0.789474,0 0,-0.631579 0,-0.631579 -0.631579,0 -0.631577,0 0,-0.631579 0,-0.631579 -0.789474,0 -0.789474,0 0,-0.789473 0,-0.789474 -0.473684,0 -0.473684,0 0,2.052631 0,2.052632 -0.789474,0 -0.789474,0 0,-3.473684 z m 10.421052,0.789473 0,-2.68421 -1.263158,0 -1.263158,0 0,-0.789474 0,-0.789473 3.31579,0 3.315789,0 0,0.789473 0,0.789474 -1.263158,0 -1.263158,0 0,2.68421 0,2.684211 -0.789473,0 -0.789474,0 0,-2.684211 z"
     id="path6081"
     inkscape:connector-curvature="0" />
</svg>
