<?xml version="1.0" encoding="utf-8"?>
<!-- Generator: Adobe Illustrator 23.0.6, SVG Export Plug-In . SVG Version: 6.00 Build 0)  -->
<svg version="1.1" id="Capa_1" xmlns="http://www.w3.org/2000/svg" xmlns:xlink="http://www.w3.org/1999/xlink" x="0px" y="0px"
	 viewBox="0 0 100 100" style="enable-background:new 0 0 100 100;" xml:space="preserve">
<style type="text/css">
	.st0{fill:#DC522A;}
</style>
<g>
	<g>
		<path class="st0" d="M35.7,88c-7,0-14,0-21,0c-2.4,0-4.8,0-7.3,0c-1.7,0-3-0.6-4-1.9c-0.8-0.9-1-2.1-1-3.2c0-4.9,0-9.8,0-14.7
			c0-7.4,0-14.9,0-22.3c0-1.9,0-3.9,0-5.8c0-1.6,0.9-2.8,2.2-3.6c0.8-0.5,1.8-0.7,2.7-0.7c12.3,0,24.6,0,36.9,0c6.5,0,13.1,0,19.6,0
			c2.4,0,4.2,1.3,4.9,3.6c0.1,0.4,0.1,0.9,0.1,1.4c0,13.9,0,27.9,0,41.8c0,1-0.1,2.1-0.6,3c-0.6,1-1.4,1.7-2.5,2.2
			c-0.6,0.3-1.3,0.3-2,0.3c-2.8,0-5.7,0-8.5,0c-2.2,0-4.5,0-6.7,0c-2.5,0-5,0-7.5,0C39.4,88,37.5,88,35.7,88
			C35.7,88,35.7,88,35.7,88z M21.4,64.2c-0.2,0.2-0.3,0.3-0.4,0.5c-3,3-5.9,5.9-8.9,8.9c-0.1,0.1-0.2,0.4-0.2,0.6c0,1.4,0,2.7,0,4.1
			c0,0.3,0.1,0.4,0.4,0.4c1.7,0,3.3,0,5,0c4.6,0,9.2,0,13.7,0c5.1,0,10.1,0,15.2,0c2.7,0,5.4,0,8.1,0c1.6,0,3.2,0,4.8,0
			c0.3,0,0.5-0.1,0.4-0.4c0-0.3,0-0.7,0-1c0-4.2,0-8.4,0-12.6c0-0.2-0.1-0.4-0.2-0.6c-0.7-0.7-1.3-1.3-2-2
			c-3.9-3.9-7.8-7.9-11.8-11.8c-0.1-0.1-0.2-0.1-0.4-0.3c-6.3,6.3-12.6,12.7-19,19C24.6,67.4,23,65.8,21.4,64.2z M16.6,54.8
			c2.3,0.1,4.8-1.7,4.8-4.7c0.1-2.9-2.2-4.8-4.6-4.9c-2.4-0.1-4.9,1.8-4.9,4.7C11.9,52.6,13.9,54.7,16.6,54.8z"/>
		<path class="st0" d="M73.8,21.4c-1.8,0-3.5,0-5.2,0c-7.1,0-14.1,0-21.2,0c-0.6,0-1.2,0-1.7,0c-0.4,0-0.5,0.1-0.5,0.5
			c0,2.9,0,5.7,0,8.6c0,0.4-0.1,0.5-0.5,0.5c-5.9,0-11.7,0-17.6,0c-1.7,0-3.4,0-5.1,0c-0.6,0-0.6,0-0.6-0.6c0-4.4,0-8.8,0-13.3
			c0-1.2,0.2-2.3,1-3.2c1-1.3,2.3-1.9,4-1.9c7.6,0,15.2,0,22.7,0c8.1,0,16.1,0,24.2,0c6.4,0,12.7,0,19.1,0c1.6,0,2.9,0.5,4,1.7
			c0.6,0.7,1,1.5,1,2.4c0.1,1.6,0.1,3.3,0.1,4.9c0,2.5,0,5,0,7.4c0,2.6,0,5.3,0,7.9c0,6.5,0,12.9,0,19.4c0,3,0,6-0.1,9.1
			c0,1.3-0.7,2.4-1.7,3.2c-0.9,0.8-2,1-3.2,1c-5.1,0-10.1,0-15.2,0c-1,0-2,0-3,0c-0.3,0-0.4-0.1-0.4-0.4c0-3.6,0-7.2,0-10.8
			c0-3.2,0-6.3,0-9.5c0-3.6,0-7.3,0-10.9c0-4.4,0-8.8,0-13.1C73.8,23.3,73.8,22.4,73.8,21.4z M82.1,40.5
			C82.1,40.5,82.1,40.5,82.1,40.5c0,0.3,0,0.7,0,1c0,0.3,0,0.7,0,1c0,1,0.5,1.5,1.5,1.6c1.4,0,2.8,0,4.2,0c0.9,0,1.5-0.6,1.5-1.5
			c0-1.4,0-2.8,0-4.2c0-0.9-0.6-1.5-1.5-1.5c-1.4,0-2.8,0-4.2,0c-1,0-1.5,0.5-1.5,1.5C82.1,39.1,82.1,39.8,82.1,40.5z M33.3,21.4
			c-0.6,0-1.3,0-1.9,0c-1.1-0.1-1.7,0.6-1.7,1.7c0,1.3,0,2.6,0,4c0,1.1,0.8,1.5,1.5,1.5c1.4,0,2.8,0,4.2,0c0.9,0,1.5-0.6,1.5-1.5
			c0-1.4,0-2.8,0-4.2c0-0.9-0.6-1.5-1.5-1.5C34.7,21.4,34,21.4,33.3,21.4z M82.1,25.1C82.1,25.1,82.1,25.1,82.1,25.1
			c0,0.7,0,1.3,0,2c0,1,0.6,1.6,1.6,1.6c1.3,0,2.7,0,4,0c1,0,1.6-0.6,1.6-1.6c0-1.3,0-2.7,0-4c0-1-0.6-1.6-1.6-1.6
			c-1.3,0-2.6,0-3.9,0c-1,0-1.6,0.5-1.6,1.6C82.1,23.7,82.1,24.4,82.1,25.1z M85.6,59.5c0.7,0,1.4,0,2.1,0c1,0,1.5-0.7,1.5-1.5
			c0-1.4,0-2.8,0-4.1c0-0.9-0.5-1.5-1.6-1.5c-1.4,0-2.7,0-4.1,0c-0.9,0-1.5,0.6-1.5,1.5c0,1.4,0,2.8,0,4.3c0,0.8,0.6,1.4,1.4,1.4
			C84.2,59.5,84.9,59.5,85.6,59.5z"/>
	</g>
</g>
</svg>
