<?xml version="1.0" encoding="utf-8"?>
<!-- Generator: Adobe Illustrator 23.0.6, SVG Export Plug-In . SVG Version: 6.00 Build 0)  -->
<svg version="1.1" id="Capa_1" xmlns="http://www.w3.org/2000/svg" xmlns:xlink="http://www.w3.org/1999/xlink" x="0px" y="0px"
	 viewBox="0 0 100 100" style="enable-background:new 0 0 100 100;" xml:space="preserve">
<style type="text/css">
	.st0{fill:#75B443;}
</style>
<g>
	<g>
		<path class="st0" d="M13.1,28.9c0,17.6,0,35.1,0,52.7c0.2,0,0.4,0,0.6,0c5.3,0,10.7,0,16,0c4.3,0,8.7,0,13,0c7.5,0,15,0,22.5,0
			c0.7,0,0.7,0,0.7-0.7c0-5.3,0-10.5,0-15.8c0-0.8,0.3-1.4,0.8-2c2.1-2.1,4.1-4.2,6.2-6.2c0.9-0.9,1.9-1,2.9-0.3
			c0.6,0.4,0.7,1.1,0.7,1.7c0,2.4,0,4.8,0,7.1c0,3.5,0,7,0,10.6c0,2.6,0,5.1,0,7.7c0,1.9-0.4,3.6-1.6,5.1c-1.7,2.1-3.8,3.3-6.6,3.2
			c-2.5-0.1-5,0-7.6,0c-3.6,0-7.1,0-10.7,0c-3.4,0-6.9,0-10.3,0c-3.1,0-6.2,0-9.2,0c-2.3,0-4.5,0-6.8,0c-3.6,0-7.1,0-10.7,0
			c-1,0-2,0-3,0c-2.5-0.1-4.4-1.3-5.9-3.2c-1.1-1.5-1.6-3.1-1.6-5c0-14.2,0-28.3,0-42.5c0-5.1,0-10.3,0-15.4c0-2.7,1.2-4.8,3.4-6.4
			c1.4-1,3.1-1.5,4.8-1.5c14.7,0,29.3,0,44,0c0.9,0,1.7,0,2.6,0c0.7,0,1.4,0.2,1.9,0.8c0.6,0.7,0.5,1.9-0.2,2.6
			c-2.2,2.2-4.3,4.3-6.5,6.5c-0.5,0.5-1.1,0.7-1.8,0.7c-7.1,0-14.3,0-21.4,0c-5,0-10,0-15,0C13.8,28.9,13.4,28.9,13.1,28.9z"/>
		<path class="st0" d="M32.3,76.4c-1.5,0.1-2.5-0.7-3.1-2c-0.4-0.7-0.2-1.4-0.2-2.2c0.3-2.5,0.6-5.1,0.8-7.6
			c0.2-2.1,0.5-4.3,0.7-6.4c0.1-0.6,0.3-0.9,0.7-1.3c6-6,12-12,18-18c5.7-5.7,11.5-11.5,17.2-17.2c0.9-0.9,1.9-1,2.8,0
			c4.8,4.8,9.5,9.5,14.3,14.3c0.5,0.5,1,1.1,0.7,1.9c-0.1,0.4-0.4,0.7-0.7,1c-3.5,3.6-7.1,7.1-10.6,10.6c-4,4-8,8-12,12.1
			c-4.3,4.2-8.5,8.5-12.8,12.7c-0.4,0.4-0.8,0.4-1.3,0.5c-2.2,0.3-4.4,0.5-6.7,0.7c-1.9,0.2-3.9,0.4-5.8,0.6
			C33.6,76.2,32.9,76.3,32.3,76.4z"/>
		<path class="st0" d="M97.5,22.2c0.1,1.9-0.8,3.5-2.1,4.8c-1.8,1.8-3.5,3.6-5.3,5.4c-0.9,0.9-1.8,0.9-2.7,0
			c-4.8-4.8-9.7-9.7-14.5-14.5c-0.8-0.8-0.8-1.7,0-2.6c1.8-1.9,3.7-3.8,5.6-5.6c1.6-1.5,3.4-2.2,5.6-1.9c1.3,0.2,2.5,0.7,3.5,1.6
			c2.7,2.7,5.5,5.4,8.2,8.2c0.9,0.9,1.5,2.1,1.8,3.3C97.5,21.4,97.5,21.8,97.5,22.2z"/>
	</g>
</g>
</svg>
