<?xml version="1.0" encoding="UTF-8" standalone="no"?>
<!-- Generator: Adobe Illustrator 16.0.0, SVG Export Plug-In . SVG Version: 6.00 Build 0)  -->

<svg
   xmlns:dc="http://purl.org/dc/elements/1.1/"
   xmlns:cc="http://creativecommons.org/ns#"
   xmlns:rdf="http://www.w3.org/1999/02/22-rdf-syntax-ns#"
   xmlns:svg="http://www.w3.org/2000/svg"
   xmlns="http://www.w3.org/2000/svg"
   xmlns:sodipodi="http://sodipodi.sourceforge.net/DTD/sodipodi-0.dtd"
   xmlns:inkscape="http://www.inkscape.org/namespaces/inkscape"
   version="1.1"
   id="Capa_1"
   x="0px"
   y="0px"
   width="30"
   height="150"
   viewBox="0 0 30 150"
   xml:space="preserve"
   inkscape:version="0.48.4 r9939"
   sodipodi:docname="skype.svg"><metadata
   id="metadata3061"><rdf:RDF><cc:Work
       rdf:about=""><dc:format>image/svg+xml</dc:format><dc:type
         rdf:resource="http://purl.org/dc/dcmitype/StillImage" /><dc:title></dc:title></cc:Work></rdf:RDF></metadata><defs
   id="defs3059" /><sodipodi:namedview
   pagecolor="#ffffff"
   bordercolor="#666666"
   borderopacity="1"
   objecttolerance="10"
   gridtolerance="10"
   guidetolerance="10"
   inkscape:pageopacity="0"
   inkscape:pageshadow="2"
   inkscape:window-width="1366"
   inkscape:window-height="705"
   id="namedview3057"
   showgrid="false"
   inkscape:zoom="9.8333333"
   inkscape:cx="-2.3394806"
   inkscape:cy="137.49568"
   inkscape:window-x="-8"
   inkscape:window-y="-8"
   inkscape:window-maximized="1"
   inkscape:current-layer="Capa_1" />
<path
   d="m 19.437161,134.75349 c -0.467686,-0.31287 -1.041149,-0.58238 -1.704176,-0.80082 -0.654924,-0.21561 -1.395358,-0.415 -2.201447,-0.5925 -0.637091,-0.15199 -1.101536,-0.26911 -1.377931,-0.34733 -0.270319,-0.0774 -0.539825,-0.18439 -0.801632,-0.32057 -0.252486,-0.12968 -0.452286,-0.28572 -0.593727,-0.46363 -0.13374,-0.16819 -0.198584,-0.36312 -0.198584,-0.59656 0,-0.38056 0.201826,-0.70194 0.617233,-0.98239 0.430805,-0.29099 1.011563,-0.43811 1.72525,-0.43811 0.768804,0 1.328081,0.13293 1.662838,0.39515 0.344482,0.2695 0.645196,0.65168 0.893629,1.13801 0.213985,0.38015 0.407706,0.64439 0.594132,0.81379 0.20061,0.18196 0.48957,0.27558 0.85837,0.27558 0.405273,0 0.749756,-0.14792 1.022505,-0.43972 0.271129,-0.29017 0.408517,-0.6225 0.408517,-0.98886 0,-0.38016 -0.104969,-0.77408 -0.31125,-1.16922 -0.205069,-0.39068 -0.530504,-0.76759 -0.968606,-1.11937 -0.434453,-0.34975 -0.988058,-0.63385 -1.6446,-0.84419 -0.652491,-0.2087 -1.435075,-0.31449 -2.32384,-0.31449 -1.112477,0 -2.095672,0.15968 -2.92243,0.47378 -0.837296,0.31853 -1.487355,0.78339 -1.932751,1.38075 -0.4490431,0.60184 -0.6764024,1.29972 -0.6764024,2.0738 0,0.81175 0.2168222,1.50316 0.6443854,2.05271 0.421485,0.54266 0.996974,0.9763 1.711066,1.28877 0.698288,0.30517 1.576111,0.57589 2.609964,0.80366 0.759889,0.16332 1.374689,0.31976 1.82738,0.46525 0.433237,0.13942 0.791499,0.34206 1.062628,0.60264 0.258565,0.24965 0.384604,0.56698 0.384604,0.97185 0,0.51186 -0.241543,0.92969 -0.737192,1.27823 -0.507809,0.35664 -1.182589,0.5378 -2.005701,0.5378 -0.598995,0 -1.085323,-0.0896 -1.446422,-0.26504 -0.358668,-0.17508 -0.639928,-0.39799 -0.83527,-0.66425 -0.203041,-0.27721 -0.395952,-0.62777 -0.572246,-1.04399 -0.158057,-0.38136 -0.35421,-0.67761 -0.583595,-0.87741 -0.239922,-0.20872 -0.535366,-0.31409 -0.877012,-0.31409 -0.417026,0 -0.7667784,0.13373 -1.0395271,0.39757 -0.2755862,0.26668 -0.4154063,0.5921 -0.4154063,0.96739 0,0.60061 0.2143905,1.22393 0.6374964,1.85129 0.419053,0.62169 0.97063,1.12544 1.639738,1.49708 0.936183,0.51106 2.135387,0.76962 3.565599,0.76962 1.191099,0 2.238327,-0.18967 3.112097,-0.56293 0.881876,-0.37731 1.562332,-0.90863 2.023127,-1.57894 0.462419,-0.67398 0.697071,-1.44318 0.697071,-2.28697 0,-0.70598 -0.136172,-1.31308 -0.405273,-1.80468 -0.267886,-0.48876 -0.645601,-0.8993 -1.122609,-1.21866 z M 15,120 c -8.2846875,0 -15,6.71563 -15,15 0,8.28469 6.7153125,15 15,15 8.284687,0 15,-6.71531 15,-15 0,-8.28437 -6.715313,-15 -15,-15 z m 4.713964,25.94715 c -0.988059,0 -1.917351,-0.25613 -2.729925,-0.70517 -0.590889,0.1127 -1.200421,0.17224 -1.823732,0.17224 -5.4995662,0 -9.9583896,-4.5877 -9.9583896,-10.24653 0,-0.706 0.069707,-1.39496 0.2018263,-2.06042 -0.5037554,-0.88229 -0.7939314,-1.90884 -0.7939314,-3.00551 0,-3.28151 2.5856471,-5.94213 5.7751527,-5.94213 1.129903,0 2.1824,0.33476 3.072786,0.91187 0.553604,-0.098 1.122608,-0.14995 1.702556,-0.14995 5.500376,0 9.958793,4.5877 9.958793,10.24614 0,0.75461 -0.08024,1.49019 -0.230195,2.1986 0.383795,0.79514 0.600211,1.69121 0.600211,2.63955 -4.06e-4,3.28029 -2.585647,5.94131 -5.775152,5.94131 z"
   id="path3025"
   style="fill:#12a5f4;fill-opacity:1"
   inkscape:connector-curvature="0"
   sodipodi:nodetypes="ccccccscscccscscccsccscccccscsccccscsccsccsccsssssscsscsscssccs" />
<g
   id="g3027"
   transform="translate(0,54)">
</g>
<g
   id="g3029"
   transform="translate(0,54)">
</g>
<g
   id="g3031"
   transform="translate(0,54)">
</g>
<g
   id="g3033"
   transform="translate(0,54)">
</g>
<g
   id="g3035"
   transform="translate(0,54)">
</g>
<g
   id="g3037"
   transform="translate(0,54)">
</g>
<g
   id="g3039"
   transform="translate(0,54)">
</g>
<g
   id="g3041"
   transform="translate(0,54)">
</g>
<g
   id="g3043"
   transform="translate(0,54)">
</g>
<g
   id="g3045"
   transform="translate(0,54)">
</g>
<g
   id="g3047"
   transform="translate(0,54)">
</g>
<g
   id="g3049"
   transform="translate(0,54)">
</g>
<g
   id="g3051"
   transform="translate(0,54)">
</g>
<g
   id="g3053"
   transform="translate(0,54)">
</g>
<g
   id="g3055"
   transform="translate(0,54)">
</g>
<path
   d="m 19.437161,14.75349 c -0.467686,-0.31287 -1.041149,-0.58238 -1.704176,-0.80082 -0.654924,-0.21561 -1.395358,-0.415 -2.201447,-0.5925 -0.637091,-0.15199 -1.101536,-0.26911 -1.377931,-0.34733 -0.270319,-0.0774 -0.539825,-0.18439 -0.801632,-0.32057 -0.252486,-0.12968 -0.452286,-0.28572 -0.593727,-0.46363 -0.13374,-0.16819 -0.198584,-0.36312 -0.198584,-0.59656 0,-0.38056 0.201826,-0.70194 0.617233,-0.98239 0.430805,-0.29099 1.011563,-0.43811 1.72525,-0.43811 0.768804,0 1.328081,0.13293 1.662838,0.39515 0.344482,0.2695 0.645196,0.65168 0.893629,1.13801 0.213985,0.38015 0.407706,0.64439 0.594132,0.81379 0.20061,0.18196 0.48957,0.27558 0.85837,0.27558 0.405273,0 0.749756,-0.14792 1.022505,-0.43972 0.271129,-0.29017 0.408517,-0.6225 0.408517,-0.98886 0,-0.38016 -0.104969,-0.77408 -0.31125,-1.16922 -0.205069,-0.3906797 -0.530504,-0.7675897 -0.968606,-1.1193697 -0.434453,-0.34975 -0.988058,-0.63385 -1.6446,-0.84419 -0.652491,-0.2087 -1.435075,-0.31449 -2.32384,-0.31449 -1.112477,0 -2.095672,0.15968 -2.92243,0.47378 -0.837296,0.31853 -1.487355,0.78339 -1.932751,1.38075 C 9.789617,10.41463 9.562258,11.11251 9.562258,11.88659 c 0,0.81175 0.216822,1.50316 0.644386,2.05271 0.421485,0.54266 0.996974,0.9763 1.711066,1.28877 0.698288,0.30517 1.576111,0.57589 2.609964,0.80366 0.759889,0.16332 1.374689,0.31976 1.82738,0.46525 0.433237,0.13942 0.791499,0.34206 1.062628,0.60264 0.258565,0.24965 0.384604,0.56698 0.384604,0.97185 0,0.51186 -0.241543,0.92969 -0.737192,1.27823 -0.507809,0.35664 -1.182589,0.5378 -2.005701,0.5378 -0.598995,0 -1.085323,-0.0896 -1.446422,-0.26504 -0.358668,-0.17508 -0.639928,-0.39799 -0.83527,-0.66425 -0.203041,-0.27721 -0.395952,-0.62777 -0.572246,-1.04399 -0.158057,-0.38136 -0.35421,-0.67761 -0.583595,-0.87741 -0.239922,-0.20872 -0.535366,-0.31409 -0.877012,-0.31409 -0.417026,0 -0.766779,0.13373 -1.039528,0.39757 -0.275586,0.26668 -0.415406,0.5921 -0.415406,0.96739 0,0.60061 0.214391,1.22393 0.637497,1.85129 0.419053,0.62169 0.97063,1.12544 1.639738,1.49708 0.936183,0.51106 2.135387,0.76962 3.565599,0.76962 1.191099,0 2.238327,-0.18967 3.112097,-0.56293 0.881876,-0.37731 1.562332,-0.90863 2.023127,-1.57894 0.462419,-0.67398 0.697071,-1.44318 0.697071,-2.28697 0,-0.70598 -0.136172,-1.31308 -0.405273,-1.80468 -0.267886,-0.48876 -0.645601,-0.8993 -1.122609,-1.21866 z M 15,3e-7 C 6.715312,3e-7 0,6.7156303 0,15 0,23.28469 6.715312,30 15,30 23.284687,30 30,23.28469 30,15 30,6.7156303 23.284687,3e-7 15,3e-7 z M 19.713964,25.94715 c -0.988059,0 -1.917351,-0.25613 -2.729925,-0.70517 -0.590889,0.1127 -1.200421,0.17224 -1.823732,0.17224 -5.499567,0 -9.95839,-4.5877 -9.95839,-10.24653 0,-0.706 0.06971,-1.39496 0.201826,-2.06042 -0.503755,-0.88229 -0.793931,-1.90884 -0.793931,-3.00551 0,-3.2815097 2.585647,-5.9421297 5.775153,-5.9421297 1.129903,0 2.1824,0.33476 3.072786,0.91187 0.553604,-0.098 1.122608,-0.14995 1.702556,-0.14995 5.500376,0 9.958793,4.5877 9.958793,10.2461397 0,0.75461 -0.08024,1.49019 -0.230195,2.1986 0.383795,0.79514 0.600211,1.69121 0.600211,2.63955 -4.06e-4,3.28029 -2.585647,5.94131 -5.775152,5.94131 z"
   id="path3025-7"
   style="fill:#6d6e6e;fill-opacity:1"
   inkscape:connector-curvature="0"
   sodipodi:nodetypes="ccccccscscccscscccsccscccccscsccccscsccsccsccsssssscsscsscssccs" /></svg>