<?xml version="1.0" encoding="UTF-8" standalone="no"?>
<!-- Generator: Adobe Illustrator 16.0.0, SVG Export Plug-In . SVG Version: 6.00 Build 0)  -->

<svg
   xmlns:dc="http://purl.org/dc/elements/1.1/"
   xmlns:cc="http://creativecommons.org/ns#"
   xmlns:rdf="http://www.w3.org/1999/02/22-rdf-syntax-ns#"
   xmlns:svg="http://www.w3.org/2000/svg"
   xmlns="http://www.w3.org/2000/svg"
   xmlns:sodipodi="http://sodipodi.sourceforge.net/DTD/sodipodi-0.dtd"
   xmlns:inkscape="http://www.inkscape.org/namespaces/inkscape"
   version="1.1"
   id="Capa_1"
   x="0px"
   y="0px"
   width="32"
   height="32"
   viewBox="0 0 32 32"
   xml:space="preserve"
   inkscape:version="0.48.4 r9939"
   sodipodi:docname="skype.svg"><metadata
     id="metadata3061"><rdf:RDF><cc:Work
         rdf:about=""><dc:format>image/svg+xml</dc:format><dc:type
           rdf:resource="http://purl.org/dc/dcmitype/StillImage" /><dc:title></dc:title></cc:Work></rdf:RDF></metadata><defs
     id="defs3059" /><sodipodi:namedview
     pagecolor="#ffffff"
     bordercolor="#666666"
     borderopacity="1"
     objecttolerance="10"
     gridtolerance="10"
     guidetolerance="10"
     inkscape:pageopacity="0"
     inkscape:pageshadow="2"
     inkscape:window-width="1299"
     inkscape:window-height="744"
     id="namedview3057"
     showgrid="false"
     inkscape:zoom="2.4583333"
     inkscape:cx="73.401826"
     inkscape:cy="-22.436932"
     inkscape:window-x="67"
     inkscape:window-y="24"
     inkscape:window-maximized="1"
     inkscape:current-layer="Capa_1"
     showborder="false" /><path
     d="M 20.73297,15.73706 C 20.23411,15.40333 19.62242,15.11585 18.91519,14.88285 18.2166,14.65286 17.4268,14.44018 16.56698,14.25085 15.88741,14.08873 15.392,13.9638 15.09718,13.88036 14.80884,13.79776 14.52137,13.68368 14.24211,13.53842 13.97279,13.4001 13.75967,13.23365 13.6088,13.04388 c -0.14266,-0.1794 -0.21182,-0.38733 -0.21182,-0.63633 0,-0.40593 0.21528,-0.74873 0.65838,-1.04788 0.45952,-0.31039 1.079,-0.46732 1.84027,-0.46732 0.82005,0 1.41662,0.14179 1.77369,0.4215 0.36745,0.28746 0.68821,0.69512 0.9532,1.21387 0.22825,0.4055 0.43489,0.68735 0.63374,0.86805 0.21399,0.19409 0.52221,0.29395 0.9156,0.29395 0.43229,0 0.79974,-0.15778 1.09067,-0.46904 0.28921,-0.30951 0.43575,-0.664 0.43575,-1.05478 0,-0.40551 -0.11196,-0.82569 -0.332,-1.24717 C 21.14754,10.50201 20.80041,10.09997 20.3331,9.72474 19.86969,9.35167 19.27917,9.04863 18.57886,8.82427 17.88287,8.60165 17.04812,8.48881 16.1001,8.48881 c -1.18664,0 -2.23538,0.17033 -3.11726,0.50537 -0.89311,0.33976 -1.58651,0.83561 -2.0616,1.4728 -0.47898,0.64196 -0.72149,1.38636 -0.72149,2.21205 0,0.86587 0.23127,1.60337 0.68734,2.18956 0.44958,0.57883 1.06344,1.04138 1.82514,1.37468 0.74484,0.32552 1.68118,0.61429 2.78396,0.85724 0.81055,0.17421 1.46633,0.34108 1.9492,0.49627 0.46212,0.14871 0.84427,0.36486 1.13347,0.64281 0.27581,0.2663 0.41025,0.60478 0.41025,1.03664 0,0.54599 -0.25765,0.99167 -0.78634,1.36345 -0.54166,0.38042 -1.26143,0.57365 -2.13941,0.57365 -0.63893,0 -1.15768,-0.0956 -1.54286,-0.28271 -0.38257,-0.18675 -0.68258,-0.42452 -0.89095,-0.70853 -0.21658,-0.29569 -0.42235,-0.66962 -0.6104,-1.11359 -0.16859,-0.40678 -0.37782,-0.72278 -0.6225,-0.9359 -0.25591,-0.22264 -0.57105,-0.33503 -0.93548,-0.33503 -0.44482,0 -0.81789,0.14264 -1.10883,0.42407 -0.29395,0.28446 -0.4431,0.63158 -0.4431,1.03189 0,0.64065 0.22869,1.30552 0.68,1.9747 0.44699,0.66314 1.03534,1.20047 1.74905,1.59689 0.9986,0.54513 2.27775,0.82093 3.80331,0.82093 1.27051,0 2.38755,-0.20232 3.31957,-0.60046 0.94067,-0.40246 1.66649,-0.96921 2.158,-1.6842 0.49325,-0.71892 0.74355,-1.5394 0.74355,-2.43944 0,-0.75304 -0.14526,-1.40062 -0.4323,-1.92499 -0.28574,-0.52134 -0.68864,-0.95925 -1.19745,-1.2999 z M 16,0 C 7.163,0 0,7.16334 0,16 0,24.837 7.163,32 16,32 24.837,32 32,24.837 32,16 32,7.16334 24.837,0 16,0 z m 5.02823,27.67696 c -1.05393,0 -2.04517,-0.27321 -2.91192,-0.75218 -0.63028,0.12021 -1.28045,0.18372 -1.94531,0.18372 -5.86621,0 -10.62229,-4.89355 -10.62229,-10.92963 0,-0.75307 0.0744,-1.48796 0.21529,-2.19778 -0.53734,-0.94111 -0.84686,-2.0361 -0.84686,-3.20588 0,-3.50028 2.75802,-6.33827 6.16016,-6.33827 1.20523,0 2.32789,0.35708 3.27764,0.97266 0.59051,-0.10453 1.19745,-0.15995 1.81606,-0.15995 5.86706,0 10.62271,4.89355 10.62271,10.92922 0,0.80492 -0.0856,1.58954 -0.24554,2.34517 0.40938,0.84815 0.64022,1.80396 0.64022,2.81552 -4.3e-4,3.49898 -2.75802,6.3374 -6.16016,6.3374 z"
     id="path3025"
     style="fill:#12a5f4;fill-opacity:1"
     inkscape:connector-curvature="0"
     sodipodi:nodetypes="ccccccscscccscscccsccscccccscsccccscsccsccsccsssssscsscsscssccs" /><g
     id="g3027"
     transform="translate(0,-64)" /><g
     id="g3029"
     transform="translate(0,-64)" /><g
     id="g3031"
     transform="translate(0,-64)" /><g
     id="g3033"
     transform="translate(0,-64)" /><g
     id="g3035"
     transform="translate(0,-64)" /><g
     id="g3037"
     transform="translate(0,-64)" /><g
     id="g3039"
     transform="translate(0,-64)" /><g
     id="g3041"
     transform="translate(0,-64)" /><g
     id="g3043"
     transform="translate(0,-64)" /><g
     id="g3045"
     transform="translate(0,-64)" /><g
     id="g3047"
     transform="translate(0,-64)" /><g
     id="g3049"
     transform="translate(0,-64)" /><g
     id="g3051"
     transform="translate(0,-64)" /><g
     id="g3053"
     transform="translate(0,-64)" /><g
     id="g3055"
     transform="translate(0,-64)" /></svg>