<?xml version="1.0" encoding="UTF-8" standalone="no"?>
<!-- Generator: Adobe Illustrator 16.0.0, SVG Export Plug-In . SVG Version: 6.00 Build 0)  -->

<svg
   xmlns:dc="http://purl.org/dc/elements/1.1/"
   xmlns:cc="http://creativecommons.org/ns#"
   xmlns:rdf="http://www.w3.org/1999/02/22-rdf-syntax-ns#"
   xmlns:svg="http://www.w3.org/2000/svg"
   xmlns="http://www.w3.org/2000/svg"
   xmlns:xlink="http://www.w3.org/1999/xlink"
   xmlns:sodipodi="http://sodipodi.sourceforge.net/DTD/sodipodi-0.dtd"
   xmlns:inkscape="http://www.inkscape.org/namespaces/inkscape"
   version="1.1"
   id="Layer_1"
   x="0px"
   y="0px"
   width="32"
   height="32"
   viewBox="0 0 32 31.999999"
   enable-background="new 0 0 623.62 481.89"
   xml:space="preserve"
   inkscape:version="0.48.4 r9939"
   sodipodi:docname="tw_icon.svg"><metadata
     id="metadata83"><rdf:RDF><cc:Work
         rdf:about=""><dc:format>image/svg+xml</dc:format><dc:type
           rdf:resource="http://purl.org/dc/dcmitype/StillImage" /></cc:Work></rdf:RDF></metadata><defs
     id="defs81" /><sodipodi:namedview
     pagecolor="#ffffff"
     bordercolor="#666666"
     borderopacity="1"
     objecttolerance="10"
     gridtolerance="10"
     guidetolerance="10"
     inkscape:pageopacity="0"
     inkscape:pageshadow="2"
     inkscape:window-width="1299"
     inkscape:window-height="744"
     id="namedview79"
     showgrid="false"
     inkscape:zoom="0.4618197"
     inkscape:cx="133.89355"
     inkscape:cy="240.94501"
     inkscape:window-x="67"
     inkscape:window-y="24"
     inkscape:window-maximized="1"
     inkscape:current-layer="Layer_1" /><g
     id="g3"
     transform="matrix(1.0000313,0,0,1.0000316,-296.01025,-234.00851)"><g
       id="g5"><g
         id="g7"><defs
           id="defs9"><path
             id="SVGID_1_"
             d="m 328,260.667 c 0,2.945 -2.388,5.333 -5.333,5.333 h -21.333 c -2.945,0 -5.333,-2.388 -5.333,-5.333 v -21.333 c 0,-2.945 2.388,-5.333 5.333,-5.333 h 21.333 c 2.945,0 5.333,2.388 5.333,5.333 v 21.333 z"
             inkscape:connector-curvature="0" /></defs><clipPath
           id="SVGID_2_"><use
             xlink:href="#SVGID_1_"
             overflow="visible"
             id="use13"
             style="overflow:visible"
             x="0"
             y="0"
             width="623.62"
             height="481.89001" /></clipPath><rect
           x="296"
           y="234"
           clip-path="url(#SVGID_2_)"
           width="32"
           height="5.4000001"
           id="rect15"
           style="fill:#28a0db" /><rect
           x="296"
           y="239.39999"
           clip-path="url(#SVGID_2_)"
           width="32"
           height="1.367"
           id="rect17"
           style="fill:#28a0db" /><rect
           x="296"
           y="240.767"
           clip-path="url(#SVGID_2_)"
           width="32"
           height="1.3710001"
           id="rect19"
           style="fill:#2aa1db" /><rect
           x="296"
           y="242.138"
           clip-path="url(#SVGID_2_)"
           width="32"
           height="1.3710001"
           id="rect21"
           style="fill:#2ca2db" /><rect
           x="296"
           y="243.509"
           clip-path="url(#SVGID_2_)"
           width="32"
           height="1.3660001"
           id="rect23"
           style="fill:#2ea3db" /><rect
           x="296"
           y="244.875"
           clip-path="url(#SVGID_2_)"
           width="32"
           height="1.3710001"
           id="rect25"
           style="fill:#30a3dc" /><rect
           x="296"
           y="246.246"
           clip-path="url(#SVGID_2_)"
           width="32"
           height="1.3660001"
           id="rect27"
           style="fill:#32a4dc" /><rect
           x="296"
           y="247.612"
           clip-path="url(#SVGID_2_)"
           width="32"
           height="1.3710001"
           id="rect29"
           style="fill:#34a5dc" /><rect
           x="296"
           y="248.983"
           clip-path="url(#SVGID_2_)"
           width="32"
           height="1.3660001"
           id="rect31"
           style="fill:#35a6dd" /><rect
           x="296"
           y="250.35001"
           clip-path="url(#SVGID_2_)"
           width="32"
           height="1.3710001"
           id="rect33"
           style="fill:#37a7dd" /><rect
           x="296"
           y="251.72099"
           clip-path="url(#SVGID_2_)"
           width="32"
           height="1.3710001"
           id="rect35"
           style="fill:#39a8dd" /><rect
           x="296"
           y="253.092"
           clip-path="url(#SVGID_2_)"
           width="32"
           height="1.3660001"
           id="rect37"
           style="fill:#3aa8de" /><rect
           x="296"
           y="254.45799"
           clip-path="url(#SVGID_2_)"
           width="32"
           height="1.367"
           id="rect39"
           style="fill:#3ca9de" /><rect
           x="296"
           y="255.825"
           clip-path="url(#SVGID_2_)"
           width="32"
           height="1.3710001"
           id="rect41"
           style="fill:#3daade" /><rect
           x="296"
           y="257.19601"
           clip-path="url(#SVGID_2_)"
           width="32"
           height="1.37"
           id="rect43"
           style="fill:#3fabdf" /><rect
           x="296"
           y="258.56601"
           clip-path="url(#SVGID_2_)"
           width="32"
           height="1.367"
           id="rect45"
           style="fill:#40acdf" /><rect
           x="296"
           y="259.93399"
           clip-path="url(#SVGID_2_)"
           width="32"
           height="6.066"
           id="rect47"
           style="fill:#40acdf" /></g></g><g
       id="g49"><defs
         id="defs51"><path
           id="SVGID_3_"
           d="m 328,260.667 c 0,2.945 -2.388,5.333 -5.333,5.333 h -21.333 c -2.945,0 -5.333,-2.388 -5.333,-5.333 v -21.333 c 0,-2.945 2.388,-5.333 5.333,-5.333 h 21.333 c 2.945,0 5.333,2.388 5.333,5.333 v 21.333 z"
           inkscape:connector-curvature="0" /></defs><clipPath
         id="SVGID_4_"><use
           xlink:href="#SVGID_3_"
           overflow="visible"
           id="use55"
           style="overflow:visible"
           x="0"
           y="0"
           width="623.62"
           height="481.89001" /></clipPath><g
         clip-path="url(#SVGID_4_)"
         id="g57"><ellipse
           cx="311.948"
           cy="230.802"
           rx="29.173"
           ry="16.32"
           id="ellipse59"
           sodipodi:cx="311.948"
           sodipodi:cy="230.802"
           sodipodi:rx="29.173"
           sodipodi:ry="16.32"
           style="fill:#73c3e7"
           d="m 341.121,230.802 c 0,9.01329 -13.0612,16.32 -29.173,16.32 -16.11181,0 -29.173,-7.30671 -29.173,-16.32 0,-9.01328 13.06119,-16.32 29.173,-16.32 16.1118,0 29.173,7.30672 29.173,16.32 z" /></g></g><g
       id="g61"
       style="opacity:0.5"><path
         d="m 322.667,264.4 h -21.333 c -2.059,0 -3.733,-1.676 -3.733,-3.733 v -21.333 c 0,-2.059 1.675,-3.733 3.733,-3.733 h 21.333 c 2.058,0 3.733,1.675 3.733,3.733 v 21.333 c 0,2.058 -1.675,3.733 -3.733,3.733 z m -21.334,-27.733 c -1.471,0 -2.667,1.196 -2.667,2.667 v 21.333 c 0,1.471 1.196,2.666 2.667,2.666 h 21.333 c 1.471,0 2.666,-1.195 2.666,-2.666 v -21.333 c 0,-1.471 -1.195,-2.667 -2.666,-2.667 h -21.333 z"
         id="path63"
         inkscape:connector-curvature="0"
         style="fill:#ffffff" /></g><g
       id="g65"><g
         id="g67"><path
           d="m 316.75,261.471 h -9.575 c -1.283,0 -2.31,-0.892 -2.808,-1.423 -1.247,-1.329 -1.901,-3.157 -1.806,-5.028 v -12.17 c 0,-2.592 2.109,-4.7 4.7,-4.7 2.592,0 4.701,2.108 4.701,4.7 v 0.177 h 4.788 c 2.592,0 4.698,2.109 4.698,4.701 0,2.146 -1.446,3.96 -3.415,4.521 0.762,0.215 1.463,0.623 2.039,1.2 0.89,0.887 1.376,2.068 1.376,3.322 0,1.256 -0.486,2.436 -1.376,3.324 -0.887,0.886 -2.068,1.376 -3.322,1.376 l 0,0 z"
           id="path69"
           inkscape:connector-curvature="0"
           style="fill:#ffffff" /></g><g
         id="g71"><path
           d="m 316.696,254.739 h -7.182 v -4.433 h 7.182 c 1.273,0 2.306,-1.034 2.306,-2.307 0,-1.273 -1.032,-2.306 -2.306,-2.306 h -7.182 v -2.571 c 0,-1.273 -1.032,-2.304 -2.306,-2.304 -1.274,0 -2.306,1.031 -2.306,2.304 v 12.237 c -0.154,2.417 1.583,3.989 2.22,3.989 h 9.574 c 0.638,0 1.213,-0.258 1.63,-0.675 0.418,-0.416 0.676,-0.993 0.676,-1.63 0,-0.637 -0.258,-1.214 -0.676,-1.63 -0.417,-0.415 -0.992,-0.674 -1.63,-0.674 z"
           id="path73"
           inkscape:connector-curvature="0"
           style="fill:#95d0ec" /></g></g><g
       id="g75"><path
         d="m 316.696,245.694 h -7.182 v -2.571 c 0,-1.273 -1.032,-2.304 -2.306,-2.304 -1.274,0 -2.306,1.031 -2.306,2.304 v 3.517 c 2.257,0.313 4.616,0.482 7.045,0.482 2.287,0 4.508,-0.152 6.644,-0.431 -0.415,-0.601 -1.108,-0.997 -1.895,-0.997 z"
         id="path77"
         inkscape:connector-curvature="0"
         style="fill:#b1ddf1" /></g></g></svg>