<?xml version="1.0" encoding="UTF-8" standalone="no"?>
<!-- Created with Inkscape (http://www.inkscape.org/) -->

<svg
   xmlns:dc="http://purl.org/dc/elements/1.1/"
   xmlns:cc="http://creativecommons.org/ns#"
   xmlns:rdf="http://www.w3.org/1999/02/22-rdf-syntax-ns#"
   xmlns:svg="http://www.w3.org/2000/svg"
   xmlns="http://www.w3.org/2000/svg"
   xmlns:sodipodi="http://sodipodi.sourceforge.net/DTD/sodipodi-0.dtd"
   xmlns:inkscape="http://www.inkscape.org/namespaces/inkscape"
   width="32"
   height="32"
   id="svg9342"
   version="1.1"
   inkscape:version="0.48.4 r9939"
   sodipodi:docname="tw_icon_common.svg">
  <defs
     id="defs9344" />
  <sodipodi:namedview
     id="base"
     pagecolor="#ffffff"
     bordercolor="#666666"
     borderopacity="1.0"
     inkscape:pageopacity="0.0"
     inkscape:pageshadow="2"
     inkscape:zoom="0.35"
     inkscape:cx="350"
     inkscape:cy="152.85714"
     inkscape:document-units="px"
     inkscape:current-layer="layer1"
     showgrid="false"
     inkscape:window-width="1299"
     inkscape:window-height="744"
     inkscape:window-x="67"
     inkscape:window-y="24"
     inkscape:window-maximized="1" />
  <metadata
     id="metadata9347">
    <rdf:RDF>
      <cc:Work
         rdf:about="">
        <dc:format>image/svg+xml</dc:format>
        <dc:type
           rdf:resource="http://purl.org/dc/dcmitype/StillImage" />
        <dc:title />
      </cc:Work>
    </rdf:RDF>
  </metadata>
  <g
     inkscape:label="Capa 1"
     inkscape:groupmode="layer"
     id="layer1"
     transform="translate(0,-1020.3622)">
    <g
       id="g3996"
       transform="matrix(1.0666667,0,0,1.0666667,0,988.3622)">
      <g
         id="g3998">
        <circle
           style="fill:#df9127"
           sodipodi:ry="15"
           sodipodi:rx="15"
           sodipodi:cy="45"
           sodipodi:cx="15"
           id="circle4000"
           r="15"
           cy="45"
           cx="15"
           d="M 30,45 C 30,53.284271 23.284271,60 15,60 6.7157288,60 0,53.284271 0,45 0,36.715729 6.7157288,30 15,30 c 8.284271,0 15,6.715729 15,15 z" />
        <circle
           style="fill:#40aae0"
           sodipodi:ry="15"
           sodipodi:rx="15"
           sodipodi:cy="45"
           sodipodi:cx="15"
           id="circle4002"
           r="15"
           cy="45"
           cx="15"
           d="M 30,45 C 30,53.284271 23.284271,60 15,60 6.7157288,60 0,53.284271 0,45 0,36.715729 6.7157288,30 15,30 c 8.284271,0 15,6.715729 15,15 z" />
        <g
           id="g4004">
          <path
             style="fill:#ffffff"
             inkscape:connector-curvature="0"
             id="path4006"
             d="m 23.965,44.123 c 1.268,-0.104 2.129,-0.681 2.459,-1.464 -0.457,0.281 -1.877,0.588 -2.662,0.296 -0.039,-0.184 -0.082,-0.359 -0.123,-0.518 -0.6,-2.195 -2.645,-3.963 -4.791,-3.75 0.174,-0.07 0.352,-0.135 0.525,-0.193 0.236,-0.085 1.621,-0.311 1.404,-0.8 -0.184,-0.43 -1.877,0.325 -2.195,0.425 0.42,-0.158 1.117,-0.431 1.191,-0.914 -0.645,0.088 -1.277,0.393 -1.766,0.836 0.176,-0.189 0.311,-0.422 0.338,-0.67 -1.719,1.098 -2.723,3.311 -3.535,5.459 -0.639,-0.619 -1.204,-1.106 -1.711,-1.376 -1.423,-0.764 -3.125,-1.56 -5.796,-2.552 -0.082,0.884 0.437,2.059 1.933,2.841 -0.324,-0.043 -0.917,0.054 -1.39,0.167 0.193,1.012 0.823,1.847 2.53,2.25 -0.78,0.052 -1.184,0.229 -1.549,0.61 0.355,0.705 1.222,1.534 2.781,1.363 -1.733,0.747 -0.707,2.132 0.704,1.925 -2.406,2.485 -6.2,2.304 -8.379,0.224 5.688,7.751 18.053,4.584 19.895,-2.882 1.381,0.013 2.191,-0.478 2.695,-1.018 -0.794,0.136 -1.947,-0.004 -2.558,-0.259" />
        </g>
      </g>
    </g>
  </g>
</svg>
