<?xml version="1.0" encoding="utf-8"?>
<!-- Generator: Adobe Illustrator 23.0.6, SVG Export Plug-In . SVG Version: 6.00 Build 0)  -->
<svg version="1.1" id="Capa_1" xmlns="http://www.w3.org/2000/svg" xmlns:xlink="http://www.w3.org/1999/xlink" x="0px" y="0px"
	 viewBox="0 0 100 100" style="enable-background:new 0 0 100 100;" xml:space="preserve">
<style type="text/css">
	.st0{fill:#75B443;}
</style>
<g>
	<g>
		<path class="st0" d="M71.1,35.9c0.6-0.3,1.1-0.7,1.6-1c4.1-2.6,8.2-5.1,12.3-7.7c1.6-1,3.1-2,4.7-2.9c2.4-1.4,5.6-0.5,7,1.8
			c0.6,0.9,0.8,1.9,0.8,3c0,3.7,0,7.3,0,11c0,2.9,0,5.8,0,8.6c0,5.3,0,10.6,0,16c0,2,0,4,0,6c0,1.2-0.2,2.2-0.8,3.2
			c-1.2,1.8-3.3,2.6-5.3,2.3c-1.2-0.2-2.1-0.8-3-1.4c-3.9-2.4-7.8-4.8-11.6-7.3c-1.8-1.1-3.6-2.2-5.3-3.4c0,0-0.1,0-0.2-0.1
			c0,0.2,0,0.3,0,0.5c0,3.1,0,6.3,0,9.4c-0.1,3-1.6,5.1-4.2,6.6c-1.4,0.8-2.9,1.1-4.6,1.1c-2.6,0-5.2,0-7.8,0c-6.6,0-13.2,0-19.7,0
			c-5.1,0-10.3,0-15.4,0c-3,0-6.1,0-9.1,0c-2.1,0-3.9-0.9-5.5-2.3c-1.6-1.5-2.4-3.4-2.4-5.6c0-9.9,0-19.8,0-29.7
			c0-5.7,0-11.5,0-17.2c0-1.3,0.2-2.5,0.7-3.6c1-2.1,2.7-3.4,4.8-4.2c1.2-0.4,2.4-0.5,3.6-0.5c5.1,0,10.2,0,15.3,0
			c5.8,0,11.5,0,17.3,0c5.9,0,11.9,0,17.8,0c1.6,0,3.1,0.2,4.6,0.9c1.1,0.5,2.1,1.3,2.8,2.3c0.8,1,1.4,2,1.6,3.3
			C71,25.4,71,26,71,26.5c0,3,0,6.1,0,9.1C71.1,35.7,71.1,35.7,71.1,35.9z M36.8,26.2c-6.4,0-12.8,0-19.1,0c-2.2,0-4.4,0-6.6,0
			c-0.7,0-0.8,0.1-0.8,0.8c0,2.4,0,4.9,0,7.3c0,7.2,0,14.5,0,21.7c0,5.7,0,11.5,0,17.2c0,0.4,0.2,0.6,0.6,0.6c0.2,0,0.3,0,0.5,0
			c2.6,0,5.1,0,7.7,0c13.7,0,27.4,0,41.1,0c0.7,0,1.5,0,2.2,0c0.8,0,0.9-0.2,0.9-0.9c0-6.2,0-12.4,0-18.6c0-9.2,0-18.3,0-27.5
			c0-0.6-0.1-0.7-0.7-0.7c-0.1,0-0.3,0-0.4,0C53.7,26.2,45.3,26.2,36.8,26.2z M89.6,66.4c0-10.9,0-21.8,0-32.8
			c-0.1,0.1-0.2,0.1-0.3,0.1c-2.9,1.8-5.7,3.6-8.6,5.4c-3.1,1.9-6.2,3.9-9.3,5.8c-0.2,0.1-0.3,0.4-0.3,0.6c0,3,0,6.1,0,9.1
			c0,0.1,0.1,0.3,0.2,0.4c1.9,1.2,3.8,2.4,5.7,3.6c4.1,2.5,8.2,5.1,12.2,7.6C89.3,66.3,89.5,66.3,89.6,66.4z"/>
	</g>
</g>
</svg>
